<?xml version="1.0" encoding="utf-8" standalone="no"?>
<!DOCTYPE svg PUBLIC "-//W3C//DTD SVG 1.1//EN"
  "http://www.w3.org/Graphics/SVG/1.1/DTD/svg11.dtd">
<svg xmlns:xlink="http://www.w3.org/1999/xlink" width="845.977031pt" height="486.39375pt" viewBox="0 0 845.977031 486.39375" xmlns="http://www.w3.org/2000/svg" version="1.1">
 <metadata>
  <rdf:RDF xmlns:dc="http://purl.org/dc/elements/1.1/" xmlns:cc="http://creativecommons.org/ns#" xmlns:rdf="http://www.w3.org/1999/02/22-rdf-syntax-ns#">
   <cc:Work>
    <dc:type rdf:resource="http://purl.org/dc/dcmitype/StillImage"/>
    <dc:date>2024-12-26T16:08:30.806240</dc:date>
    <dc:format>image/svg+xml</dc:format>
    <dc:creator>
     <cc:Agent>
      <dc:title>Matplotlib v3.10.0, https://matplotlib.org/</dc:title>
     </cc:Agent>
    </dc:creator>
   </cc:Work>
  </rdf:RDF>
 </metadata>
 <defs>
  <style type="text/css">*{stroke-linejoin: round; stroke-linecap: butt}</style>
 </defs>
 <g id="figure_1">
  <g id="patch_1">
   <path d="M 0 486.39375 
L 845.977031 486.39375 
L 845.977031 0 
L 0 0 
L 0 486.39375 
z
" style="fill: none"/>
  </g>
  <g id="axes_1">
   <g id="patch_2">
    <path d="M 68.91875 439 
L 786.08875 439 
L 786.08875 7.2 
L 68.91875 7.2 
L 68.91875 439 
z
" style="fill: none"/>
   </g>
   <g id="matplotlib.axis_1">
    <g id="xtick_1">
     <g id="line2d_1">
      <path d="M 98.241142 439 
L 98.241142 7.2 
" clip-path="url(#p764285acc2)" style="fill: none; stroke: #ffffff; stroke-opacity: 0.3; stroke-width: 0.8; stroke-linecap: square"/>
     </g>
     <g id="line2d_2">
      <defs>
       <path id="m64066bc401" d="M 0 0 
L 0 3.5 
" style="stroke: #ffffff; stroke-width: 0.8"/>
      </defs>
      <g>
       <use xlink:href="#m64066bc401" x="98.241142" y="439" style="fill: #ffffff; stroke: #ffffff; stroke-width: 0.8"/>
      </g>
     </g>
     <g id="text_1">
      <!-- 0 -->
      <g style="fill: #ffffff" transform="translate(93.725907 457.477344) scale(0.15 -0.15)">
       <defs>
        <path id="DejaVuSansMono-30" d="M 1509 2344 
Q 1509 2516 1629 2641 
Q 1750 2766 1919 2766 
Q 2094 2766 2219 2641 
Q 2344 2516 2344 2344 
Q 2344 2169 2220 2047 
Q 2097 1925 1919 1925 
Q 1744 1925 1626 2044 
Q 1509 2163 1509 2344 
z
M 1925 4250 
Q 1484 4250 1267 3775 
Q 1050 3300 1050 2328 
Q 1050 1359 1267 884 
Q 1484 409 1925 409 
Q 2369 409 2586 884 
Q 2803 1359 2803 2328 
Q 2803 3300 2586 3775 
Q 2369 4250 1925 4250 
z
M 1925 4750 
Q 2672 4750 3055 4137 
Q 3438 3525 3438 2328 
Q 3438 1134 3055 521 
Q 2672 -91 1925 -91 
Q 1178 -91 797 521 
Q 416 1134 416 2328 
Q 416 3525 797 4137 
Q 1178 4750 1925 4750 
z
" transform="scale(0.015625)"/>
       </defs>
       <use xlink:href="#DejaVuSansMono-30"/>
      </g>
     </g>
    </g>
    <g id="xtick_2">
     <g id="line2d_3">
      <path d="M 163.766039 439 
L 163.766039 7.2 
" clip-path="url(#p764285acc2)" style="fill: none; stroke: #ffffff; stroke-opacity: 0.3; stroke-width: 0.8; stroke-linecap: square"/>
     </g>
     <g id="line2d_4">
      <g>
       <use xlink:href="#m64066bc401" x="163.766039" y="439" style="fill: #ffffff; stroke: #ffffff; stroke-width: 0.8"/>
      </g>
     </g>
     <g id="text_2">
      <!-- 20 -->
      <g style="fill: #ffffff" transform="translate(154.73557 457.477344) scale(0.15 -0.15)">
       <defs>
        <path id="DejaVuSansMono-32" d="M 1166 531 
L 3309 531 
L 3309 0 
L 475 0 
L 475 531 
Q 1059 1147 1496 1619 
Q 1934 2091 2100 2284 
Q 2413 2666 2522 2902 
Q 2631 3138 2631 3384 
Q 2631 3775 2401 3997 
Q 2172 4219 1772 4219 
Q 1488 4219 1175 4116 
Q 863 4013 513 3803 
L 513 4441 
Q 834 4594 1145 4672 
Q 1456 4750 1759 4750 
Q 2444 4750 2861 4386 
Q 3278 4022 3278 3431 
Q 3278 3131 3139 2831 
Q 3000 2531 2688 2169 
Q 2513 1966 2180 1606 
Q 1847 1247 1166 531 
z
" transform="scale(0.015625)"/>
       </defs>
       <use xlink:href="#DejaVuSansMono-32"/>
       <use xlink:href="#DejaVuSansMono-30" transform="translate(60.205078 0)"/>
      </g>
     </g>
    </g>
    <g id="xtick_3">
     <g id="line2d_5">
      <path d="M 229.290936 439 
L 229.290936 7.2 
" clip-path="url(#p764285acc2)" style="fill: none; stroke: #ffffff; stroke-opacity: 0.3; stroke-width: 0.8; stroke-linecap: square"/>
     </g>
     <g id="line2d_6">
      <g>
       <use xlink:href="#m64066bc401" x="229.290936" y="439" style="fill: #ffffff; stroke: #ffffff; stroke-width: 0.8"/>
      </g>
     </g>
     <g id="text_3">
      <!-- 40 -->
      <g style="fill: #ffffff" transform="translate(220.260467 457.477344) scale(0.15 -0.15)">
       <defs>
        <path id="DejaVuSansMono-34" d="M 2297 4091 
L 825 1625 
L 2297 1625 
L 2297 4091 
z
M 2194 4666 
L 2925 4666 
L 2925 1625 
L 3547 1625 
L 3547 1113 
L 2925 1113 
L 2925 0 
L 2297 0 
L 2297 1113 
L 319 1113 
L 319 1709 
L 2194 4666 
z
" transform="scale(0.015625)"/>
       </defs>
       <use xlink:href="#DejaVuSansMono-34"/>
       <use xlink:href="#DejaVuSansMono-30" transform="translate(60.205078 0)"/>
      </g>
     </g>
    </g>
    <g id="xtick_4">
     <g id="line2d_7">
      <path d="M 294.815833 439 
L 294.815833 7.2 
" clip-path="url(#p764285acc2)" style="fill: none; stroke: #ffffff; stroke-opacity: 0.3; stroke-width: 0.8; stroke-linecap: square"/>
     </g>
     <g id="line2d_8">
      <g>
       <use xlink:href="#m64066bc401" x="294.815833" y="439" style="fill: #ffffff; stroke: #ffffff; stroke-width: 0.8"/>
      </g>
     </g>
     <g id="text_4">
      <!-- 60 -->
      <g style="fill: #ffffff" transform="translate(285.785364 457.477344) scale(0.15 -0.15)">
       <defs>
        <path id="DejaVuSansMono-36" d="M 3097 4563 
L 3097 3981 
Q 2900 4097 2678 4158 
Q 2456 4219 2216 4219 
Q 1616 4219 1306 3767 
Q 997 3316 997 2438 
Q 1147 2750 1412 2917 
Q 1678 3084 2022 3084 
Q 2697 3084 3067 2670 
Q 3438 2256 3438 1497 
Q 3438 741 3056 325 
Q 2675 -91 1984 -91 
Q 1172 -91 794 492 
Q 416 1075 416 2328 
Q 416 3509 870 4129 
Q 1325 4750 2188 4750 
Q 2419 4750 2650 4701 
Q 2881 4653 3097 4563 
z
M 1972 2591 
Q 1569 2591 1337 2300 
Q 1106 2009 1106 1497 
Q 1106 984 1337 693 
Q 1569 403 1972 403 
Q 2391 403 2603 679 
Q 2816 956 2816 1497 
Q 2816 2041 2603 2316 
Q 2391 2591 1972 2591 
z
" transform="scale(0.015625)"/>
       </defs>
       <use xlink:href="#DejaVuSansMono-36"/>
       <use xlink:href="#DejaVuSansMono-30" transform="translate(60.205078 0)"/>
      </g>
     </g>
    </g>
    <g id="xtick_5">
     <g id="line2d_9">
      <path d="M 360.34073 439 
L 360.34073 7.2 
" clip-path="url(#p764285acc2)" style="fill: none; stroke: #ffffff; stroke-opacity: 0.3; stroke-width: 0.8; stroke-linecap: square"/>
     </g>
     <g id="line2d_10">
      <g>
       <use xlink:href="#m64066bc401" x="360.34073" y="439" style="fill: #ffffff; stroke: #ffffff; stroke-width: 0.8"/>
      </g>
     </g>
     <g id="text_5">
      <!-- 80 -->
      <g style="fill: #ffffff" transform="translate(351.310262 457.477344) scale(0.15 -0.15)">
       <defs>
        <path id="DejaVuSansMono-38" d="M 1925 2216 
Q 1503 2216 1273 1980 
Q 1044 1744 1044 1313 
Q 1044 881 1276 642 
Q 1509 403 1925 403 
Q 2350 403 2579 639 
Q 2809 875 2809 1313 
Q 2809 1741 2576 1978 
Q 2344 2216 1925 2216 
z
M 1375 2478 
Q 972 2581 745 2862 
Q 519 3144 519 3541 
Q 519 4097 897 4423 
Q 1275 4750 1925 4750 
Q 2578 4750 2956 4423 
Q 3334 4097 3334 3541 
Q 3334 3144 3107 2862 
Q 2881 2581 2478 2478 
Q 2947 2375 3195 2062 
Q 3444 1750 3444 1253 
Q 3444 622 3041 265 
Q 2638 -91 1925 -91 
Q 1213 -91 811 264 
Q 409 619 409 1247 
Q 409 1747 657 2061 
Q 906 2375 1375 2478 
z
M 1147 3481 
Q 1147 3106 1347 2909 
Q 1547 2713 1925 2713 
Q 2306 2713 2506 2909 
Q 2706 3106 2706 3481 
Q 2706 3863 2507 4063 
Q 2309 4263 1925 4263 
Q 1547 4263 1347 4061 
Q 1147 3859 1147 3481 
z
" transform="scale(0.015625)"/>
       </defs>
       <use xlink:href="#DejaVuSansMono-38"/>
       <use xlink:href="#DejaVuSansMono-30" transform="translate(60.205078 0)"/>
      </g>
     </g>
    </g>
    <g id="xtick_6">
     <g id="line2d_11">
      <path d="M 425.865628 439 
L 425.865628 7.2 
" clip-path="url(#p764285acc2)" style="fill: none; stroke: #ffffff; stroke-opacity: 0.3; stroke-width: 0.8; stroke-linecap: square"/>
     </g>
     <g id="line2d_12">
      <g>
       <use xlink:href="#m64066bc401" x="425.865628" y="439" style="fill: #ffffff; stroke: #ffffff; stroke-width: 0.8"/>
      </g>
     </g>
     <g id="text_6">
      <!-- 100 -->
      <g style="fill: #ffffff" transform="translate(412.319924 457.477344) scale(0.15 -0.15)">
       <defs>
        <path id="DejaVuSansMono-31" d="M 844 531 
L 1825 531 
L 1825 4097 
L 769 3859 
L 769 4434 
L 1819 4666 
L 2450 4666 
L 2450 531 
L 3419 531 
L 3419 0 
L 844 0 
L 844 531 
z
" transform="scale(0.015625)"/>
       </defs>
       <use xlink:href="#DejaVuSansMono-31"/>
       <use xlink:href="#DejaVuSansMono-30" transform="translate(60.205078 0)"/>
       <use xlink:href="#DejaVuSansMono-30" transform="translate(120.410156 0)"/>
      </g>
     </g>
    </g>
    <g id="xtick_7">
     <g id="line2d_13">
      <path d="M 491.390525 439 
L 491.390525 7.2 
" clip-path="url(#p764285acc2)" style="fill: none; stroke: #ffffff; stroke-opacity: 0.3; stroke-width: 0.8; stroke-linecap: square"/>
     </g>
     <g id="line2d_14">
      <g>
       <use xlink:href="#m64066bc401" x="491.390525" y="439" style="fill: #ffffff; stroke: #ffffff; stroke-width: 0.8"/>
      </g>
     </g>
     <g id="text_7">
      <!-- 120 -->
      <g style="fill: #ffffff" transform="translate(477.844822 457.477344) scale(0.15 -0.15)">
       <use xlink:href="#DejaVuSansMono-31"/>
       <use xlink:href="#DejaVuSansMono-32" transform="translate(60.205078 0)"/>
       <use xlink:href="#DejaVuSansMono-30" transform="translate(120.410156 0)"/>
      </g>
     </g>
    </g>
    <g id="xtick_8">
     <g id="line2d_15">
      <path d="M 556.915422 439 
L 556.915422 7.2 
" clip-path="url(#p764285acc2)" style="fill: none; stroke: #ffffff; stroke-opacity: 0.3; stroke-width: 0.8; stroke-linecap: square"/>
     </g>
     <g id="line2d_16">
      <g>
       <use xlink:href="#m64066bc401" x="556.915422" y="439" style="fill: #ffffff; stroke: #ffffff; stroke-width: 0.8"/>
      </g>
     </g>
     <g id="text_8">
      <!-- 140 -->
      <g style="fill: #ffffff" transform="translate(543.369719 457.477344) scale(0.15 -0.15)">
       <use xlink:href="#DejaVuSansMono-31"/>
       <use xlink:href="#DejaVuSansMono-34" transform="translate(60.205078 0)"/>
       <use xlink:href="#DejaVuSansMono-30" transform="translate(120.410156 0)"/>
      </g>
     </g>
    </g>
    <g id="xtick_9">
     <g id="line2d_17">
      <path d="M 622.440319 439 
L 622.440319 7.2 
" clip-path="url(#p764285acc2)" style="fill: none; stroke: #ffffff; stroke-opacity: 0.3; stroke-width: 0.8; stroke-linecap: square"/>
     </g>
     <g id="line2d_18">
      <g>
       <use xlink:href="#m64066bc401" x="622.440319" y="439" style="fill: #ffffff; stroke: #ffffff; stroke-width: 0.8"/>
      </g>
     </g>
     <g id="text_9">
      <!-- 160 -->
      <g style="fill: #ffffff" transform="translate(608.894616 457.477344) scale(0.15 -0.15)">
       <use xlink:href="#DejaVuSansMono-31"/>
       <use xlink:href="#DejaVuSansMono-36" transform="translate(60.205078 0)"/>
       <use xlink:href="#DejaVuSansMono-30" transform="translate(120.410156 0)"/>
      </g>
     </g>
    </g>
    <g id="xtick_10">
     <g id="line2d_19">
      <path d="M 687.965216 439 
L 687.965216 7.2 
" clip-path="url(#p764285acc2)" style="fill: none; stroke: #ffffff; stroke-opacity: 0.3; stroke-width: 0.8; stroke-linecap: square"/>
     </g>
     <g id="line2d_20">
      <g>
       <use xlink:href="#m64066bc401" x="687.965216" y="439" style="fill: #ffffff; stroke: #ffffff; stroke-width: 0.8"/>
      </g>
     </g>
     <g id="text_10">
      <!-- 180 -->
      <g style="fill: #ffffff" transform="translate(674.419513 457.477344) scale(0.15 -0.15)">
       <use xlink:href="#DejaVuSansMono-31"/>
       <use xlink:href="#DejaVuSansMono-38" transform="translate(60.205078 0)"/>
       <use xlink:href="#DejaVuSansMono-30" transform="translate(120.410156 0)"/>
      </g>
     </g>
    </g>
    <g id="xtick_11">
     <g id="line2d_21">
      <path d="M 753.490114 439 
L 753.490114 7.2 
" clip-path="url(#p764285acc2)" style="fill: none; stroke: #ffffff; stroke-opacity: 0.3; stroke-width: 0.8; stroke-linecap: square"/>
     </g>
     <g id="line2d_22">
      <g>
       <use xlink:href="#m64066bc401" x="753.490114" y="439" style="fill: #ffffff; stroke: #ffffff; stroke-width: 0.8"/>
      </g>
     </g>
     <g id="text_11">
      <!-- 200 -->
      <g style="fill: #ffffff" transform="translate(739.944411 457.477344) scale(0.15 -0.15)">
       <use xlink:href="#DejaVuSansMono-32"/>
       <use xlink:href="#DejaVuSansMono-30" transform="translate(60.205078 0)"/>
       <use xlink:href="#DejaVuSansMono-30" transform="translate(120.410156 0)"/>
      </g>
     </g>
    </g>
    <g id="text_12">
     <!-- Pack Current (A) -->
     <g style="fill: #ffffff" transform="translate(355.26 476.074219) scale(0.15 -0.15)">
      <defs>
       <path id="DejaVuSansMono-50" d="M 1247 4147 
L 1247 2394 
L 1978 2394 
Q 2416 2394 2661 2625 
Q 2906 2856 2906 3272 
Q 2906 3688 2662 3917 
Q 2419 4147 1978 4147 
L 1247 4147 
z
M 616 4666 
L 1978 4666 
Q 2759 4666 3162 4311 
Q 3566 3956 3566 3272 
Q 3566 2581 3164 2228 
Q 2763 1875 1978 1875 
L 1247 1875 
L 1247 0 
L 616 0 
L 616 4666 
z
" transform="scale(0.015625)"/>
       <path id="DejaVuSansMono-61" d="M 2194 1759 
L 2003 1759 
Q 1500 1759 1245 1582 
Q 991 1406 991 1056 
Q 991 741 1181 566 
Q 1372 391 1709 391 
Q 2184 391 2456 720 
Q 2728 1050 2731 1631 
L 2731 1759 
L 2194 1759 
z
M 3309 1997 
L 3309 0 
L 2731 0 
L 2731 519 
Q 2547 206 2267 57 
Q 1988 -91 1588 -91 
Q 1053 -91 734 211 
Q 416 513 416 1019 
Q 416 1603 808 1906 
Q 1200 2209 1959 2209 
L 2731 2209 
L 2731 2300 
Q 2728 2719 2518 2908 
Q 2309 3097 1850 3097 
Q 1556 3097 1256 3012 
Q 956 2928 672 2766 
L 672 3341 
Q 991 3463 1283 3523 
Q 1575 3584 1850 3584 
Q 2284 3584 2592 3456 
Q 2900 3328 3091 3072 
Q 3209 2916 3259 2686 
Q 3309 2456 3309 1997 
z
" transform="scale(0.015625)"/>
       <path id="DejaVuSansMono-63" d="M 3316 178 
Q 3084 44 2839 -23 
Q 2594 -91 2338 -91 
Q 1525 -91 1067 396 
Q 609 884 609 1747 
Q 609 2609 1067 3096 
Q 1525 3584 2338 3584 
Q 2591 3584 2831 3518 
Q 3072 3453 3316 3316 
L 3316 2713 
Q 3088 2916 2858 3006 
Q 2628 3097 2338 3097 
Q 1797 3097 1506 2747 
Q 1216 2397 1216 1747 
Q 1216 1100 1508 748 
Q 1800 397 2338 397 
Q 2638 397 2875 489 
Q 3113 581 3316 775 
L 3316 178 
z
" transform="scale(0.015625)"/>
       <path id="DejaVuSansMono-6b" d="M 738 4863 
L 1331 4863 
L 1331 2047 
L 2841 3500 
L 3541 3500 
L 2163 2181 
L 3756 0 
L 3053 0 
L 1759 1806 
L 1331 1403 
L 1331 0 
L 738 0 
L 738 4863 
z
" transform="scale(0.015625)"/>
       <path id="DejaVuSansMono-20" transform="scale(0.015625)"/>
       <path id="DejaVuSansMono-43" d="M 3353 166 
Q 3113 38 2859 -26 
Q 2606 -91 2322 -91 
Q 1425 -91 929 543 
Q 434 1178 434 2328 
Q 434 3472 932 4111 
Q 1431 4750 2322 4750 
Q 2606 4750 2859 4686 
Q 3113 4622 3353 4494 
L 3353 3847 
Q 3122 4038 2856 4138 
Q 2591 4238 2322 4238 
Q 1706 4238 1400 3763 
Q 1094 3288 1094 2328 
Q 1094 1372 1400 897 
Q 1706 422 2322 422 
Q 2597 422 2861 522 
Q 3125 622 3353 813 
L 3353 166 
z
" transform="scale(0.015625)"/>
       <path id="DejaVuSansMono-75" d="M 609 1325 
L 609 3494 
L 1184 3494 
L 1184 1325 
Q 1184 853 1351 631 
Q 1519 409 1869 409 
Q 2275 409 2490 695 
Q 2706 981 2706 1516 
L 2706 3494 
L 3284 3494 
L 3284 0 
L 2706 0 
L 2706 525 
Q 2553 222 2289 65 
Q 2025 -91 1672 -91 
Q 1134 -91 871 261 
Q 609 613 609 1325 
z
" transform="scale(0.015625)"/>
       <path id="DejaVuSansMono-72" d="M 3609 2778 
Q 3425 2922 3234 2987 
Q 3044 3053 2816 3053 
Q 2278 3053 1993 2715 
Q 1709 2378 1709 1741 
L 1709 0 
L 1131 0 
L 1131 3500 
L 1709 3500 
L 1709 2816 
Q 1853 3188 2151 3386 
Q 2450 3584 2859 3584 
Q 3072 3584 3256 3531 
Q 3441 3478 3609 3366 
L 3609 2778 
z
" transform="scale(0.015625)"/>
       <path id="DejaVuSansMono-65" d="M 3475 1894 
L 3475 1613 
L 984 1613 
L 984 1594 
Q 984 1022 1282 709 
Q 1581 397 2125 397 
Q 2400 397 2700 484 
Q 3000 572 3341 750 
L 3341 178 
Q 3013 44 2708 -23 
Q 2403 -91 2119 -91 
Q 1303 -91 843 398 
Q 384 888 384 1747 
Q 384 2584 834 3084 
Q 1284 3584 2034 3584 
Q 2703 3584 3089 3131 
Q 3475 2678 3475 1894 
z
M 2900 2063 
Q 2888 2569 2661 2833 
Q 2434 3097 2009 3097 
Q 1594 3097 1325 2822 
Q 1056 2547 1006 2059 
L 2900 2063 
z
" transform="scale(0.015625)"/>
       <path id="DejaVuSansMono-6e" d="M 3284 2169 
L 3284 0 
L 2706 0 
L 2706 2169 
Q 2706 2641 2540 2862 
Q 2375 3084 2022 3084 
Q 1619 3084 1401 2798 
Q 1184 2513 1184 1978 
L 1184 0 
L 609 0 
L 609 3500 
L 1184 3500 
L 1184 2975 
Q 1338 3275 1600 3429 
Q 1863 3584 2222 3584 
Q 2756 3584 3020 3232 
Q 3284 2881 3284 2169 
z
" transform="scale(0.015625)"/>
       <path id="DejaVuSansMono-74" d="M 1919 4494 
L 1919 3500 
L 3225 3500 
L 3225 3053 
L 1919 3053 
L 1919 1153 
Q 1919 766 2066 612 
Q 2213 459 2578 459 
L 3225 459 
L 3225 0 
L 2522 0 
Q 1875 0 1609 259 
Q 1344 519 1344 1153 
L 1344 3053 
L 409 3053 
L 409 3500 
L 1344 3500 
L 1344 4494 
L 1919 4494 
z
" transform="scale(0.015625)"/>
       <path id="DejaVuSansMono-28" d="M 2766 4856 
Q 2350 4144 2145 3436 
Q 1941 2728 1941 2009 
Q 1941 1294 2145 584 
Q 2350 -125 2766 -844 
L 2266 -844 
Q 1794 -100 1562 604 
Q 1331 1309 1331 2009 
Q 1331 2706 1562 3412 
Q 1794 4119 2266 4856 
L 2766 4856 
z
" transform="scale(0.015625)"/>
       <path id="DejaVuSansMono-41" d="M 1925 4109 
L 1259 1722 
L 2591 1722 
L 1925 4109 
z
M 1544 4666 
L 2309 4666 
L 3738 0 
L 3084 0 
L 2741 1216 
L 1106 1216 
L 769 0 
L 116 0 
L 1544 4666 
z
" transform="scale(0.015625)"/>
       <path id="DejaVuSansMono-29" d="M 1088 4856 
L 1588 4856 
Q 2059 4119 2290 3412 
Q 2522 2706 2522 2009 
Q 2522 1306 2290 600 
Q 2059 -106 1588 -844 
L 1088 -844 
Q 1503 -119 1708 590 
Q 1913 1300 1913 2009 
Q 1913 2722 1708 3431 
Q 1503 4141 1088 4856 
z
" transform="scale(0.015625)"/>
      </defs>
      <use xlink:href="#DejaVuSansMono-50"/>
      <use xlink:href="#DejaVuSansMono-61" transform="translate(60.205078 0)"/>
      <use xlink:href="#DejaVuSansMono-63" transform="translate(120.410156 0)"/>
      <use xlink:href="#DejaVuSansMono-6b" transform="translate(180.615234 0)"/>
      <use xlink:href="#DejaVuSansMono-20" transform="translate(240.820312 0)"/>
      <use xlink:href="#DejaVuSansMono-43" transform="translate(301.025391 0)"/>
      <use xlink:href="#DejaVuSansMono-75" transform="translate(361.230469 0)"/>
      <use xlink:href="#DejaVuSansMono-72" transform="translate(421.435547 0)"/>
      <use xlink:href="#DejaVuSansMono-72" transform="translate(481.640625 0)"/>
      <use xlink:href="#DejaVuSansMono-65" transform="translate(541.845703 0)"/>
      <use xlink:href="#DejaVuSansMono-6e" transform="translate(602.050781 0)"/>
      <use xlink:href="#DejaVuSansMono-74" transform="translate(662.255859 0)"/>
      <use xlink:href="#DejaVuSansMono-20" transform="translate(722.460938 0)"/>
      <use xlink:href="#DejaVuSansMono-28" transform="translate(782.666016 0)"/>
      <use xlink:href="#DejaVuSansMono-41" transform="translate(842.871094 0)"/>
      <use xlink:href="#DejaVuSansMono-29" transform="translate(903.076172 0)"/>
     </g>
    </g>
   </g>
   <g id="matplotlib.axis_2">
    <g id="ytick_1">
     <g id="line2d_23">
      <path d="M 68.91875 419.378335 
L 786.08875 419.378335 
" clip-path="url(#p764285acc2)" style="fill: none; stroke: #ffffff; stroke-opacity: 0.3; stroke-width: 0.8; stroke-linecap: square"/>
     </g>
     <g id="line2d_24">
      <defs>
       <path id="m9153d2351e" d="M 0 0 
L -3.5 0 
" style="stroke: #ffffff; stroke-width: 0.8"/>
      </defs>
      <g>
       <use xlink:href="#m9153d2351e" x="68.91875" y="419.378335" style="fill: #ffffff; stroke: #ffffff; stroke-width: 0.8"/>
      </g>
     </g>
     <g id="text_13">
      <!-- 0 -->
      <g style="fill: #ffffff" transform="translate(52.888281 425.117007) scale(0.15 -0.15)">
       <use xlink:href="#DejaVuSansMono-30"/>
      </g>
     </g>
    </g>
    <g id="ytick_2">
     <g id="line2d_25">
      <path d="M 68.91875 399.35022 
L 786.08875 399.35022 
" clip-path="url(#p764285acc2)" style="fill: none; stroke: #ffffff; stroke-opacity: 0.3; stroke-width: 0.8; stroke-linecap: square"/>
     </g>
     <g id="line2d_26">
      <g>
       <use xlink:href="#m9153d2351e" x="68.91875" y="399.35022" style="fill: #ffffff; stroke: #ffffff; stroke-width: 0.8"/>
      </g>
     </g>
     <g id="text_14">
      <!-- 100 -->
      <g style="fill: #ffffff" transform="translate(34.827344 405.088892) scale(0.15 -0.15)">
       <use xlink:href="#DejaVuSansMono-31"/>
       <use xlink:href="#DejaVuSansMono-30" transform="translate(60.205078 0)"/>
       <use xlink:href="#DejaVuSansMono-30" transform="translate(120.410156 0)"/>
      </g>
     </g>
    </g>
    <g id="ytick_3">
     <g id="line2d_27">
      <path d="M 68.91875 379.322104 
L 786.08875 379.322104 
" clip-path="url(#p764285acc2)" style="fill: none; stroke: #ffffff; stroke-opacity: 0.3; stroke-width: 0.8; stroke-linecap: square"/>
     </g>
     <g id="line2d_28">
      <g>
       <use xlink:href="#m9153d2351e" x="68.91875" y="379.322104" style="fill: #ffffff; stroke: #ffffff; stroke-width: 0.8"/>
      </g>
     </g>
     <g id="text_15">
      <!-- 200 -->
      <g style="fill: #ffffff" transform="translate(34.827344 385.060776) scale(0.15 -0.15)">
       <use xlink:href="#DejaVuSansMono-32"/>
       <use xlink:href="#DejaVuSansMono-30" transform="translate(60.205078 0)"/>
       <use xlink:href="#DejaVuSansMono-30" transform="translate(120.410156 0)"/>
      </g>
     </g>
    </g>
    <g id="ytick_4">
     <g id="line2d_29">
      <path d="M 68.91875 359.293989 
L 786.08875 359.293989 
" clip-path="url(#p764285acc2)" style="fill: none; stroke: #ffffff; stroke-opacity: 0.3; stroke-width: 0.8; stroke-linecap: square"/>
     </g>
     <g id="line2d_30">
      <g>
       <use xlink:href="#m9153d2351e" x="68.91875" y="359.293989" style="fill: #ffffff; stroke: #ffffff; stroke-width: 0.8"/>
      </g>
     </g>
     <g id="text_16">
      <!-- 300 -->
      <g style="fill: #ffffff" transform="translate(34.827344 365.032661) scale(0.15 -0.15)">
       <defs>
        <path id="DejaVuSansMono-33" d="M 2425 2497 
Q 2884 2375 3128 2064 
Q 3372 1753 3372 1288 
Q 3372 644 2939 276 
Q 2506 -91 1741 -91 
Q 1419 -91 1084 -31 
Q 750 28 428 141 
L 428 769 
Q 747 603 1056 522 
Q 1366 441 1672 441 
Q 2191 441 2469 675 
Q 2747 909 2747 1350 
Q 2747 1756 2469 1995 
Q 2191 2234 1716 2234 
L 1234 2234 
L 1234 2753 
L 1716 2753 
Q 2150 2753 2394 2943 
Q 2638 3134 2638 3475 
Q 2638 3834 2411 4026 
Q 2184 4219 1766 4219 
Q 1488 4219 1191 4156 
Q 894 4094 569 3969 
L 569 4550 
Q 947 4650 1242 4700 
Q 1538 4750 1766 4750 
Q 2447 4750 2855 4408 
Q 3263 4066 3263 3500 
Q 3263 3116 3048 2859 
Q 2834 2603 2425 2497 
z
" transform="scale(0.015625)"/>
       </defs>
       <use xlink:href="#DejaVuSansMono-33"/>
       <use xlink:href="#DejaVuSansMono-30" transform="translate(60.205078 0)"/>
       <use xlink:href="#DejaVuSansMono-30" transform="translate(120.410156 0)"/>
      </g>
     </g>
    </g>
    <g id="ytick_5">
     <g id="line2d_31">
      <path d="M 68.91875 339.265873 
L 786.08875 339.265873 
" clip-path="url(#p764285acc2)" style="fill: none; stroke: #ffffff; stroke-opacity: 0.3; stroke-width: 0.8; stroke-linecap: square"/>
     </g>
     <g id="line2d_32">
      <g>
       <use xlink:href="#m9153d2351e" x="68.91875" y="339.265873" style="fill: #ffffff; stroke: #ffffff; stroke-width: 0.8"/>
      </g>
     </g>
     <g id="text_17">
      <!-- 400 -->
      <g style="fill: #ffffff" transform="translate(34.827344 345.004545) scale(0.15 -0.15)">
       <use xlink:href="#DejaVuSansMono-34"/>
       <use xlink:href="#DejaVuSansMono-30" transform="translate(60.205078 0)"/>
       <use xlink:href="#DejaVuSansMono-30" transform="translate(120.410156 0)"/>
      </g>
     </g>
    </g>
    <g id="ytick_6">
     <g id="line2d_33">
      <path d="M 68.91875 319.237758 
L 786.08875 319.237758 
" clip-path="url(#p764285acc2)" style="fill: none; stroke: #ffffff; stroke-opacity: 0.3; stroke-width: 0.8; stroke-linecap: square"/>
     </g>
     <g id="line2d_34">
      <g>
       <use xlink:href="#m9153d2351e" x="68.91875" y="319.237758" style="fill: #ffffff; stroke: #ffffff; stroke-width: 0.8"/>
      </g>
     </g>
     <g id="text_18">
      <!-- 500 -->
      <g style="fill: #ffffff" transform="translate(34.827344 324.97643) scale(0.15 -0.15)">
       <defs>
        <path id="DejaVuSansMono-35" d="M 647 4666 
L 3009 4666 
L 3009 4134 
L 1222 4134 
L 1222 2988 
Q 1356 3038 1492 3061 
Q 1628 3084 1766 3084 
Q 2491 3084 2916 2656 
Q 3341 2228 3341 1497 
Q 3341 759 2895 334 
Q 2450 -91 1678 -91 
Q 1306 -91 998 -41 
Q 691 9 447 109 
L 447 750 
Q 734 594 1025 517 
Q 1316 441 1619 441 
Q 2141 441 2423 716 
Q 2706 991 2706 1497 
Q 2706 1997 2414 2275 
Q 2122 2553 1600 2553 
Q 1347 2553 1106 2495 
Q 866 2438 647 2322 
L 647 4666 
z
" transform="scale(0.015625)"/>
       </defs>
       <use xlink:href="#DejaVuSansMono-35"/>
       <use xlink:href="#DejaVuSansMono-30" transform="translate(60.205078 0)"/>
       <use xlink:href="#DejaVuSansMono-30" transform="translate(120.410156 0)"/>
      </g>
     </g>
    </g>
    <g id="ytick_7">
     <g id="line2d_35">
      <path d="M 68.91875 299.209643 
L 786.08875 299.209643 
" clip-path="url(#p764285acc2)" style="fill: none; stroke: #ffffff; stroke-opacity: 0.3; stroke-width: 0.8; stroke-linecap: square"/>
     </g>
     <g id="line2d_36">
      <g>
       <use xlink:href="#m9153d2351e" x="68.91875" y="299.209643" style="fill: #ffffff; stroke: #ffffff; stroke-width: 0.8"/>
      </g>
     </g>
     <g id="text_19">
      <!-- 600 -->
      <g style="fill: #ffffff" transform="translate(34.827344 304.948314) scale(0.15 -0.15)">
       <use xlink:href="#DejaVuSansMono-36"/>
       <use xlink:href="#DejaVuSansMono-30" transform="translate(60.205078 0)"/>
       <use xlink:href="#DejaVuSansMono-30" transform="translate(120.410156 0)"/>
      </g>
     </g>
    </g>
    <g id="ytick_8">
     <g id="line2d_37">
      <path d="M 68.91875 279.181527 
L 786.08875 279.181527 
" clip-path="url(#p764285acc2)" style="fill: none; stroke: #ffffff; stroke-opacity: 0.3; stroke-width: 0.8; stroke-linecap: square"/>
     </g>
     <g id="line2d_38">
      <g>
       <use xlink:href="#m9153d2351e" x="68.91875" y="279.181527" style="fill: #ffffff; stroke: #ffffff; stroke-width: 0.8"/>
      </g>
     </g>
     <g id="text_20">
      <!-- 700 -->
      <g style="fill: #ffffff" transform="translate(34.827344 284.920199) scale(0.15 -0.15)">
       <defs>
        <path id="DejaVuSansMono-37" d="M 434 4666 
L 3372 4666 
L 3372 4397 
L 1703 0 
L 1044 0 
L 2669 4134 
L 434 4134 
L 434 4666 
z
" transform="scale(0.015625)"/>
       </defs>
       <use xlink:href="#DejaVuSansMono-37"/>
       <use xlink:href="#DejaVuSansMono-30" transform="translate(60.205078 0)"/>
       <use xlink:href="#DejaVuSansMono-30" transform="translate(120.410156 0)"/>
      </g>
     </g>
    </g>
    <g id="ytick_9">
     <g id="line2d_39">
      <path d="M 68.91875 259.153412 
L 786.08875 259.153412 
" clip-path="url(#p764285acc2)" style="fill: none; stroke: #ffffff; stroke-opacity: 0.3; stroke-width: 0.8; stroke-linecap: square"/>
     </g>
     <g id="line2d_40">
      <g>
       <use xlink:href="#m9153d2351e" x="68.91875" y="259.153412" style="fill: #ffffff; stroke: #ffffff; stroke-width: 0.8"/>
      </g>
     </g>
     <g id="text_21">
      <!-- 800 -->
      <g style="fill: #ffffff" transform="translate(34.827344 264.892084) scale(0.15 -0.15)">
       <use xlink:href="#DejaVuSansMono-38"/>
       <use xlink:href="#DejaVuSansMono-30" transform="translate(60.205078 0)"/>
       <use xlink:href="#DejaVuSansMono-30" transform="translate(120.410156 0)"/>
      </g>
     </g>
    </g>
    <g id="ytick_10">
     <g id="line2d_41">
      <path d="M 68.91875 239.125296 
L 786.08875 239.125296 
" clip-path="url(#p764285acc2)" style="fill: none; stroke: #ffffff; stroke-opacity: 0.3; stroke-width: 0.8; stroke-linecap: square"/>
     </g>
     <g id="line2d_42">
      <g>
       <use xlink:href="#m9153d2351e" x="68.91875" y="239.125296" style="fill: #ffffff; stroke: #ffffff; stroke-width: 0.8"/>
      </g>
     </g>
     <g id="text_22">
      <!-- 900 -->
      <g style="fill: #ffffff" transform="translate(34.827344 244.863968) scale(0.15 -0.15)">
       <defs>
        <path id="DejaVuSansMono-39" d="M 1863 2069 
Q 2266 2069 2495 2359 
Q 2725 2650 2725 3163 
Q 2725 3675 2495 3965 
Q 2266 4256 1863 4256 
Q 1444 4256 1231 3979 
Q 1019 3703 1019 3163 
Q 1019 2619 1230 2344 
Q 1441 2069 1863 2069 
z
M 738 97 
L 738 678 
Q 934 563 1156 502 
Q 1378 441 1619 441 
Q 2219 441 2526 892 
Q 2834 1344 2834 2222 
Q 2688 1909 2422 1742 
Q 2156 1575 1813 1575 
Q 1138 1575 767 1990 
Q 397 2406 397 3169 
Q 397 3922 776 4336 
Q 1156 4750 1850 4750 
Q 2663 4750 3041 4165 
Q 3419 3581 3419 2328 
Q 3419 1150 2964 529 
Q 2509 -91 1644 -91 
Q 1416 -91 1184 -42 
Q 953 6 738 97 
z
" transform="scale(0.015625)"/>
       </defs>
       <use xlink:href="#DejaVuSansMono-39"/>
       <use xlink:href="#DejaVuSansMono-30" transform="translate(60.205078 0)"/>
       <use xlink:href="#DejaVuSansMono-30" transform="translate(120.410156 0)"/>
      </g>
     </g>
    </g>
    <g id="ytick_11">
     <g id="line2d_43">
      <path d="M 68.91875 219.097181 
L 786.08875 219.097181 
" clip-path="url(#p764285acc2)" style="fill: none; stroke: #ffffff; stroke-opacity: 0.3; stroke-width: 0.8; stroke-linecap: square"/>
     </g>
     <g id="line2d_44">
      <g>
       <use xlink:href="#m9153d2351e" x="68.91875" y="219.097181" style="fill: #ffffff; stroke: #ffffff; stroke-width: 0.8"/>
      </g>
     </g>
     <g id="text_23">
      <!-- 1000 -->
      <g style="fill: #ffffff" transform="translate(25.796875 224.835853) scale(0.15 -0.15)">
       <use xlink:href="#DejaVuSansMono-31"/>
       <use xlink:href="#DejaVuSansMono-30" transform="translate(60.205078 0)"/>
       <use xlink:href="#DejaVuSansMono-30" transform="translate(120.410156 0)"/>
       <use xlink:href="#DejaVuSansMono-30" transform="translate(180.615234 0)"/>
      </g>
     </g>
    </g>
    <g id="ytick_12">
     <g id="line2d_45">
      <path d="M 68.91875 199.069065 
L 786.08875 199.069065 
" clip-path="url(#p764285acc2)" style="fill: none; stroke: #ffffff; stroke-opacity: 0.3; stroke-width: 0.8; stroke-linecap: square"/>
     </g>
     <g id="line2d_46">
      <g>
       <use xlink:href="#m9153d2351e" x="68.91875" y="199.069065" style="fill: #ffffff; stroke: #ffffff; stroke-width: 0.8"/>
      </g>
     </g>
     <g id="text_24">
      <!-- 1100 -->
      <g style="fill: #ffffff" transform="translate(25.796875 204.807737) scale(0.15 -0.15)">
       <use xlink:href="#DejaVuSansMono-31"/>
       <use xlink:href="#DejaVuSansMono-31" transform="translate(60.205078 0)"/>
       <use xlink:href="#DejaVuSansMono-30" transform="translate(120.410156 0)"/>
       <use xlink:href="#DejaVuSansMono-30" transform="translate(180.615234 0)"/>
      </g>
     </g>
    </g>
    <g id="ytick_13">
     <g id="line2d_47">
      <path d="M 68.91875 179.04095 
L 786.08875 179.04095 
" clip-path="url(#p764285acc2)" style="fill: none; stroke: #ffffff; stroke-opacity: 0.3; stroke-width: 0.8; stroke-linecap: square"/>
     </g>
     <g id="line2d_48">
      <g>
       <use xlink:href="#m9153d2351e" x="68.91875" y="179.04095" style="fill: #ffffff; stroke: #ffffff; stroke-width: 0.8"/>
      </g>
     </g>
     <g id="text_25">
      <!-- 1200 -->
      <g style="fill: #ffffff" transform="translate(25.796875 184.779622) scale(0.15 -0.15)">
       <use xlink:href="#DejaVuSansMono-31"/>
       <use xlink:href="#DejaVuSansMono-32" transform="translate(60.205078 0)"/>
       <use xlink:href="#DejaVuSansMono-30" transform="translate(120.410156 0)"/>
       <use xlink:href="#DejaVuSansMono-30" transform="translate(180.615234 0)"/>
      </g>
     </g>
    </g>
    <g id="ytick_14">
     <g id="line2d_49">
      <path d="M 68.91875 159.012835 
L 786.08875 159.012835 
" clip-path="url(#p764285acc2)" style="fill: none; stroke: #ffffff; stroke-opacity: 0.3; stroke-width: 0.8; stroke-linecap: square"/>
     </g>
     <g id="line2d_50">
      <g>
       <use xlink:href="#m9153d2351e" x="68.91875" y="159.012835" style="fill: #ffffff; stroke: #ffffff; stroke-width: 0.8"/>
      </g>
     </g>
     <g id="text_26">
      <!-- 1300 -->
      <g style="fill: #ffffff" transform="translate(25.796875 164.751506) scale(0.15 -0.15)">
       <use xlink:href="#DejaVuSansMono-31"/>
       <use xlink:href="#DejaVuSansMono-33" transform="translate(60.205078 0)"/>
       <use xlink:href="#DejaVuSansMono-30" transform="translate(120.410156 0)"/>
       <use xlink:href="#DejaVuSansMono-30" transform="translate(180.615234 0)"/>
      </g>
     </g>
    </g>
    <g id="ytick_15">
     <g id="line2d_51">
      <path d="M 68.91875 138.984719 
L 786.08875 138.984719 
" clip-path="url(#p764285acc2)" style="fill: none; stroke: #ffffff; stroke-opacity: 0.3; stroke-width: 0.8; stroke-linecap: square"/>
     </g>
     <g id="line2d_52">
      <g>
       <use xlink:href="#m9153d2351e" x="68.91875" y="138.984719" style="fill: #ffffff; stroke: #ffffff; stroke-width: 0.8"/>
      </g>
     </g>
     <g id="text_27">
      <!-- 1400 -->
      <g style="fill: #ffffff" transform="translate(25.796875 144.723391) scale(0.15 -0.15)">
       <use xlink:href="#DejaVuSansMono-31"/>
       <use xlink:href="#DejaVuSansMono-34" transform="translate(60.205078 0)"/>
       <use xlink:href="#DejaVuSansMono-30" transform="translate(120.410156 0)"/>
       <use xlink:href="#DejaVuSansMono-30" transform="translate(180.615234 0)"/>
      </g>
     </g>
    </g>
    <g id="ytick_16">
     <g id="line2d_53">
      <path d="M 68.91875 118.956604 
L 786.08875 118.956604 
" clip-path="url(#p764285acc2)" style="fill: none; stroke: #ffffff; stroke-opacity: 0.3; stroke-width: 0.8; stroke-linecap: square"/>
     </g>
     <g id="line2d_54">
      <g>
       <use xlink:href="#m9153d2351e" x="68.91875" y="118.956604" style="fill: #ffffff; stroke: #ffffff; stroke-width: 0.8"/>
      </g>
     </g>
     <g id="text_28">
      <!-- 1500 -->
      <g style="fill: #ffffff" transform="translate(25.796875 124.695276) scale(0.15 -0.15)">
       <use xlink:href="#DejaVuSansMono-31"/>
       <use xlink:href="#DejaVuSansMono-35" transform="translate(60.205078 0)"/>
       <use xlink:href="#DejaVuSansMono-30" transform="translate(120.410156 0)"/>
       <use xlink:href="#DejaVuSansMono-30" transform="translate(180.615234 0)"/>
      </g>
     </g>
    </g>
    <g id="ytick_17">
     <g id="line2d_55">
      <path d="M 68.91875 98.928488 
L 786.08875 98.928488 
" clip-path="url(#p764285acc2)" style="fill: none; stroke: #ffffff; stroke-opacity: 0.3; stroke-width: 0.8; stroke-linecap: square"/>
     </g>
     <g id="line2d_56">
      <g>
       <use xlink:href="#m9153d2351e" x="68.91875" y="98.928488" style="fill: #ffffff; stroke: #ffffff; stroke-width: 0.8"/>
      </g>
     </g>
     <g id="text_29">
      <!-- 1600 -->
      <g style="fill: #ffffff" transform="translate(25.796875 104.66716) scale(0.15 -0.15)">
       <use xlink:href="#DejaVuSansMono-31"/>
       <use xlink:href="#DejaVuSansMono-36" transform="translate(60.205078 0)"/>
       <use xlink:href="#DejaVuSansMono-30" transform="translate(120.410156 0)"/>
       <use xlink:href="#DejaVuSansMono-30" transform="translate(180.615234 0)"/>
      </g>
     </g>
    </g>
    <g id="ytick_18">
     <g id="line2d_57">
      <path d="M 68.91875 78.900373 
L 786.08875 78.900373 
" clip-path="url(#p764285acc2)" style="fill: none; stroke: #ffffff; stroke-opacity: 0.3; stroke-width: 0.8; stroke-linecap: square"/>
     </g>
     <g id="line2d_58">
      <g>
       <use xlink:href="#m9153d2351e" x="68.91875" y="78.900373" style="fill: #ffffff; stroke: #ffffff; stroke-width: 0.8"/>
      </g>
     </g>
     <g id="text_30">
      <!-- 1700 -->
      <g style="fill: #ffffff" transform="translate(25.796875 84.639045) scale(0.15 -0.15)">
       <use xlink:href="#DejaVuSansMono-31"/>
       <use xlink:href="#DejaVuSansMono-37" transform="translate(60.205078 0)"/>
       <use xlink:href="#DejaVuSansMono-30" transform="translate(120.410156 0)"/>
       <use xlink:href="#DejaVuSansMono-30" transform="translate(180.615234 0)"/>
      </g>
     </g>
    </g>
    <g id="ytick_19">
     <g id="line2d_59">
      <path d="M 68.91875 58.872257 
L 786.08875 58.872257 
" clip-path="url(#p764285acc2)" style="fill: none; stroke: #ffffff; stroke-opacity: 0.3; stroke-width: 0.8; stroke-linecap: square"/>
     </g>
     <g id="line2d_60">
      <g>
       <use xlink:href="#m9153d2351e" x="68.91875" y="58.872257" style="fill: #ffffff; stroke: #ffffff; stroke-width: 0.8"/>
      </g>
     </g>
     <g id="text_31">
      <!-- 1800 -->
      <g style="fill: #ffffff" transform="translate(25.796875 64.610929) scale(0.15 -0.15)">
       <use xlink:href="#DejaVuSansMono-31"/>
       <use xlink:href="#DejaVuSansMono-38" transform="translate(60.205078 0)"/>
       <use xlink:href="#DejaVuSansMono-30" transform="translate(120.410156 0)"/>
       <use xlink:href="#DejaVuSansMono-30" transform="translate(180.615234 0)"/>
      </g>
     </g>
    </g>
    <g id="ytick_20">
     <g id="line2d_61">
      <path d="M 68.91875 38.844142 
L 786.08875 38.844142 
" clip-path="url(#p764285acc2)" style="fill: none; stroke: #ffffff; stroke-opacity: 0.3; stroke-width: 0.8; stroke-linecap: square"/>
     </g>
     <g id="line2d_62">
      <g>
       <use xlink:href="#m9153d2351e" x="68.91875" y="38.844142" style="fill: #ffffff; stroke: #ffffff; stroke-width: 0.8"/>
      </g>
     </g>
     <g id="text_32">
      <!-- 1900 -->
      <g style="fill: #ffffff" transform="translate(25.796875 44.582814) scale(0.15 -0.15)">
       <use xlink:href="#DejaVuSansMono-31"/>
       <use xlink:href="#DejaVuSansMono-39" transform="translate(60.205078 0)"/>
       <use xlink:href="#DejaVuSansMono-30" transform="translate(120.410156 0)"/>
       <use xlink:href="#DejaVuSansMono-30" transform="translate(180.615234 0)"/>
      </g>
     </g>
    </g>
    <g id="ytick_21">
     <g id="line2d_63">
      <path d="M 68.91875 18.816027 
L 786.08875 18.816027 
" clip-path="url(#p764285acc2)" style="fill: none; stroke: #ffffff; stroke-opacity: 0.3; stroke-width: 0.8; stroke-linecap: square"/>
     </g>
     <g id="line2d_64">
      <g>
       <use xlink:href="#m9153d2351e" x="68.91875" y="18.816027" style="fill: #ffffff; stroke: #ffffff; stroke-width: 0.8"/>
      </g>
     </g>
     <g id="text_33">
      <!-- 2000 -->
      <g style="fill: #ffffff" transform="translate(25.796875 24.554698) scale(0.15 -0.15)">
       <use xlink:href="#DejaVuSansMono-32"/>
       <use xlink:href="#DejaVuSansMono-30" transform="translate(60.205078 0)"/>
       <use xlink:href="#DejaVuSansMono-30" transform="translate(120.410156 0)"/>
       <use xlink:href="#DejaVuSansMono-30" transform="translate(180.615234 0)"/>
      </g>
     </g>
    </g>
    <g id="text_34">
     <!-- Total Heat Generation (Watts) -->
     <g style="fill: #00ffff" transform="translate(18.677344 354.041797) rotate(-90) scale(0.15 -0.15)">
      <defs>
       <path id="DejaVuSansMono-54" d="M 147 4666 
L 3706 4666 
L 3706 4134 
L 2247 4134 
L 2247 0 
L 1613 0 
L 1613 4134 
L 147 4134 
L 147 4666 
z
" transform="scale(0.015625)"/>
       <path id="DejaVuSansMono-6f" d="M 1925 3097 
Q 1488 3097 1263 2756 
Q 1038 2416 1038 1747 
Q 1038 1081 1263 739 
Q 1488 397 1925 397 
Q 2366 397 2591 739 
Q 2816 1081 2816 1747 
Q 2816 2416 2591 2756 
Q 2366 3097 1925 3097 
z
M 1925 3584 
Q 2653 3584 3039 3112 
Q 3425 2641 3425 1747 
Q 3425 850 3040 379 
Q 2656 -91 1925 -91 
Q 1197 -91 812 379 
Q 428 850 428 1747 
Q 428 2641 812 3112 
Q 1197 3584 1925 3584 
z
" transform="scale(0.015625)"/>
       <path id="DejaVuSansMono-6c" d="M 1997 1269 
Q 1997 881 2139 684 
Q 2281 488 2559 488 
L 3231 488 
L 3231 0 
L 2503 0 
Q 1988 0 1705 331 
Q 1422 663 1422 1269 
L 1422 4447 
L 500 4447 
L 500 4897 
L 1997 4897 
L 1997 1269 
z
" transform="scale(0.015625)"/>
       <path id="DejaVuSansMono-48" d="M 428 4666 
L 1063 4666 
L 1063 2753 
L 2791 2753 
L 2791 4666 
L 3425 4666 
L 3425 0 
L 2791 0 
L 2791 2222 
L 1063 2222 
L 1063 0 
L 428 0 
L 428 4666 
z
" transform="scale(0.015625)"/>
       <path id="DejaVuSansMono-47" d="M 3450 384 
Q 3197 150 2880 29 
Q 2563 -91 2194 -91 
Q 1306 -91 812 545 
Q 319 1181 319 2328 
Q 319 3472 819 4111 
Q 1319 4750 2209 4750 
Q 2503 4750 2772 4667 
Q 3041 4584 3291 4416 
L 3291 3769 
Q 3038 4009 2772 4123 
Q 2506 4238 2209 4238 
Q 1594 4238 1286 3761 
Q 978 3284 978 2328 
Q 978 1356 1276 889 
Q 1575 422 2194 422 
Q 2403 422 2561 470 
Q 2719 519 2847 622 
L 2847 1875 
L 2169 1875 
L 2169 2394 
L 3450 2394 
L 3450 384 
z
" transform="scale(0.015625)"/>
       <path id="DejaVuSansMono-69" d="M 800 3500 
L 2272 3500 
L 2272 447 
L 3413 447 
L 3413 0 
L 556 0 
L 556 447 
L 1697 447 
L 1697 3053 
L 800 3053 
L 800 3500 
z
M 1697 4863 
L 2272 4863 
L 2272 4134 
L 1697 4134 
L 1697 4863 
z
" transform="scale(0.015625)"/>
       <path id="DejaVuSansMono-57" d="M 0 4666 
L 616 4666 
L 1063 878 
L 1594 3384 
L 2253 3384 
L 2791 872 
L 3238 4666 
L 3853 4666 
L 3156 0 
L 2559 0 
L 1925 2772 
L 1294 0 
L 697 0 
L 0 4666 
z
" transform="scale(0.015625)"/>
       <path id="DejaVuSansMono-73" d="M 3041 3378 
L 3041 2816 
Q 2794 2959 2544 3031 
Q 2294 3103 2034 3103 
Q 1644 3103 1451 2976 
Q 1259 2850 1259 2591 
Q 1259 2356 1403 2240 
Q 1547 2125 2119 2016 
L 2350 1972 
Q 2778 1891 2998 1647 
Q 3219 1403 3219 1013 
Q 3219 494 2850 201 
Q 2481 -91 1825 -91 
Q 1566 -91 1281 -36 
Q 997 19 666 128 
L 666 722 
Q 988 556 1281 473 
Q 1575 391 1838 391 
Q 2219 391 2428 545 
Q 2638 700 2638 978 
Q 2638 1378 1872 1531 
L 1847 1538 
L 1631 1581 
Q 1134 1678 906 1908 
Q 678 2138 678 2534 
Q 678 3038 1018 3311 
Q 1359 3584 1991 3584 
Q 2272 3584 2531 3532 
Q 2791 3481 3041 3378 
z
" transform="scale(0.015625)"/>
      </defs>
      <use xlink:href="#DejaVuSansMono-54"/>
      <use xlink:href="#DejaVuSansMono-6f" transform="translate(60.205078 0)"/>
      <use xlink:href="#DejaVuSansMono-74" transform="translate(120.410156 0)"/>
      <use xlink:href="#DejaVuSansMono-61" transform="translate(180.615234 0)"/>
      <use xlink:href="#DejaVuSansMono-6c" transform="translate(240.820312 0)"/>
      <use xlink:href="#DejaVuSansMono-20" transform="translate(301.025391 0)"/>
      <use xlink:href="#DejaVuSansMono-48" transform="translate(361.230469 0)"/>
      <use xlink:href="#DejaVuSansMono-65" transform="translate(421.435547 0)"/>
      <use xlink:href="#DejaVuSansMono-61" transform="translate(481.640625 0)"/>
      <use xlink:href="#DejaVuSansMono-74" transform="translate(541.845703 0)"/>
      <use xlink:href="#DejaVuSansMono-20" transform="translate(602.050781 0)"/>
      <use xlink:href="#DejaVuSansMono-47" transform="translate(662.255859 0)"/>
      <use xlink:href="#DejaVuSansMono-65" transform="translate(722.460938 0)"/>
      <use xlink:href="#DejaVuSansMono-6e" transform="translate(782.666016 0)"/>
      <use xlink:href="#DejaVuSansMono-65" transform="translate(842.871094 0)"/>
      <use xlink:href="#DejaVuSansMono-72" transform="translate(903.076172 0)"/>
      <use xlink:href="#DejaVuSansMono-61" transform="translate(963.28125 0)"/>
      <use xlink:href="#DejaVuSansMono-74" transform="translate(1023.486328 0)"/>
      <use xlink:href="#DejaVuSansMono-69" transform="translate(1083.691406 0)"/>
      <use xlink:href="#DejaVuSansMono-6f" transform="translate(1143.896484 0)"/>
      <use xlink:href="#DejaVuSansMono-6e" transform="translate(1204.101562 0)"/>
      <use xlink:href="#DejaVuSansMono-20" transform="translate(1264.306641 0)"/>
      <use xlink:href="#DejaVuSansMono-28" transform="translate(1324.511719 0)"/>
      <use xlink:href="#DejaVuSansMono-57" transform="translate(1384.716797 0)"/>
      <use xlink:href="#DejaVuSansMono-61" transform="translate(1444.921875 0)"/>
      <use xlink:href="#DejaVuSansMono-74" transform="translate(1505.126953 0)"/>
      <use xlink:href="#DejaVuSansMono-74" transform="translate(1565.332031 0)"/>
      <use xlink:href="#DejaVuSansMono-73" transform="translate(1625.537109 0)"/>
      <use xlink:href="#DejaVuSansMono-29" transform="translate(1685.742188 0)"/>
     </g>
    </g>
   </g>
   <g id="line2d_65">
    <path d="M 101.517386 419.372727 
L 108.102969 419.327524 
L 114.688553 419.237003 
L 121.274136 419.101165 
L 127.859719 418.92001 
L 134.445302 418.693537 
L 141.030885 418.421747 
L 147.616468 418.10464 
L 154.202051 417.742216 
L 160.787634 417.334474 
L 167.373217 416.881415 
L 173.958801 416.383039 
L 180.544384 415.839345 
L 187.129967 415.250335 
L 193.71555 414.616006 
L 200.301133 413.936361 
L 206.886716 413.211398 
L 213.472299 412.441118 
L 220.057882 411.625521 
L 226.643465 410.764607 
L 233.229048 409.858375 
L 239.814632 408.906826 
L 246.400215 407.909959 
L 252.985798 406.867776 
L 259.571381 405.780275 
L 266.156964 404.647456 
L 272.742547 403.469321 
L 279.32813 402.245868 
L 285.913713 400.977098 
L 292.499296 399.663011 
L 299.084879 398.303606 
L 305.670463 396.898884 
L 312.256046 395.448845 
L 318.841629 393.953488 
L 325.427212 392.412814 
L 332.012795 390.826823 
L 338.598378 389.195515 
L 345.183961 387.518889 
L 351.769544 385.796946 
L 358.355127 384.029686 
L 364.940711 382.217109 
L 371.526294 380.359214 
L 378.111877 378.456002 
L 384.69746 376.507472 
L 391.283043 374.513626 
L 397.868626 372.474462 
L 404.454209 370.389981 
L 411.039792 368.260182 
L 417.625375 366.085066 
L 424.210958 363.864633 
L 430.796542 361.598883 
L 437.382125 359.287815 
L 443.967708 356.93143 
L 450.553291 354.529728 
L 457.138874 352.082709 
L 463.724457 349.590372 
L 470.31004 347.052718 
L 476.895623 344.469746 
L 483.481206 341.841458 
L 490.066789 339.167852 
L 496.652373 336.448929 
L 503.237956 333.684688 
L 509.823539 330.87513 
L 516.409122 328.020255 
L 522.994705 325.120063 
L 529.580288 322.174553 
L 536.165871 319.183727 
L 542.751454 316.147582 
L 549.337037 313.066121 
L 555.922621 309.939342 
L 562.508204 306.767246 
L 569.093787 303.549833 
L 575.67937 300.287102 
L 582.264953 296.979054 
L 588.850536 293.625689 
L 595.436119 290.227007 
L 602.021702 286.783007 
L 608.607285 283.29369 
L 615.192868 279.759056 
L 621.778452 276.179104 
L 628.364035 272.553835 
L 634.949618 268.883249 
L 641.535201 265.167345 
L 648.120784 261.406125 
L 654.706367 257.599587 
L 661.29195 253.747731 
L 667.877533 249.850559 
L 674.463116 245.908069 
L 681.048699 241.920262 
L 687.634283 237.887137 
L 694.219866 233.808696 
L 700.805449 229.684937 
L 707.391032 225.51586 
L 713.976615 221.301467 
L 720.562198 217.041756 
L 727.147781 212.736728 
L 733.733364 208.386382 
L 740.318947 203.99072 
L 746.904531 199.54974 
L 753.490114 195.063442 
" clip-path="url(#p764285acc2)" style="fill: none; stroke: #8dd3c7; stroke-width: 2; stroke-linecap: square"/>
   </g>
   <g id="line2d_66">
    <path d="M 101.517386 419.371325 
L 108.102969 419.314821 
L 114.688553 419.20167 
L 121.274136 419.031873 
L 127.859719 418.805429 
L 134.445302 418.522338 
L 141.030885 418.182601 
L 147.616468 417.786217 
L 154.202051 417.333186 
L 160.787634 416.823509 
L 167.373217 416.257185 
L 173.958801 415.634215 
L 180.544384 414.954598 
L 187.129967 414.218334 
L 193.71555 413.425424 
L 200.301133 412.575868 
L 206.886716 411.669664 
L 213.472299 410.706814 
L 220.057882 409.687318 
L 226.643465 408.611175 
L 233.229048 407.478385 
L 239.814632 406.288948 
L 246.400215 405.042865 
L 252.985798 403.740136 
L 259.571381 402.38076 
L 266.156964 400.964737 
L 272.742547 399.492067 
L 279.32813 397.962751 
L 285.913713 396.376789 
L 292.499296 394.734179 
L 299.084879 393.034924 
L 305.670463 391.279021 
L 312.256046 389.466472 
L 318.841629 387.597277 
L 325.427212 385.671434 
L 332.012795 383.688945 
L 338.598378 381.64981 
L 345.183961 379.554028 
L 351.769544 377.401599 
L 358.355127 375.192524 
L 364.940711 372.926802 
L 371.526294 370.604434 
L 378.111877 368.225418 
L 384.69746 365.789757 
L 391.283043 363.297448 
L 397.868626 360.748493 
L 404.454209 358.142892 
L 411.039792 355.480644 
L 417.625375 352.761749 
L 424.210958 349.986208 
L 430.796542 347.15402 
L 437.382125 344.265185 
L 443.967708 341.319704 
L 450.553291 338.317576 
L 457.138874 335.258802 
L 463.724457 332.143381 
L 470.31004 328.971313 
L 476.895623 325.742599 
L 483.481206 322.457239 
L 490.066789 319.115231 
L 496.652373 315.716577 
L 503.237956 312.261277 
L 509.823539 308.749329 
L 516.409122 305.180736 
L 522.994705 301.555495 
L 529.580288 297.873608 
L 536.165871 294.135074 
L 542.751454 290.339894 
L 549.337037 286.488067 
L 555.922621 282.579594 
L 562.508204 278.614474 
L 569.093787 274.592707 
L 575.67937 270.514294 
L 582.264953 266.379234 
L 588.850536 262.187528 
L 595.436119 257.939175 
L 602.021702 253.634175 
L 608.607285 249.272529 
L 615.192868 244.854236 
L 621.778452 240.379296 
L 628.364035 235.84771 
L 634.949618 231.259477 
L 641.535201 226.614598 
L 648.120784 221.913072 
L 654.706367 217.1549 
L 661.29195 212.340081 
L 667.877533 207.468615 
L 674.463116 202.540502 
L 681.048699 197.555743 
L 687.634283 192.514338 
L 694.219866 187.416286 
L 700.805449 182.261587 
L 707.391032 177.050242 
L 713.976615 171.78225 
L 720.562198 166.457611 
L 727.147781 161.076326 
L 733.733364 155.638394 
L 740.318947 150.143816 
L 746.904531 144.592591 
L 753.490114 138.984719 
" clip-path="url(#p764285acc2)" style="fill: none; stroke: #feffb3; stroke-width: 2; stroke-linecap: square"/>
   </g>
   <g id="line2d_67">
    <path d="M 101.517386 419.369923 
L 108.102969 419.302118 
L 114.688553 419.166337 
L 121.274136 418.96258 
L 127.859719 418.690847 
L 134.445302 418.351138 
L 141.030885 417.943454 
L 147.616468 417.467793 
L 154.202051 416.924156 
L 160.787634 416.312544 
L 167.373217 415.632955 
L 173.958801 414.885391 
L 180.544384 414.069851 
L 187.129967 413.186334 
L 193.71555 412.234842 
L 200.301133 411.215374 
L 206.886716 410.12793 
L 213.472299 408.97251 
L 220.057882 407.749114 
L 226.643465 406.457742 
L 233.229048 405.098395 
L 239.814632 403.671071 
L 246.400215 402.175771 
L 252.985798 400.612496 
L 259.571381 398.981244 
L 266.156964 397.282017 
L 272.742547 395.514814 
L 279.32813 393.679635 
L 285.913713 391.776479 
L 292.499296 389.805348 
L 299.084879 387.766241 
L 305.670463 385.659158 
L 312.256046 383.4841 
L 318.841629 381.241065 
L 325.427212 378.930054 
L 332.012795 376.551067 
L 338.598378 374.104105 
L 345.183961 371.589166 
L 351.769544 369.006252 
L 358.355127 366.355362 
L 364.940711 363.636495 
L 371.526294 360.849653 
L 378.111877 357.994835 
L 384.69746 355.072041 
L 391.283043 352.081271 
L 397.868626 349.022525 
L 404.454209 345.895803 
L 411.039792 342.701106 
L 417.625375 339.438432 
L 424.210958 336.107782 
L 430.796542 332.709157 
L 437.382125 329.242555 
L 443.967708 325.707978 
L 450.553291 322.105425 
L 457.138874 318.434895 
L 463.724457 314.69639 
L 470.31004 310.889909 
L 476.895623 307.015452 
L 483.481206 303.073019 
L 490.066789 299.06261 
L 496.652373 294.984226 
L 503.237956 290.837865 
L 509.823539 286.623528 
L 516.409122 282.341216 
L 522.994705 277.990927 
L 529.580288 273.572663 
L 536.165871 269.086422 
L 542.751454 264.532206 
L 549.337037 259.910014 
L 555.922621 255.219846 
L 562.508204 250.461702 
L 569.093787 245.635582 
L 575.67937 240.741486 
L 582.264953 235.779414 
L 588.850536 230.749366 
L 595.436119 225.651342 
L 602.021702 220.485343 
L 608.607285 215.251367 
L 615.192868 209.949416 
L 621.778452 204.579488 
L 628.364035 199.141585 
L 634.949618 193.635706 
L 641.535201 188.061851 
L 648.120784 182.42002 
L 654.706367 176.710213 
L 661.29195 170.93243 
L 667.877533 165.086671 
L 674.463116 159.172936 
L 681.048699 153.191225 
L 687.634283 147.141538 
L 694.219866 141.023876 
L 700.805449 134.838237 
L 707.391032 128.584623 
L 713.976615 122.263033 
L 720.562198 115.873466 
L 727.147781 109.415924 
L 733.733364 102.890406 
L 740.318947 96.296912 
L 746.904531 89.635442 
L 753.490114 82.905996 
" clip-path="url(#p764285acc2)" style="fill: none; stroke: #bfbbd9; stroke-width: 2; stroke-linecap: square"/>
   </g>
   <g id="line2d_68">
    <path d="M 101.517386 419.368521 
L 108.102969 419.289415 
L 114.688553 419.131004 
L 121.274136 418.893288 
L 127.859719 418.576266 
L 134.445302 418.179939 
L 141.030885 417.704307 
L 147.616468 417.149369 
L 154.202051 416.515127 
L 160.787634 415.801579 
L 167.373217 415.008725 
L 173.958801 414.136567 
L 180.544384 413.185103 
L 187.129967 412.154334 
L 193.71555 411.04426 
L 200.301133 409.854881 
L 206.886716 408.586196 
L 213.472299 407.238206 
L 220.057882 405.810911 
L 226.643465 404.30431 
L 233.229048 402.718405 
L 239.814632 401.053194 
L 246.400215 399.308677 
L 252.985798 397.484856 
L 259.571381 395.581729 
L 266.156964 393.599297 
L 272.742547 391.53756 
L 279.32813 389.396518 
L 285.913713 387.17617 
L 292.499296 384.876517 
L 299.084879 382.497559 
L 305.670463 380.039296 
L 312.256046 377.501727 
L 318.841629 374.884853 
L 325.427212 372.188674 
L 332.012795 369.413189 
L 338.598378 366.5584 
L 345.183961 363.624305 
L 351.769544 360.610905 
L 358.355127 357.518199 
L 364.940711 354.346189 
L 371.526294 351.094873 
L 378.111877 347.764252 
L 384.69746 344.354325 
L 391.283043 340.865094 
L 397.868626 337.296557 
L 404.454209 333.648715 
L 411.039792 329.921567 
L 417.625375 326.115115 
L 424.210958 322.229357 
L 430.796542 318.264294 
L 437.382125 314.219925 
L 443.967708 310.096252 
L 450.553291 305.893273 
L 457.138874 301.610989 
L 463.724457 297.249399 
L 470.31004 292.808505 
L 476.895623 288.288305 
L 483.481206 283.6888 
L 490.066789 279.00999 
L 496.652373 274.251874 
L 503.237956 269.414453 
L 509.823539 264.497727 
L 516.409122 259.501696 
L 522.994705 254.426359 
L 529.580288 249.271717 
L 536.165871 244.03777 
L 542.751454 238.724518 
L 549.337037 233.33196 
L 555.922621 227.860097 
L 562.508204 222.308929 
L 569.093787 216.678456 
L 575.67937 210.968678 
L 582.264953 205.179594 
L 588.850536 199.311205 
L 595.436119 193.36351 
L 602.021702 187.336511 
L 608.607285 181.230206 
L 615.192868 175.044596 
L 621.778452 168.779681 
L 628.364035 162.43546 
L 634.949618 156.011934 
L 641.535201 149.509103 
L 648.120784 142.926967 
L 654.706367 136.265525 
L 661.29195 129.524779 
L 667.877533 122.704727 
L 674.463116 115.805369 
L 681.048699 108.826707 
L 687.634283 101.768739 
L 694.219866 94.631466 
L 700.805449 87.414888 
L 707.391032 80.119004 
L 713.976615 72.743815 
L 720.562198 65.289321 
L 727.147781 57.755522 
L 733.733364 50.142418 
L 740.318947 42.450008 
L 746.904531 34.678293 
L 753.490114 26.827273 
" clip-path="url(#p764285acc2)" style="fill: none; stroke: #fa8174; stroke-width: 2; stroke-linecap: square"/>
   </g>
   <g id="patch_3">
    <path d="M 68.91875 439 
L 68.91875 7.2 
" style="fill: none; stroke: #ffffff; stroke-width: 0.8; stroke-linejoin: miter; stroke-linecap: square"/>
   </g>
   <g id="patch_4">
    <path d="M 786.08875 439 
L 786.08875 7.2 
" style="fill: none; stroke: #ffffff; stroke-width: 0.8; stroke-linejoin: miter; stroke-linecap: square"/>
   </g>
   <g id="patch_5">
    <path d="M 68.91875 439 
L 786.08875 439 
" style="fill: none; stroke: #ffffff; stroke-width: 0.8; stroke-linejoin: miter; stroke-linecap: square"/>
   </g>
   <g id="patch_6">
    <path d="M 68.91875 7.2 
L 786.08875 7.2 
" style="fill: none; stroke: #ffffff; stroke-width: 0.8; stroke-linejoin: miter; stroke-linecap: square"/>
   </g>
   <g id="legend_1">
    <g id="patch_7">
     <path d="M 552.8575 129.684375 
L 775.58875 129.684375 
Q 778.58875 129.684375 778.58875 126.684375 
L 778.58875 17.7 
Q 778.58875 14.7 775.58875 14.7 
L 552.8575 14.7 
Q 549.8575 14.7 549.8575 17.7 
L 549.8575 126.684375 
Q 549.8575 129.684375 552.8575 129.684375 
L 552.8575 129.684375 
z
" style="fill: none; opacity: 0.8; stroke: #cccccc; stroke-linejoin: miter"/>
    </g>
    <g id="text_35">
     <!-- Cell Internal Resistance -->
     <g style="fill: #ffffff" transform="translate(555.8575 32.177344) scale(0.15 -0.15)">
      <defs>
       <path id="DejaVuSansMono-49" d="M 628 4666 
L 3219 4666 
L 3219 4134 
L 2241 4134 
L 2241 531 
L 3219 531 
L 3219 0 
L 628 0 
L 628 531 
L 1606 531 
L 1606 4134 
L 628 4134 
L 628 4666 
z
" transform="scale(0.015625)"/>
       <path id="DejaVuSansMono-52" d="M 2375 2203 
Q 2619 2141 2791 1967 
Q 2963 1794 3219 1275 
L 3853 0 
L 3175 0 
L 2619 1178 
Q 2378 1681 2186 1826 
Q 1994 1972 1684 1972 
L 1081 1972 
L 1081 0 
L 447 0 
L 447 4666 
L 1747 4666 
Q 2516 4666 2925 4319 
Q 3334 3972 3334 3316 
Q 3334 2853 3082 2561 
Q 2831 2269 2375 2203 
z
M 1081 4147 
L 1081 2491 
L 1772 2491 
Q 2225 2491 2447 2694 
Q 2669 2897 2669 3316 
Q 2669 3719 2433 3933 
Q 2197 4147 1747 4147 
L 1081 4147 
z
" transform="scale(0.015625)"/>
      </defs>
      <use xlink:href="#DejaVuSansMono-43"/>
      <use xlink:href="#DejaVuSansMono-65" transform="translate(60.205078 0)"/>
      <use xlink:href="#DejaVuSansMono-6c" transform="translate(120.410156 0)"/>
      <use xlink:href="#DejaVuSansMono-6c" transform="translate(180.615234 0)"/>
      <use xlink:href="#DejaVuSansMono-20" transform="translate(240.820312 0)"/>
      <use xlink:href="#DejaVuSansMono-49" transform="translate(301.025391 0)"/>
      <use xlink:href="#DejaVuSansMono-6e" transform="translate(361.230469 0)"/>
      <use xlink:href="#DejaVuSansMono-74" transform="translate(421.435547 0)"/>
      <use xlink:href="#DejaVuSansMono-65" transform="translate(481.640625 0)"/>
      <use xlink:href="#DejaVuSansMono-72" transform="translate(541.845703 0)"/>
      <use xlink:href="#DejaVuSansMono-6e" transform="translate(602.050781 0)"/>
      <use xlink:href="#DejaVuSansMono-61" transform="translate(662.255859 0)"/>
      <use xlink:href="#DejaVuSansMono-6c" transform="translate(722.460938 0)"/>
      <use xlink:href="#DejaVuSansMono-20" transform="translate(782.666016 0)"/>
      <use xlink:href="#DejaVuSansMono-52" transform="translate(842.871094 0)"/>
      <use xlink:href="#DejaVuSansMono-65" transform="translate(903.076172 0)"/>
      <use xlink:href="#DejaVuSansMono-73" transform="translate(963.28125 0)"/>
      <use xlink:href="#DejaVuSansMono-69" transform="translate(1023.486328 0)"/>
      <use xlink:href="#DejaVuSansMono-73" transform="translate(1083.691406 0)"/>
      <use xlink:href="#DejaVuSansMono-74" transform="translate(1143.896484 0)"/>
      <use xlink:href="#DejaVuSansMono-61" transform="translate(1204.101562 0)"/>
      <use xlink:href="#DejaVuSansMono-6e" transform="translate(1264.306641 0)"/>
      <use xlink:href="#DejaVuSansMono-63" transform="translate(1324.511719 0)"/>
      <use xlink:href="#DejaVuSansMono-65" transform="translate(1384.716797 0)"/>
     </g>
    </g>
    <g id="line2d_69">
     <path d="M 616.131719 49.024219 
L 631.131719 49.024219 
L 646.131719 49.024219 
" style="fill: none; stroke: #8dd3c7; stroke-width: 2; stroke-linecap: square"/>
    </g>
    <g id="text_36">
     <!-- 11.2mΩ -->
     <g style="fill: #ffffff" transform="translate(658.131719 54.274219) scale(0.15 -0.15)">
      <defs>
       <path id="DejaVuSansMono-2e" d="M 1528 953 
L 2316 953 
L 2316 0 
L 1528 0 
L 1528 953 
z
" transform="scale(0.015625)"/>
       <path id="DejaVuSansMono-6d" d="M 2113 3144 
Q 2219 3369 2383 3476 
Q 2547 3584 2778 3584 
Q 3200 3584 3373 3257 
Q 3547 2931 3547 2028 
L 3547 0 
L 3022 0 
L 3022 2003 
Q 3022 2744 2939 2923 
Q 2856 3103 2638 3103 
Q 2388 3103 2295 2911 
Q 2203 2719 2203 2003 
L 2203 0 
L 1678 0 
L 1678 2003 
Q 1678 2753 1589 2928 
Q 1500 3103 1269 3103 
Q 1041 3103 952 2911 
Q 863 2719 863 2003 
L 863 0 
L 341 0 
L 341 3500 
L 863 3500 
L 863 3200 
Q 966 3388 1120 3486 
Q 1275 3584 1472 3584 
Q 1709 3584 1867 3475 
Q 2025 3366 2113 3144 
z
" transform="scale(0.015625)"/>
       <path id="DejaVuSansMono-3a9" d="M 231 0 
L 231 538 
L 997 538 
Q 613 956 441 1406 
Q 269 1856 269 2444 
Q 269 3416 719 3989 
Q 1169 4563 1919 4563 
Q 2675 4563 3126 3991 
Q 3578 3419 3578 2444 
Q 3578 1856 3404 1404 
Q 3231 953 2847 538 
L 3622 538 
L 3622 0 
L 2175 0 
L 2175 538 
Q 2550 775 2759 1289 
Q 2969 1803 2969 2497 
Q 2969 3216 2687 3630 
Q 2406 4044 1925 4044 
Q 1444 4044 1164 3630 
Q 884 3216 884 2497 
Q 884 1803 1093 1289 
Q 1303 775 1678 538 
L 1678 0 
L 231 0 
z
" transform="scale(0.015625)"/>
      </defs>
      <use xlink:href="#DejaVuSansMono-31"/>
      <use xlink:href="#DejaVuSansMono-31" transform="translate(60.205078 0)"/>
      <use xlink:href="#DejaVuSansMono-2e" transform="translate(120.410156 0)"/>
      <use xlink:href="#DejaVuSansMono-32" transform="translate(180.615234 0)"/>
      <use xlink:href="#DejaVuSansMono-6d" transform="translate(240.820312 0)"/>
      <use xlink:href="#DejaVuSansMono-3a9" transform="translate(301.025391 0)"/>
     </g>
    </g>
    <g id="line2d_70">
     <path d="M 616.131719 71.121094 
L 631.131719 71.121094 
L 646.131719 71.121094 
" style="fill: none; stroke: #feffb3; stroke-width: 2; stroke-linecap: square"/>
    </g>
    <g id="text_37">
     <!-- 14.0mΩ -->
     <g style="fill: #ffffff" transform="translate(658.131719 76.371094) scale(0.15 -0.15)">
      <use xlink:href="#DejaVuSansMono-31"/>
      <use xlink:href="#DejaVuSansMono-34" transform="translate(60.205078 0)"/>
      <use xlink:href="#DejaVuSansMono-2e" transform="translate(120.410156 0)"/>
      <use xlink:href="#DejaVuSansMono-30" transform="translate(180.615234 0)"/>
      <use xlink:href="#DejaVuSansMono-6d" transform="translate(240.820312 0)"/>
      <use xlink:href="#DejaVuSansMono-3a9" transform="translate(301.025391 0)"/>
     </g>
    </g>
    <g id="line2d_71">
     <path d="M 616.131719 93.217969 
L 631.131719 93.217969 
L 646.131719 93.217969 
" style="fill: none; stroke: #bfbbd9; stroke-width: 2; stroke-linecap: square"/>
    </g>
    <g id="text_38">
     <!-- 16.8mΩ -->
     <g style="fill: #ffffff" transform="translate(658.131719 98.467969) scale(0.15 -0.15)">
      <use xlink:href="#DejaVuSansMono-31"/>
      <use xlink:href="#DejaVuSansMono-36" transform="translate(60.205078 0)"/>
      <use xlink:href="#DejaVuSansMono-2e" transform="translate(120.410156 0)"/>
      <use xlink:href="#DejaVuSansMono-38" transform="translate(180.615234 0)"/>
      <use xlink:href="#DejaVuSansMono-6d" transform="translate(240.820312 0)"/>
      <use xlink:href="#DejaVuSansMono-3a9" transform="translate(301.025391 0)"/>
     </g>
    </g>
    <g id="line2d_72">
     <path d="M 616.131719 115.314844 
L 631.131719 115.314844 
L 646.131719 115.314844 
" style="fill: none; stroke: #fa8174; stroke-width: 2; stroke-linecap: square"/>
    </g>
    <g id="text_39">
     <!-- 19.6mΩ -->
     <g style="fill: #ffffff" transform="translate(658.131719 120.564844) scale(0.15 -0.15)">
      <use xlink:href="#DejaVuSansMono-31"/>
      <use xlink:href="#DejaVuSansMono-39" transform="translate(60.205078 0)"/>
      <use xlink:href="#DejaVuSansMono-2e" transform="translate(120.410156 0)"/>
      <use xlink:href="#DejaVuSansMono-36" transform="translate(180.615234 0)"/>
      <use xlink:href="#DejaVuSansMono-6d" transform="translate(240.820312 0)"/>
      <use xlink:href="#DejaVuSansMono-3a9" transform="translate(301.025391 0)"/>
     </g>
    </g>
   </g>
  </g>
  <g id="axes_2">
   <g id="matplotlib.axis_3">
    <g id="ytick_22">
     <g id="line2d_73">
      <defs>
       <path id="m995bad7689" d="M 0 0 
L 3.5 0 
" style="stroke: #ffffff; stroke-width: 0.8"/>
      </defs>
      <g>
       <use xlink:href="#m995bad7689" x="786.08875" y="430.620448" style="fill: #ffffff; stroke: #ffffff; stroke-width: 0.8"/>
      </g>
     </g>
     <g id="text_40">
      <!-- 86 -->
      <g style="fill: #ffffff" transform="translate(793.08875 436.35912) scale(0.15 -0.15)">
       <use xlink:href="#DejaVuSansMono-38"/>
       <use xlink:href="#DejaVuSansMono-36" transform="translate(60.205078 0)"/>
      </g>
     </g>
    </g>
    <g id="ytick_23">
     <g id="line2d_74">
      <g>
       <use xlink:href="#m995bad7689" x="786.08875" y="372.775027" style="fill: #ffffff; stroke: #ffffff; stroke-width: 0.8"/>
      </g>
     </g>
     <g id="text_41">
      <!-- 88 -->
      <g style="fill: #ffffff" transform="translate(793.08875 378.513699) scale(0.15 -0.15)">
       <use xlink:href="#DejaVuSansMono-38"/>
       <use xlink:href="#DejaVuSansMono-38" transform="translate(60.205078 0)"/>
      </g>
     </g>
    </g>
    <g id="ytick_24">
     <g id="line2d_75">
      <g>
       <use xlink:href="#m995bad7689" x="786.08875" y="314.929606" style="fill: #ffffff; stroke: #ffffff; stroke-width: 0.8"/>
      </g>
     </g>
     <g id="text_42">
      <!-- 90 -->
      <g style="fill: #ffffff" transform="translate(793.08875 320.668278) scale(0.15 -0.15)">
       <use xlink:href="#DejaVuSansMono-39"/>
       <use xlink:href="#DejaVuSansMono-30" transform="translate(60.205078 0)"/>
      </g>
     </g>
    </g>
    <g id="ytick_25">
     <g id="line2d_76">
      <g>
       <use xlink:href="#m995bad7689" x="786.08875" y="257.084185" style="fill: #ffffff; stroke: #ffffff; stroke-width: 0.8"/>
      </g>
     </g>
     <g id="text_43">
      <!-- 92 -->
      <g style="fill: #ffffff" transform="translate(793.08875 262.822857) scale(0.15 -0.15)">
       <use xlink:href="#DejaVuSansMono-39"/>
       <use xlink:href="#DejaVuSansMono-32" transform="translate(60.205078 0)"/>
      </g>
     </g>
    </g>
    <g id="ytick_26">
     <g id="line2d_77">
      <g>
       <use xlink:href="#m995bad7689" x="786.08875" y="199.238764" style="fill: #ffffff; stroke: #ffffff; stroke-width: 0.8"/>
      </g>
     </g>
     <g id="text_44">
      <!-- 94 -->
      <g style="fill: #ffffff" transform="translate(793.08875 204.977436) scale(0.15 -0.15)">
       <use xlink:href="#DejaVuSansMono-39"/>
       <use xlink:href="#DejaVuSansMono-34" transform="translate(60.205078 0)"/>
      </g>
     </g>
    </g>
    <g id="ytick_27">
     <g id="line2d_78">
      <g>
       <use xlink:href="#m995bad7689" x="786.08875" y="141.393343" style="fill: #ffffff; stroke: #ffffff; stroke-width: 0.8"/>
      </g>
     </g>
     <g id="text_45">
      <!-- 96 -->
      <g style="fill: #ffffff" transform="translate(793.08875 147.132015) scale(0.15 -0.15)">
       <use xlink:href="#DejaVuSansMono-39"/>
       <use xlink:href="#DejaVuSansMono-36" transform="translate(60.205078 0)"/>
      </g>
     </g>
    </g>
    <g id="ytick_28">
     <g id="line2d_79">
      <g>
       <use xlink:href="#m995bad7689" x="786.08875" y="83.547922" style="fill: #ffffff; stroke: #ffffff; stroke-width: 0.8"/>
      </g>
     </g>
     <g id="text_46">
      <!-- 98 -->
      <g style="fill: #ffffff" transform="translate(793.08875 89.286594) scale(0.15 -0.15)">
       <use xlink:href="#DejaVuSansMono-39"/>
       <use xlink:href="#DejaVuSansMono-38" transform="translate(60.205078 0)"/>
      </g>
     </g>
    </g>
    <g id="ytick_29">
     <g id="line2d_80">
      <g>
       <use xlink:href="#m995bad7689" x="786.08875" y="25.702501" style="fill: #ffffff; stroke: #ffffff; stroke-width: 0.8"/>
      </g>
     </g>
     <g id="text_47">
      <!-- 100 -->
      <g style="fill: #ffffff" transform="translate(793.08875 31.441173) scale(0.15 -0.15)">
       <use xlink:href="#DejaVuSansMono-31"/>
       <use xlink:href="#DejaVuSansMono-30" transform="translate(60.205078 0)"/>
       <use xlink:href="#DejaVuSansMono-30" transform="translate(120.410156 0)"/>
      </g>
     </g>
    </g>
    <g id="text_48">
     <!-- Pack Efficiency (%) -->
     <g style="fill: #ffa500" transform="translate(835.6575 308.889453) rotate(-90) scale(0.15 -0.15)">
      <defs>
       <path id="DejaVuSansMono-45" d="M 616 4666 
L 3384 4666 
L 3384 4134 
L 1247 4134 
L 1247 2753 
L 3291 2753 
L 3291 2222 
L 1247 2222 
L 1247 531 
L 3444 531 
L 3444 0 
L 616 0 
L 616 4666 
z
" transform="scale(0.015625)"/>
       <path id="DejaVuSansMono-66" d="M 3322 4863 
L 3322 4384 
L 2669 4384 
Q 2359 4384 2239 4257 
Q 2119 4131 2119 3809 
L 2119 3500 
L 3322 3500 
L 3322 3053 
L 2119 3053 
L 2119 0 
L 1544 0 
L 1544 3053 
L 609 3053 
L 609 3500 
L 1544 3500 
L 1544 3744 
Q 1544 4319 1808 4591 
Q 2072 4863 2631 4863 
L 3322 4863 
z
" transform="scale(0.015625)"/>
       <path id="DejaVuSansMono-79" d="M 2681 1125 
Q 2538 759 2316 163 
Q 2006 -663 1900 -844 
Q 1756 -1088 1540 -1209 
Q 1325 -1331 1038 -1331 
L 575 -1331 
L 575 -850 
L 916 -850 
Q 1169 -850 1312 -703 
Q 1456 -556 1678 56 
L 325 3500 
L 934 3500 
L 1972 763 
L 2994 3500 
L 3603 3500 
L 2681 1125 
z
" transform="scale(0.015625)"/>
       <path id="DejaVuSansMono-25" d="M 2175 997 
Q 2175 753 2339 587 
Q 2503 422 2747 422 
Q 2988 422 3155 589 
Q 3322 756 3322 997 
Q 3322 1238 3153 1406 
Q 2984 1575 2747 1575 
Q 2503 1575 2339 1409 
Q 2175 1244 2175 997 
z
M 1753 997 
Q 1753 1419 2040 1708 
Q 2328 1997 2747 1997 
Q 2947 1997 3126 1922 
Q 3306 1847 3450 1703 
Q 3594 1556 3672 1375 
Q 3750 1194 3750 997 
Q 3750 581 3459 290 
Q 3169 0 2747 0 
Q 2322 0 2037 286 
Q 1753 572 1753 997 
z
M 378 1453 
L 269 1753 
L 3525 3059 
L 3653 2759 
L 378 1453 
z
M 525 3475 
Q 525 3228 689 3064 
Q 853 2900 1100 2900 
Q 1341 2900 1509 3067 
Q 1678 3234 1678 3475 
Q 1678 3716 1509 3883 
Q 1341 4050 1100 4050 
Q 859 4050 692 3884 
Q 525 3719 525 3475 
z
M 103 3475 
Q 103 3897 390 4186 
Q 678 4475 1100 4475 
Q 1300 4475 1483 4400 
Q 1666 4325 1806 4184 
Q 1947 4044 2023 3861 
Q 2100 3678 2100 3475 
Q 2100 3056 1809 2767 
Q 1519 2478 1100 2478 
Q 678 2478 390 2765 
Q 103 3053 103 3475 
z
" transform="scale(0.015625)"/>
      </defs>
      <use xlink:href="#DejaVuSansMono-50"/>
      <use xlink:href="#DejaVuSansMono-61" transform="translate(60.205078 0)"/>
      <use xlink:href="#DejaVuSansMono-63" transform="translate(120.410156 0)"/>
      <use xlink:href="#DejaVuSansMono-6b" transform="translate(180.615234 0)"/>
      <use xlink:href="#DejaVuSansMono-20" transform="translate(240.820312 0)"/>
      <use xlink:href="#DejaVuSansMono-45" transform="translate(301.025391 0)"/>
      <use xlink:href="#DejaVuSansMono-66" transform="translate(361.230469 0)"/>
      <use xlink:href="#DejaVuSansMono-66" transform="translate(421.435547 0)"/>
      <use xlink:href="#DejaVuSansMono-69" transform="translate(481.640625 0)"/>
      <use xlink:href="#DejaVuSansMono-63" transform="translate(541.845703 0)"/>
      <use xlink:href="#DejaVuSansMono-69" transform="translate(602.050781 0)"/>
      <use xlink:href="#DejaVuSansMono-65" transform="translate(662.255859 0)"/>
      <use xlink:href="#DejaVuSansMono-6e" transform="translate(722.460938 0)"/>
      <use xlink:href="#DejaVuSansMono-63" transform="translate(782.666016 0)"/>
      <use xlink:href="#DejaVuSansMono-79" transform="translate(842.871094 0)"/>
      <use xlink:href="#DejaVuSansMono-20" transform="translate(903.076172 0)"/>
      <use xlink:href="#DejaVuSansMono-28" transform="translate(963.28125 0)"/>
      <use xlink:href="#DejaVuSansMono-25" transform="translate(1023.486328 0)"/>
      <use xlink:href="#DejaVuSansMono-29" transform="translate(1083.691406 0)"/>
     </g>
    </g>
   </g>
   <g id="line2d_81">
    <path d="M 101.517386 26.827273 
L 108.102969 29.088178 
L 114.688553 31.349084 
L 121.274136 33.609989 
L 127.859719 35.870895 
L 134.445302 38.1318 
L 141.030885 40.392706 
L 147.616468 42.653611 
L 154.202051 44.914517 
L 160.787634 47.175422 
L 167.373217 49.436328 
L 173.958801 51.697233 
L 180.544384 53.958139 
L 187.129967 56.219044 
L 193.71555 58.47995 
L 200.301133 60.740855 
L 206.886716 63.001761 
L 213.472299 65.262666 
L 220.057882 67.523571 
L 226.643465 69.784477 
L 233.229048 72.045382 
L 239.814632 74.306288 
L 246.400215 76.567193 
L 252.985798 78.828099 
L 259.571381 81.089004 
L 266.156964 83.34991 
L 272.742547 85.610815 
L 279.32813 87.871721 
L 285.913713 90.132626 
L 292.499296 92.393532 
L 299.084879 94.654437 
L 305.670463 96.915343 
L 312.256046 99.176248 
L 318.841629 101.437154 
L 325.427212 103.698059 
L 332.012795 105.958965 
L 338.598378 108.21987 
L 345.183961 110.480776 
L 351.769544 112.741681 
L 358.355127 115.002587 
L 364.940711 117.263492 
L 371.526294 119.524398 
L 378.111877 121.785303 
L 384.69746 124.046209 
L 391.283043 126.307114 
L 397.868626 128.56802 
L 404.454209 130.828925 
L 411.039792 133.089831 
L 417.625375 135.350736 
L 424.210958 137.611642 
L 430.796542 139.872547 
L 437.382125 142.133453 
L 443.967708 144.394358 
L 450.553291 146.655263 
L 457.138874 148.916169 
L 463.724457 151.177074 
L 470.31004 153.43798 
L 476.895623 155.698885 
L 483.481206 157.959791 
L 490.066789 160.220696 
L 496.652373 162.481602 
L 503.237956 164.742507 
L 509.823539 167.003413 
L 516.409122 169.264318 
L 522.994705 171.525224 
L 529.580288 173.786129 
L 536.165871 176.047035 
L 542.751454 178.30794 
L 549.337037 180.568846 
L 555.922621 182.829751 
L 562.508204 185.090657 
L 569.093787 187.351562 
L 575.67937 189.612468 
L 582.264953 191.873373 
L 588.850536 194.134279 
L 595.436119 196.395184 
L 602.021702 198.65609 
L 608.607285 200.916995 
L 615.192868 203.177901 
L 621.778452 205.438806 
L 628.364035 207.699712 
L 634.949618 209.960617 
L 641.535201 212.221523 
L 648.120784 214.482428 
L 654.706367 216.743334 
L 661.29195 219.004239 
L 667.877533 221.265145 
L 674.463116 223.52605 
L 681.048699 225.786956 
L 687.634283 228.047861 
L 694.219866 230.308766 
L 700.805449 232.569672 
L 707.391032 234.830577 
L 713.976615 237.091483 
L 720.562198 239.352388 
L 727.147781 241.613294 
L 733.733364 243.874199 
L 740.318947 246.135105 
L 746.904531 248.39601 
L 753.490114 250.656916 
" clip-path="url(#p764285acc2)" style="fill: none"/>
   </g>
   <g id="line2d_82">
    <path d="M 101.517386 27.108466 
L 108.102969 29.934598 
L 114.688553 32.760729 
L 121.274136 35.586861 
L 127.859719 38.412993 
L 134.445302 41.239125 
L 141.030885 44.065257 
L 147.616468 46.891389 
L 154.202051 49.717521 
L 160.787634 52.543652 
L 167.373217 55.369784 
L 173.958801 58.195916 
L 180.544384 61.022048 
L 187.129967 63.84818 
L 193.71555 66.674312 
L 200.301133 69.500444 
L 206.886716 72.326575 
L 213.472299 75.152707 
L 220.057882 77.978839 
L 226.643465 80.804971 
L 233.229048 83.631103 
L 239.814632 86.457235 
L 246.400215 89.283367 
L 252.985798 92.109498 
L 259.571381 94.93563 
L 266.156964 97.761762 
L 272.742547 100.587894 
L 279.32813 103.414026 
L 285.913713 106.240158 
L 292.499296 109.06629 
L 299.084879 111.892421 
L 305.670463 114.718553 
L 312.256046 117.544685 
L 318.841629 120.370817 
L 325.427212 123.196949 
L 332.012795 126.023081 
L 338.598378 128.849213 
L 345.183961 131.675344 
L 351.769544 134.501476 
L 358.355127 137.327608 
L 364.940711 140.15374 
L 371.526294 142.979872 
L 378.111877 145.806004 
L 384.69746 148.632136 
L 391.283043 151.458267 
L 397.868626 154.284399 
L 404.454209 157.110531 
L 411.039792 159.936663 
L 417.625375 162.762795 
L 424.210958 165.588927 
L 430.796542 168.415059 
L 437.382125 171.24119 
L 443.967708 174.067322 
L 450.553291 176.893454 
L 457.138874 179.719586 
L 463.724457 182.545718 
L 470.31004 185.37185 
L 476.895623 188.197982 
L 483.481206 191.024113 
L 490.066789 193.850245 
L 496.652373 196.676377 
L 503.237956 199.502509 
L 509.823539 202.328641 
L 516.409122 205.154773 
L 522.994705 207.980905 
L 529.580288 210.807037 
L 536.165871 213.633168 
L 542.751454 216.4593 
L 549.337037 219.285432 
L 555.922621 222.111564 
L 562.508204 224.937696 
L 569.093787 227.763828 
L 575.67937 230.58996 
L 582.264953 233.416091 
L 588.850536 236.242223 
L 595.436119 239.068355 
L 602.021702 241.894487 
L 608.607285 244.720619 
L 615.192868 247.546751 
L 621.778452 250.372883 
L 628.364035 253.199014 
L 634.949618 256.025146 
L 641.535201 258.851278 
L 648.120784 261.67741 
L 654.706367 264.503542 
L 661.29195 267.329674 
L 667.877533 270.155806 
L 674.463116 272.981937 
L 681.048699 275.808069 
L 687.634283 278.634201 
L 694.219866 281.460333 
L 700.805449 284.286465 
L 707.391032 287.112597 
L 713.976615 289.938729 
L 720.562198 292.76486 
L 727.147781 295.590992 
L 733.733364 298.417124 
L 740.318947 301.243256 
L 746.904531 304.069388 
L 753.490114 306.89552 
" clip-path="url(#p764285acc2)" style="fill: none"/>
   </g>
   <g id="line2d_83">
    <path d="M 101.517386 27.389659 
L 108.102969 30.781017 
L 114.688553 34.172375 
L 121.274136 37.563733 
L 127.859719 40.955092 
L 134.445302 44.34645 
L 141.030885 47.737808 
L 147.616468 51.129166 
L 154.202051 54.520525 
L 160.787634 57.911883 
L 167.373217 61.303241 
L 173.958801 64.694599 
L 180.544384 68.085958 
L 187.129967 71.477316 
L 193.71555 74.868674 
L 200.301133 78.260032 
L 206.886716 81.65139 
L 213.472299 85.042749 
L 220.057882 88.434107 
L 226.643465 91.825465 
L 233.229048 95.216823 
L 239.814632 98.608182 
L 246.400215 101.99954 
L 252.985798 105.390898 
L 259.571381 108.782256 
L 266.156964 112.173614 
L 272.742547 115.564973 
L 279.32813 118.956331 
L 285.913713 122.347689 
L 292.499296 125.739047 
L 299.084879 129.130406 
L 305.670463 132.521764 
L 312.256046 135.913122 
L 318.841629 139.30448 
L 325.427212 142.695839 
L 332.012795 146.087197 
L 338.598378 149.478555 
L 345.183961 152.869913 
L 351.769544 156.261271 
L 358.355127 159.65263 
L 364.940711 163.043988 
L 371.526294 166.435346 
L 378.111877 169.826704 
L 384.69746 173.218063 
L 391.283043 176.609421 
L 397.868626 180.000779 
L 404.454209 183.392137 
L 411.039792 186.783496 
L 417.625375 190.174854 
L 424.210958 193.566212 
L 430.796542 196.95757 
L 437.382125 200.348928 
L 443.967708 203.740287 
L 450.553291 207.131645 
L 457.138874 210.523003 
L 463.724457 213.914361 
L 470.31004 217.30572 
L 476.895623 220.697078 
L 483.481206 224.088436 
L 490.066789 227.479794 
L 496.652373 230.871153 
L 503.237956 234.262511 
L 509.823539 237.653869 
L 516.409122 241.045227 
L 522.994705 244.436585 
L 529.580288 247.827944 
L 536.165871 251.219302 
L 542.751454 254.61066 
L 549.337037 258.002018 
L 555.922621 261.393377 
L 562.508204 264.784735 
L 569.093787 268.176093 
L 575.67937 271.567451 
L 582.264953 274.95881 
L 588.850536 278.350168 
L 595.436119 281.741526 
L 602.021702 285.132884 
L 608.607285 288.524242 
L 615.192868 291.915601 
L 621.778452 295.306959 
L 628.364035 298.698317 
L 634.949618 302.089675 
L 641.535201 305.481034 
L 648.120784 308.872392 
L 654.706367 312.26375 
L 661.29195 315.655108 
L 667.877533 319.046466 
L 674.463116 322.437825 
L 681.048699 325.829183 
L 687.634283 329.220541 
L 694.219866 332.611899 
L 700.805449 336.003258 
L 707.391032 339.394616 
L 713.976615 342.785974 
L 720.562198 346.177332 
L 727.147781 349.568691 
L 733.733364 352.960049 
L 740.318947 356.351407 
L 746.904531 359.742765 
L 753.490114 363.134123 
" clip-path="url(#p764285acc2)" style="fill: none"/>
   </g>
   <g id="line2d_84">
    <path d="M 101.517386 27.670852 
L 108.102969 31.627436 
L 114.688553 35.584021 
L 121.274136 39.540606 
L 127.859719 43.49719 
L 134.445302 47.453775 
L 141.030885 51.410359 
L 147.616468 55.366944 
L 154.202051 59.323529 
L 160.787634 63.280113 
L 167.373217 67.236698 
L 173.958801 71.193282 
L 180.544384 75.149867 
L 187.129967 79.106452 
L 193.71555 83.063036 
L 200.301133 87.019621 
L 206.886716 90.976205 
L 213.472299 94.93279 
L 220.057882 98.889375 
L 226.643465 102.845959 
L 233.229048 106.802544 
L 239.814632 110.759128 
L 246.400215 114.715713 
L 252.985798 118.672298 
L 259.571381 122.628882 
L 266.156964 126.585467 
L 272.742547 130.542051 
L 279.32813 134.498636 
L 285.913713 138.455221 
L 292.499296 142.411805 
L 299.084879 146.36839 
L 305.670463 150.324974 
L 312.256046 154.281559 
L 318.841629 158.238144 
L 325.427212 162.194728 
L 332.012795 166.151313 
L 338.598378 170.107897 
L 345.183961 174.064482 
L 351.769544 178.021067 
L 358.355127 181.977651 
L 364.940711 185.934236 
L 371.526294 189.89082 
L 378.111877 193.847405 
L 384.69746 197.80399 
L 391.283043 201.760574 
L 397.868626 205.717159 
L 404.454209 209.673743 
L 411.039792 213.630328 
L 417.625375 217.586913 
L 424.210958 221.543497 
L 430.796542 225.500082 
L 437.382125 229.456666 
L 443.967708 233.413251 
L 450.553291 237.369836 
L 457.138874 241.32642 
L 463.724457 245.283005 
L 470.31004 249.239589 
L 476.895623 253.196174 
L 483.481206 257.152759 
L 490.066789 261.109343 
L 496.652373 265.065928 
L 503.237956 269.022512 
L 509.823539 272.979097 
L 516.409122 276.935682 
L 522.994705 280.892266 
L 529.580288 284.848851 
L 536.165871 288.805435 
L 542.751454 292.76202 
L 549.337037 296.718605 
L 555.922621 300.675189 
L 562.508204 304.631774 
L 569.093787 308.588358 
L 575.67937 312.544943 
L 582.264953 316.501528 
L 588.850536 320.458112 
L 595.436119 324.414697 
L 602.021702 328.371281 
L 608.607285 332.327866 
L 615.192868 336.284451 
L 621.778452 340.241035 
L 628.364035 344.19762 
L 634.949618 348.154204 
L 641.535201 352.110789 
L 648.120784 356.067374 
L 654.706367 360.023958 
L 661.29195 363.980543 
L 667.877533 367.937127 
L 674.463116 371.893712 
L 681.048699 375.850297 
L 687.634283 379.806881 
L 694.219866 383.763466 
L 700.805449 387.72005 
L 707.391032 391.676635 
L 713.976615 395.63322 
L 720.562198 399.589804 
L 727.147781 403.546389 
L 733.733364 407.502973 
L 740.318947 411.459558 
L 746.904531 415.416143 
L 753.490114 419.372727 
" clip-path="url(#p764285acc2)" style="fill: none"/>
   </g>
   <g id="patch_8">
    <path d="M 68.91875 439 
L 68.91875 7.2 
" style="fill: none; stroke: #ffffff; stroke-width: 0.8; stroke-linejoin: miter; stroke-linecap: square"/>
   </g>
   <g id="patch_9">
    <path d="M 786.08875 439 
L 786.08875 7.2 
" style="fill: none; stroke: #ffffff; stroke-width: 0.8; stroke-linejoin: miter; stroke-linecap: square"/>
   </g>
   <g id="patch_10">
    <path d="M 68.91875 439 
L 786.08875 439 
" style="fill: none; stroke: #ffffff; stroke-width: 0.8; stroke-linejoin: miter; stroke-linecap: square"/>
   </g>
   <g id="patch_11">
    <path d="M 68.91875 7.2 
L 786.08875 7.2 
" style="fill: none; stroke: #ffffff; stroke-width: 0.8; stroke-linejoin: miter; stroke-linecap: square"/>
   </g>
  </g>
 </g>
 <defs>
  <clipPath id="p764285acc2">
   <rect x="68.91875" y="7.2" width="717.17" height="431.8"/>
  </clipPath>
 </defs>
</svg>
