<svg xmlns:svg="http://www.w3.org/2000/svg" xmlns="http://www.w3.org/2000/svg" xmlns:xlink="http://www.w3.org/1999/xlink" width="436.142" height="419.706" xml:space="preserve"><defs><linearGradient id="a" gradientUnits="userSpaceOnUse" x1="221.904" y1="418.069" x2="221.904" y2="222.969"><stop offset="0" style="stop-color:#fff"/><stop offset="1" style="stop-color:#dbdbdb"/></linearGradient><linearGradient id="b" gradientUnits="userSpaceOnUse" x1="221.904" y1="418.069" x2="221.904" y2="222.969"><stop offset="0" style="stop-color:#fff"/><stop offset="1" style="stop-color:#dbdbdb"/></linearGradient><linearGradient id="c" gradientUnits="userSpaceOnUse" x1="221.904" y1="418.069" x2="221.904" y2="222.969"><stop offset="0" style="stop-color:#fff"/><stop offset="1" style="stop-color:#dbdbdb"/></linearGradient><linearGradient id="d" gradientUnits="userSpaceOnUse" x1="221.904" y1="418.069" x2="221.904" y2="222.969"><stop offset="0" style="stop-color:#fff"/><stop offset="1" style="stop-color:#dbdbdb"/></linearGradient><linearGradient y2="222.969" x2="221.904" y1="418.069" x1="221.904" gradientTransform="matrix(-1 0 0 1 -92.279 -3.305)" gradientUnits="userSpaceOnUse" id="f" xlink:href="#d"/><linearGradient id="e" gradientUnits="userSpaceOnUse" x1="221.904" y1="418.069" x2="221.904" y2="222.969"><stop offset="0" style="stop-color:#fff"/><stop offset="1" style="stop-color:#dbdbdb"/></linearGradient><linearGradient y2="222.969" x2="221.904" y1="418.069" x1="221.904" gradientTransform="matrix(-1 0 0 1 441.273 -3.855)" gradientUnits="userSpaceOnUse" id="i" xlink:href="#e"/><path style="fill:none;stroke:none" d="M26.115 215.993C28.02 129.758 88.411 64.742 151.523 44.61" id="j"/><path style="fill:none;stroke:none" d="M26.115 215.993C28.02 129.758 88.411 64.742 151.523 44.61" id="k"/><path style="fill:none;stroke:none" d="M261.153 280.737c63.112 0 122.959-22.307 135.473-34.82" id="l"/><path style="fill:none;stroke:none" d="M33.855 265.068c17.637 21.877 64.646 34.916 98.871 38.087" id="m"/><path style="fill:none;stroke:none" d="M135.473 261.783c-8.705-43.858-2.72-89.31 6.529-115.975" id="n"/><marker orient="auto" refY="0" refX="0" id="g" style="overflow:visible"><path d="m0 0 5-5-17.5 5L5 5 0 0z" style="fill-rule:evenodd;stroke:#000;stroke-width:1pt;marker-start:none" transform="matrix(.8 0 0 .8 10 0)"/></marker><marker orient="auto" refY="0" refX="0" id="h" style="overflow:visible"><path style="font-size:12px;fill-rule:evenodd;stroke-width:.625;stroke-linejoin:round" d="M8.719 4.034-2.207.016 8.719-4.002c-1.746 2.372-1.736 5.618 0 8.036z" transform="matrix(-1.1 0 0 -1.1 -1.1 0)"/></marker></defs><path style="fill:#fff;fill-opacity:1;fill-rule:nonzero;stroke:none" d="M-21.572-27.445h475.515V442.63H-21.572z"/><path style="fill:url(#f)" d="M-505.876 219.664v3.299c0 33.604 85.87 60.844 191.797 60.844 104.307 0 189.104-26.42 191.676-59.314-.826 105.222-86.346 190.271-191.758 190.271-105.93 0-191.8-85.875-191.8-191.801 0-1.107.066-2.197.085-3.299z"/><ellipse style="fill:#e8e8e8" transform="matrix(-1 0 0 1 -92.279 -3.305)" cx="221.8" cy="226.268" rx="191.797" ry="60.844"/><path style="fill:#fff" d="M-206.98 222.963h84.616c0 21.535-35.27 40.459-88.486 51.273 2.521-16.32 3.87-33.514 3.87-51.27v-.003z"/><path style="opacity:.1" d="m-210.934 274.244-103.229-51.281h.084l103.215 51.275-.08.018.01-.012z"/><path style="opacity:.2;fill:#fff" transform="matrix(-1 0 0 1 -92.279 -3.305)" d="m118.585 277.543-.014-.001.002.007z"/><path style="fill:#fff" d="m131.472 123.28-.029-.014c-10.598 29.754-16.74 65.094-16.74 103.002v.004c0 17.756 1.348 34.949 3.869 51.27l.014.002L221.8 226.268 131.472 123.28z" transform="matrix(-1 0 0 1 -92.279 -3.305)"/><path d="M-210.243 274.127c52.922-10.828 87.961-29.699 87.961-51.164" style="fill:none;stroke:#000;stroke-width:1.25;marker-start:url(#g);marker-end:none"/><path style="fill:none;stroke:#000;stroke-width:.5" d="M-262.66 164.33c-16.366-1.441-33.608-2.209-51.419-2.209-105.928 0-191.797 27.24-191.797 60.842 0 33.604 85.87 60.844 191.797 60.844 38.264 0 73.91-3.555 103.836-9.68M-122.282 222.963c0-21.547-35.31-40.48-88.578-51.289"/><path style="fill:none;stroke:#000;stroke-width:1" d="M-505.962 222.963c0 105.926 85.871 191.801 191.801 191.801 105.926 0 191.797-85.875 191.797-191.801 0-105.928-85.87-191.797-191.797-191.797-105.93 0-191.8 85.869-191.8 191.797z"/><path style="fill:none;stroke:#000;stroke-width:.5;stroke-miterlimit:4;stroke-dasharray:none;stroke-dashoffset:0" d="M-223.719 119.959c-19.016-53.387-52.379-88.793-90.359-88.793"/><path d="M-210.852 274.244c2.523-16.324 3.871-33.52 3.871-51.277 0-37.91-5.373-64.788-14.43-96.468" style="fill:none;stroke:#000;stroke-width:1.25;marker-start:none;marker-end:url(#h)"/><path style="fill:none;stroke:#000;stroke-width:.5" d="M-206.981 222.963h84.699"/><path style="fill:none;stroke:#000;stroke-width:.5;stroke-dasharray:1,1.99999999" d="M-314.591 222.963h106.733"/><path style="fill:none;stroke:#000;stroke-width:.5" d="m-314.079 222.963 103.227 51.281M-314.079 222.963l90.328-102.986"/><circle transform="matrix(-1 0 0 1 -92.279 -3.305)" cx="221.8" cy="226.268" r="6.377"/><circle transform="matrix(-1 0 0 1 -92.279 -3.305)" cx="131.473" cy="123.282" r="6.378" style="fill:#cfbab2;fill-opacity:0" fill="none"/><path d="M-212.018 171.29c-11.89-1.943-38.113-5.897-50.696-6.917" style="fill:none;stroke:#000;stroke-width:.5;stroke-dasharray:1.00000005,2.0000001"/><path style="fill:none;stroke:none" d="M-125.467 225.201c-15.234 26.66-57.127 39.717-79.978 41.894M-118.394 212.688c-1.904-86.235-62.296-151.251-125.408-171.382M-227.752 258.478c8.705-43.858 2.72-89.31-6.529-115.975M-353.431 277.432c-63.112 0-122.96-22.307-135.473-34.82"/><circle transform="matrix(-1 0 0 1 -1.666 -106.85)" cx="221.8" cy="226.268" r="6.377"/><path style="fill:none;stroke:none" d="M-126.134 261.763c-17.637 21.877-64.645 34.916-98.871 38.087"/><path style="fill:none;stroke:#000;stroke-width:.5;stroke-linecap:butt;stroke-linejoin:miter;stroke-miterlimit:4;stroke-opacity:1;stroke-dasharray:3.0000001,3.0000001;stroke-dashoffset:0" d="M-314.28 222.724V30.96"/><path style="fill:url(#i)" d="M27.675 219.114v3.299c0 33.604 85.87 60.844 191.798 60.844 104.307 0 189.104-26.42 191.676-59.314-.826 105.222-86.346 190.27-191.759 190.27-105.93 0-191.8-85.874-191.8-191.8 0-1.107.066-2.197.085-3.3z"/><ellipse style="fill:#e8e8e8" transform="matrix(-1 0 0 1 441.272 -3.855)" cx="221.8" cy="226.268" rx="191.797" ry="60.844"/><path style="fill:#fff" d="M326.57 222.413h84.618c0 21.535-35.271 40.459-88.486 51.273 2.52-16.32 3.869-33.514 3.869-51.27v-.003z"/><path style="opacity:.1" d="m322.618 273.694-103.23-51.281h.084l103.216 51.275-.08.018.01-.012z"/><path style="opacity:.2;fill:#fff" transform="matrix(-1 0 0 1 441.272 -3.855)" d="m118.571 277.542.002.007.012-.006z"/><path style="fill:#fff" d="m131.472 123.28-.029-.014c-10.598 29.754-16.74 65.094-16.74 103.002v.004c0 17.756 1.348 34.949 3.869 51.27l.014.002L221.8 226.268 131.472 123.28z" transform="matrix(-1 0 0 1 441.272 -3.855)"/><path style="font-size:medium;font-style:normal;font-variant:normal;font-weight:400;font-stretch:normal;text-indent:0;text-align:start;text-decoration:none;line-height:normal;letter-spacing:normal;word-spacing:normal;text-transform:none;direction:ltr;block-progression:tb;writing-mode:lr-tb;text-anchor:start;baseline-shift:baseline;color:#000;fill:#000;fill-opacity:1;stroke:none;stroke-width:1.25;marker:none;visibility:visible;display:inline;overflow:visible;enable-background:accumulate;font-family:Sans;-inkscape-font-specification:Sans" d="M410.656 222.406c0 10.393-8.56 20.329-23.844 29.031-15.284 8.703-37.207 16.127-63.625 21.532l.25 1.219c26.505-5.423 48.535-12.85 64-21.657 15.466-8.806 24.47-19.052 24.47-30.125h-1.25z"/><path style="fill-rule:evenodd;stroke:#000;stroke-width:.8pt;marker-start:none" d="m335.555 271.071 3.896-5.9-16.142 8.406 18.147 1.39-5.901-3.896z"/><path style="fill:none;stroke:#000;stroke-width:.5" d="M270.89 163.78c-16.364-1.441-33.606-2.21-51.417-2.21-105.929 0-191.798 27.24-191.798 60.843 0 33.604 85.87 60.844 191.797 60.844 38.265 0 73.91-3.555 103.837-9.68M411.27 222.413c0-21.547-35.311-40.48-88.578-51.29"/><path style="fill:none;stroke:#000;stroke-width:1" d="M27.59 222.413c0 105.926 85.87 191.8 191.8 191.8 105.927 0 191.798-85.874 191.798-191.8 0-105.928-85.871-191.797-191.798-191.797-105.93 0-191.8 85.869-191.8 191.797z"/><path style="fill:none;stroke:#000;stroke-width:.5;stroke-miterlimit:4;stroke-dasharray:none;stroke-dashoffset:0" d="M309.833 119.409c-19.016-53.387-52.38-88.793-90.36-88.793"/><path style="font-size:medium;font-style:normal;font-variant:normal;font-weight:400;font-stretch:normal;text-indent:0;text-align:start;text-decoration:none;line-height:normal;letter-spacing:normal;word-spacing:normal;text-transform:none;direction:ltr;block-progression:tb;writing-mode:lr-tb;text-anchor:start;baseline-shift:baseline;color:#000;fill:#000;fill-opacity:1;stroke:none;stroke-width:1.25;marker:none;visibility:visible;display:inline;overflow:visible;enable-background:accumulate;font-family:Sans;-inkscape-font-specification:Sans" d="m312.75 125.781-1.219.344c9.049 31.653 14.406 58.43 14.406 96.281 0 17.726-1.325 34.896-3.843 51.188l1.219.187c2.527-16.356 3.875-33.586 3.875-51.375 0-37.969-5.374-64.918-14.438-96.625z"/><path d="m310.48 140.322 1.183-15.963 9.441 12.926c-3.796-1.411-8.082-.171-10.623 3.037z" style="font-size:12px;fill-rule:evenodd;stroke-width:.625;stroke-linejoin:round"/><path style="fill:none;stroke:#000;stroke-width:.5" d="M326.57 222.413h84.699"/><path style="fill:none;stroke:#000;stroke-width:.5;stroke-dasharray:1.00000002,2.00000003" d="M218.961 222.413h106.733"/><path style="fill:none;stroke:#000;stroke-width:.5" d="m219.472 222.413 103.227 51.281M219.472 222.413l90.329-102.986"/><circle transform="matrix(-1 0 0 1 441.272 -3.855)" cx="221.8" cy="226.268" r="6.377"/><circle transform="matrix(-1 0 0 1 441.272 -3.855)" cx="131.473" cy="123.282" r="6.378" style="fill:#cfbab2;fill-opacity:0" fill="none"/><path d="M321.533 170.74c-11.89-1.943-38.112-5.897-50.695-6.917" style="fill:none;stroke:#000;stroke-width:.5;stroke-dasharray:1.00000007,2.00000014"/><path style="fill:none;stroke:none" d="M408.084 224.651c-15.234 26.66-57.127 39.717-79.978 41.893M415.157 212.138c-1.904-86.235-62.296-151.251-125.407-171.382M305.8 257.927c8.705-43.857 2.72-89.309-6.53-115.974M180.12 276.882c-63.112 0-122.96-22.307-135.473-34.82"/><circle transform="matrix(-1 0 0 1 531.885 -107.4)" cx="221.8" cy="226.268" r="6.377"/><path style="fill:none;stroke:none" d="M407.418 261.213c-17.638 21.877-64.646 34.916-98.872 38.087"/><path style="fill:none;stroke:#000;stroke-width:.5;stroke-linecap:butt;stroke-linejoin:miter;stroke-miterlimit:4;stroke-opacity:1;stroke-dasharray:3.00000015,3.00000015;stroke-dashoffset:0" d="M219.272 222.174V30.41"/><g style="font-size:22px;font-style:normal;font-weight:400;text-align:center;line-height:125%;letter-spacing:0;word-spacing:0;text-anchor:middle;fill:#000;fill-opacity:1;stroke:none;font-family:Sans"><path d="m29.985 132.587 5.852-11.16 1.465.768 6.412 14.813 4.824-9.2 1.617.848-6.08 11.597-1.466-.768-6.412-14.812-4.594 8.762zM51.693 113.847l.82.513-4.823 7.702c1.2.65 2.295.852 3.289.608.993-.244 1.838-.921 2.533-2.032a8.696 8.696 0 0 0 .935-2.02c.22-.702.359-1.45.416-2.242l1.584.992c-.121.76-.313 1.498-.575 2.213a10.922 10.922 0 0 1-1.002 2.046c-1.019 1.627-2.299 2.619-3.84 2.976-1.542.357-3.12.03-4.735-.98-1.669-1.046-2.712-2.326-3.127-3.84-.416-1.516-.146-3.038.812-4.568.859-1.372 1.98-2.18 3.363-2.426 1.383-.245 2.833.108 4.35 1.058zm-1.54 1.367c-.924-.562-1.816-.763-2.676-.604-.86.158-1.548.65-2.065 1.476-.585.935-.79 1.848-.613 2.74.176.892.718 1.681 1.623 2.367zM59.105 102.268l5.859 4.29-1.168 1.595-5.807-4.252c-.918-.673-1.737-.997-2.456-.974-.718.024-1.34.395-1.865 1.111-.63.861-.853 1.74-.668 2.64.185.899.751 1.695 1.699 2.389l5.486 4.017-1.174 1.604-9.707-7.109 1.174-1.603 1.508 1.104c-.304-.808-.411-1.577-.322-2.306.09-.728.383-1.43.878-2.107.816-1.115 1.78-1.706 2.889-1.772 1.109-.066 2.334.391 3.674 1.373zM58.157 95.88l1.25-1.532 9.32 7.61-1.251 1.531zm-3.627-2.963 1.25-1.531 1.938 1.583-1.25 1.53zM61.094 87.108l2.56 2.261 2.695-3.052 1.152 1.017-2.695 3.052 4.895 4.323c.736.65 1.297.966 1.684.95.387-.017.853-.334 1.399-.95l1.344-1.523 1.24 1.095-1.344 1.522c-1.01 1.143-1.92 1.744-2.731 1.802-.81.058-1.78-.41-2.907-1.406l-4.896-4.324-.96 1.087-1.15-1.016.959-1.087-2.56-2.262zM79.032 80.14l5.15 5.12-1.394 1.402-5.104-5.075c-.807-.803-1.568-1.246-2.282-1.33-.715-.084-1.385.189-2.01.818-.753.757-1.105 1.593-1.057 2.51.048.916.488 1.789 1.321 2.617l4.822 4.794-1.401 1.41L65.224 80.62l1.401-1.41 4.647 4.62c-.18-.844-.17-1.62.028-2.327.198-.707.592-1.358 1.183-1.952.974-.98 2.015-1.42 3.122-1.32 1.107.102 2.249.738 3.427 1.91z" style="font-variant:normal;font-stretch:normal;font-family:DejaVu Sans;-inkscape-font-specification:DejaVu Sans" transform="rotate(53.872 229.08 222.221)"/></g><g style="font-size:22px;font-style:normal;font-weight:400;text-align:center;line-height:125%;letter-spacing:0;word-spacing:0;text-anchor:middle;fill:#000;fill-opacity:1;stroke:none;font-family:Sans"><path d="m17.431 170.305 2.234.497c-.823.566-1.488 1.215-1.997 1.95a6.93 6.93 0 0 0-1.066 2.464c-.398 1.79-.156 3.282.726 4.476.883 1.194 2.359 2.021 4.428 2.482 2.062.46 3.746.335 5.051-.372 1.306-.707 2.158-1.956 2.556-3.745a6.93 6.93 0 0 0 .08-2.684c-.148-.88-.475-1.751-.98-2.612l2.212.492c.338.853.54 1.722.608 2.606a9.207 9.207 0 0 1-.207 2.711c-.528 2.37-1.668 4.075-3.422 5.115-1.754 1.04-3.886 1.281-6.396.722-2.516-.56-4.348-1.683-5.495-3.369-1.147-1.686-1.457-3.714-.93-6.084.21-.936.53-1.791.962-2.564a8.59 8.59 0 0 1 1.636-2.085zM29.591 158.608l.925.284-2.67 8.686c1.326.318 2.437.23 3.334-.262.897-.492 1.537-1.364 1.922-2.617.223-.726.35-1.457.382-2.192a9.822 9.822 0 0 0-.178-2.274l1.787.549c.08.766.085 1.528.017 2.286a10.922 10.922 0 0 1-.44 2.236c-.564 1.835-1.545 3.124-2.942 3.867-1.397.743-3.006.834-4.827.275-1.883-.579-3.22-1.546-4.013-2.903-.794-1.356-.925-2.897-.395-4.622.476-1.547 1.35-2.617 2.622-3.211 1.273-.594 2.765-.628 4.476-.102zm-1.135 1.718c-1.038-.303-1.951-.268-2.741.108-.79.375-1.328 1.028-1.614 1.96-.324 1.053-.285 1.989.116 2.805.4.816 1.127 1.438 2.18 1.867zM21.277 151.724l.681-1.856 15.691 5.76-.681 1.856zM37.157 139.735l.889.38-3.583 8.353c1.284.457 2.398.49 3.343.095.944-.393 1.674-1.192 2.191-2.397.3-.697.504-1.41.614-2.139.11-.728.132-1.488.066-2.28l1.718.737c-.003.77-.08 1.529-.228 2.275a10.922 10.922 0 0 1-.676 2.177c-.757 1.763-1.87 2.94-3.338 3.53-1.469.59-3.078.508-4.83-.243-1.809-.776-3.036-1.88-3.68-3.314-.643-1.433-.61-2.98.102-4.638.638-1.487 1.622-2.458 2.95-2.913 1.33-.455 2.817-.33 4.462.377zm-1.312 1.588c-1-.414-1.912-.476-2.737-.187-.826.289-1.43.88-1.814 1.776-.435 1.014-.497 1.948-.185 2.802.311.854.967 1.55 1.967 2.089zM37.677 127.244l1.664.851c-.51.367-.965.786-1.367 1.256-.401.47-.748.993-1.042 1.566-.447.874-.648 1.598-.604 2.171.045.574.335.998.87 1.272.408.208.809.216 1.201.023.393-.194.936-.708 1.629-1.544l.442-.534c.907-1.113 1.739-1.808 2.495-2.084.757-.277 1.572-.192 2.446.255.994.509 1.58 1.305 1.758 2.39.177 1.084-.086 2.314-.79 3.692a11.403 11.403 0 0 1-1.085 1.707 16.83 16.83 0 0 1-1.507 1.709l-1.818-.93c.671-.477 1.252-.988 1.744-1.533a8.116 8.116 0 0 0 1.212-1.745c.424-.829.608-1.539.553-2.13-.055-.592-.341-1.02-.858-1.284-.478-.244-.927-.271-1.347-.08-.42.192-1.026.773-1.82 1.742l-.456.539c-.787.973-1.542 1.58-2.265 1.822-.723.241-1.499.15-2.328-.274-1.007-.515-1.602-1.27-1.785-2.265-.184-.994.06-2.148.733-3.462.332-.65.693-1.237 1.082-1.762.39-.525.804-.981 1.243-1.368zM37.566 119.791l2.953 1.717 2.047-3.52 1.328.773-2.047 3.52 5.646 3.282c.849.494 1.46.694 1.837.602.377-.091.772-.493 1.186-1.205l1.02-1.755 1.43.831-1.02 1.755c-.767 1.32-1.542 2.086-2.326 2.301-.784.216-1.825-.055-3.126-.81l-5.646-3.284-.729 1.254-1.328-.772.73-1.254-2.954-1.717zM44.215 115.383l1.06-1.668 10.155 6.45-1.06 1.669zm-3.954-2.511 1.06-1.669 2.113 1.342-1.06 1.669zM55.89 108.729c-.925 1.301-1.417 2.31-1.476 3.023-.06.713.27 1.325.988 1.835.572.407 1.16.541 1.763.403.604-.138 1.135-.531 1.596-1.179.634-.893.827-1.835.577-2.825-.25-.99-.9-1.858-1.951-2.605l-.359-.255zm1.617-3.687 5.596 3.975-1.145 1.612-1.488-1.058c.334.791.447 1.561.34 2.311-.106.75-.441 1.522-1.006 2.316-.713 1.004-1.562 1.603-2.546 1.795-.985.192-1.95-.048-2.895-.72-1.104-.783-1.673-1.744-1.71-2.88-.035-1.137.468-2.438 1.509-3.904l1.605-2.259-.158-.112c-.741-.527-1.488-.69-2.24-.491-.752.199-1.441.74-2.067 1.62a8.167 8.167 0 0 0-.963 1.782 7.964 7.964 0 0 0-.484 1.961l-1.489-1.057c.191-.752.427-1.445.707-2.08.28-.636.607-1.217.98-1.742 1.009-1.419 2.13-2.217 3.362-2.395 1.234-.178 2.598.264 4.092 1.326zM52.521 95.44l1.227-1.55 13.109 10.37-1.226 1.55zM62.518 84.432l2.255-2.318 10.677 4.677-4.954-10.56 2.255-2.317 11.495 11.184-1.476 1.517-10.094-9.82 5 10.634-1.52 1.563-10.768-4.706 10.094 9.82-1.468 1.51zM90.924 70.613l.633.73-6.87 5.95c.955.972 1.944 1.487 2.965 1.545 1.021.059 2.027-.341 3.018-1.2a8.696 8.696 0 0 0 1.486-1.655 9.822 9.822 0 0 0 1.056-2.022l1.223 1.413c-.339.691-.738 1.34-1.198 1.947-.46.606-.98 1.16-1.56 1.662-1.45 1.256-2.965 1.83-4.544 1.718-1.578-.11-2.99-.886-4.238-2.327-1.289-1.488-1.91-3.018-1.863-4.589.047-1.57.752-2.946 2.117-4.127 1.223-1.06 2.532-1.504 3.926-1.332 1.394.17 2.677.933 3.85 2.287zm-1.874.855c-.719-.808-1.512-1.262-2.38-1.363-.87-.1-1.672.168-2.408.806-.834.722-1.297 1.535-1.39 2.44-.093.904.193 1.817.858 2.738zM97.105 61.232a2.617 2.617 0 0 0-.748.215c-.245.11-.492.262-.743.453-.887.68-1.347 1.49-1.38 2.43-.032.94.365 1.951 1.192 3.032l3.853 5.032-1.578 1.208-7.314-9.553 1.578-1.208 1.136 1.484c-.114-.832-.015-1.592.299-2.278.313-.686.848-1.32 1.604-1.898a4.21 4.21 0 0 1 .375-.253c.141-.086.303-.176.484-.27zM98.111 58.292l1.617-1.136L106.645 67l-1.617 1.136zm-2.693-3.832 1.617-1.136 1.44 2.048-1.618 1.136zM111.348 51.782l-3.443-5.525 1.677-1.045 8.84 14.186-1.678 1.045-.954-1.531c.026.827-.138 1.556-.492 2.186-.354.63-.908 1.18-1.662 1.65-1.234.768-2.545.901-3.933.4-1.389-.502-2.583-1.555-3.583-3.16-1-1.605-1.419-3.14-1.258-4.608.162-1.468.86-2.586 2.093-3.355.754-.47 1.492-.724 2.213-.765.722-.04 1.448.134 2.18.522zm-3.496 7.127c.77 1.234 1.626 2.043 2.57 2.43.946.385 1.862.301 2.75-.252.887-.552 1.367-1.339 1.44-2.36.073-1.02-.274-2.146-1.043-3.38-.77-1.234-1.627-2.043-2.575-2.427-.948-.384-1.866-.3-2.754.254-.887.553-1.366 1.338-1.436 2.357-.07 1.018.28 2.144 1.048 3.378zM116.22 46.884l1.734-.949 5.774 10.555-1.734.95zm-2.248-4.109 1.734-.948 1.201 2.195-1.734.949zM129.7 46.71c-1.442.685-2.364 1.324-2.763 1.918-.4.595-.411 1.29-.034 2.085.301.634.749 1.038 1.343 1.212.594.174 1.25.09 1.968-.25.99-.47 1.617-1.198 1.882-2.184.266-.986.122-2.061-.43-3.226l-.19-.398zm3.212-2.428 2.943 6.201-1.785.848-.784-1.65c-.094.854-.37 1.581-.83 2.184-.46.602-1.129 1.112-2.009 1.53-1.112.528-2.145.636-3.098.323-.953-.312-1.678-.993-2.176-2.04-.58-1.224-.609-2.34-.085-3.35.524-1.009 1.597-1.899 3.221-2.67l2.504-1.188-.083-.175c-.39-.821-.962-1.329-1.715-1.522-.754-.193-1.62-.058-2.596.406a8.167 8.167 0 0 0-1.709 1.084c-.518.428-.978.92-1.38 1.476l-.783-1.65a13.257 13.257 0 0 1 1.632-1.47 9.874 9.874 0 0 1 1.706-1.042c1.572-.746 2.94-.896 4.103-.45 1.163.448 2.138 1.499 2.924 3.155zM146.426 38.563l2.55 6.8-1.851.693-2.527-6.739c-.4-1.066-.907-1.786-1.521-2.16-.615-.374-1.338-.405-2.169-.093-1 .375-1.668.989-2.005 1.842-.338.853-.301 1.83.111 2.93l2.387 6.366-1.86.698-4.224-11.266 1.86-.697.657 1.75c.188-.843.52-1.545.994-2.105.475-.56 1.104-.988 1.889-1.282 1.294-.485 2.423-.452 3.388.1.964.553 1.738 1.607 2.321 3.163z" style="font-size:22px;font-style:normal;font-variant:normal;font-weight:400;font-stretch:normal;font-family:DejaVu Sans;-inkscape-font-specification:DejaVu Sans" transform="rotate(-4.417 122.38 292.41)"/></g><g style="font-size:22px;font-style:normal;font-variant:normal;font-weight:400;font-stretch:normal;text-align:center;line-height:125%;letter-spacing:0;word-spacing:0;text-anchor:middle;fill:#000;fill-opacity:1;stroke:none;font-family:DejaVu Serif;-inkscape-font-specification:DejaVu Serif"><path d="M263.213 108.25v2.115c-.824-.393-1.6-.687-2.331-.88a8.262 8.262 0 0 0-2.117-.29c-1.181 0-2.092.229-2.733.687-.641.458-.962 1.11-.962 1.955 0 .709.213 1.244.64 1.606.425.362 1.233.654 2.422.875l1.31.27c1.619.307 2.813.85 3.583 1.626.77.778 1.155 1.818 1.155 3.121 0 1.554-.521 2.732-1.563 3.534-1.042.802-2.57 1.203-4.582 1.203-.76 0-1.567-.085-2.422-.257a18.029 18.029 0 0 1-2.659-.763v-2.234c.88.494 1.744.866 2.589 1.117.845.25 1.676.376 2.492.376 1.239 0 2.195-.244 2.868-.73.673-.488 1.01-1.182 1.01-2.085 0-.788-.242-1.403-.725-1.847-.484-.444-1.277-.777-2.38-1l-1.32-.257c-1.62-.323-2.79-.827-3.514-1.515-.723-.687-1.084-1.643-1.084-2.868 0-1.418.499-2.535 1.498-3.352 1-.816 2.376-1.224 4.13-1.224.752 0 1.519.068 2.3.204.78.136 1.578.34 2.395.612zM269.433 108.314v3.416h4.07v1.536h-4.07v6.531c0 .981.134 1.611.402 1.89.269.28.815.42 1.639.42h2.03v1.654h-2.03c-1.526 0-2.579-.285-3.159-.854-.58-.57-.87-1.606-.87-3.11v-6.531h-1.45v-1.536h1.45v-3.416zM281.582 117.713c-1.597 0-2.704.183-3.32.548-.615.365-.923.988-.923 1.869 0 .702.23 1.259.693 1.67.462.412 1.09.618 1.885.618 1.096 0 1.975-.388 2.637-1.165.663-.777.994-1.81.994-3.1v-.44zm3.942-.816v6.864h-1.976v-1.826c-.451.73-1.014 1.27-1.687 1.616-.673.348-1.497.521-2.47.521-1.232 0-2.212-.345-2.938-1.036-.727-.691-1.09-1.617-1.09-2.777 0-1.354.452-2.374 1.358-3.062.906-.687 2.258-1.03 4.055-1.03h2.772v-.194c0-.91-.3-1.613-.897-2.111-.598-.498-1.438-.747-2.52-.747-.687 0-1.356.083-2.008.247a7.963 7.963 0 0 0-1.88.742v-1.827c.723-.279 1.425-.488 2.106-.628.68-.14 1.342-.21 1.987-.21 1.74 0 3.04.452 3.9 1.354.859.902 1.288 2.27 1.288 4.104zM296.578 113.577a2.618 2.618 0 0 0-.725-.284 3.813 3.813 0 0 0-.865-.092c-1.117 0-1.975.364-2.573 1.09-.598.728-.897 1.771-.897 3.132v6.338h-1.987V111.73h1.987v1.869c.416-.73.956-1.273 1.622-1.628.667-.354 1.476-.531 2.428-.531.136 0 .287.009.451.026.165.018.348.045.548.081z" style="font-family:DejaVu Sans;-inkscape-font-specification:DejaVu Sans"/></g><g style="font-size:22px;font-style:normal;font-variant:normal;font-weight:400;font-stretch:normal;text-align:center;line-height:125%;letter-spacing:0;word-spacing:0;text-anchor:middle;fill:#000;fill-opacity:1;stroke:none;font-family:DejaVu Serif;-inkscape-font-specification:DejaVu Serif"><path d="M111.524 213.849c-1.575 0-2.827.587-3.754 1.762-.927 1.174-1.391 2.775-1.391 4.801 0 2.02.464 3.617 1.391 4.791.927 1.175 2.179 1.762 3.754 1.762 1.576 0 2.824-.587 3.744-1.762.92-1.174 1.38-2.771 1.38-4.79 0-2.027-.46-3.628-1.38-4.802-.92-1.175-2.168-1.762-3.744-1.762zm0-1.762c2.25 0 4.047.754 5.393 2.261 1.346 1.508 2.02 3.53 2.02 6.064 0 2.528-.674 4.546-2.02 6.054-1.346 1.507-3.144 2.26-5.393 2.26-2.255 0-4.058-.751-5.408-2.255-1.35-1.504-2.025-3.523-2.025-6.059 0-2.535.675-4.556 2.025-6.064 1.35-1.507 3.153-2.26 5.408-2.26zM130.882 222.41c0-1.453-.3-2.594-.897-3.421-.598-.827-1.42-1.24-2.465-1.24-1.046 0-1.868.413-2.466 1.24-.598.827-.897 1.968-.897 3.421 0 1.454.3 2.595.897 3.422.598.827 1.42 1.24 2.466 1.24 1.045 0 1.867-.413 2.465-1.24.598-.827.897-1.968.897-3.422zm-6.725-4.2c.416-.716.94-1.248 1.574-1.595.634-.347 1.391-.521 2.272-.521 1.46 0 2.648.58 3.561 1.74.913 1.16 1.37 2.686 1.37 4.576 0 1.891-.457 3.416-1.37 4.577-.913 1.16-2.1 1.74-3.561 1.74-.88 0-1.638-.174-2.272-.521-.634-.347-1.158-.88-1.574-1.595v1.804h-1.987V211.7h1.987zM143.88 216.739v1.869a7.72 7.72 0 0 0-1.74-.645 8.044 8.044 0 0 0-1.87-.215c-.98 0-1.716.15-2.207.451-.49.301-.736.752-.736 1.354 0 .458.176.818.527 1.08.35.261 1.056.51 2.116.746l.677.15c1.403.301 2.4.726 2.991 1.274.591.547.886 1.312.886 2.293 0 1.117-.442 2.002-1.326 2.653-.885.652-2.1.978-3.647.978-.645 0-1.316-.063-2.014-.188a16.829 16.829 0 0 1-2.208-.564v-2.041c.73.38 1.45.664 2.16.854.708.19 1.41.285 2.105.285.93 0 1.647-.16 2.148-.478.502-.32.752-.769.752-1.349 0-.537-.18-.949-.542-1.235-.362-.286-1.155-.562-2.38-.827l-.687-.161c-1.225-.258-2.11-.654-2.654-1.187-.544-.534-.816-1.266-.816-2.197 0-1.132.401-2.005 1.203-2.621.802-.616 1.941-.924 3.416-.924.73 0 1.418.054 2.063.161a8.777 8.777 0 0 1 1.783.484zM157.974 221.906v.966h-9.088c.086 1.361.496 2.398 1.23 3.11.734.713 1.756 1.07 3.067 1.07.759 0 1.495-.094 2.207-.28a9.822 9.822 0 0 0 2.122-.838v1.869c-.71.3-1.436.53-2.18.688-.746.157-1.501.236-2.267.236-1.92 0-3.44-.559-4.56-1.676-1.121-1.117-1.682-2.628-1.682-4.533 0-1.97.532-3.533 1.596-4.69 1.063-1.156 2.497-1.734 4.302-1.734 1.618 0 2.898.521 3.84 1.563.942 1.042 1.413 2.458 1.413 4.249zm-1.977-.58c-.014-1.082-.317-1.945-.908-2.59-.59-.644-1.373-.966-2.347-.966-1.103 0-1.985.311-2.648.934-.662.623-1.044 1.5-1.144 2.632zM168.19 218.232a2.617 2.617 0 0 0-.726-.285 3.813 3.813 0 0 0-.864-.091c-1.118 0-1.975.363-2.573 1.09-.598.727-.897 1.77-.897 3.131v6.338h-1.987v-12.03h1.987v1.868c.415-.73.956-1.273 1.622-1.627.666-.355 1.475-.532 2.428-.532.136 0 .286.009.45.027.166.018.348.045.549.08zM168.866 216.384h2.095l3.76 10.098 3.76-10.098h2.094l-4.511 12.031h-2.686zM193.595 221.906v.966h-9.088c.086 1.361.496 2.398 1.23 3.11.734.713 1.756 1.07 3.067 1.07.759 0 1.495-.094 2.207-.28a9.822 9.822 0 0 0 2.122-.838v1.869c-.71.3-1.436.53-2.18.688-.746.157-1.501.236-2.267.236-1.92 0-3.44-.559-4.56-1.676-1.121-1.117-1.682-2.628-1.682-4.533 0-1.97.532-3.533 1.596-4.69 1.063-1.156 2.497-1.734 4.302-1.734 1.618 0 2.898.521 3.84 1.563.942 1.042 1.413 2.458 1.413 4.249zm-1.977-.58c-.014-1.082-.317-1.945-.908-2.59-.59-.644-1.373-.966-2.347-.966-1.103 0-1.985.311-2.648.934-.662.623-1.043 1.5-1.144 2.632zM203.81 218.232a2.617 2.617 0 0 0-.725-.285 3.813 3.813 0 0 0-.864-.091c-1.117 0-1.975.363-2.573 1.09-.598.727-.897 1.77-.897 3.131v6.338h-1.987v-12.03h1.987v1.868c.415-.73.956-1.273 1.622-1.627.666-.355 1.475-.532 2.428-.532.136 0 .286.009.451.027.165.018.347.045.548.08z" style="font-family:DejaVu Sans;-inkscape-font-specification:DejaVu Sans"/></g><g style="font-size:21.97740555px;font-style:normal;font-weight:400;text-align:center;line-height:125%;letter-spacing:0;word-spacing:0;text-anchor:middle;fill:#000;fill-opacity:1;stroke:none;font-family:Sans"><path d="m290.088 263.188 2.153-.273.826 6.522 7.823-.991-.827-6.522 2.152-.273 2.017 15.91-2.152.274-.96-7.577-7.823.991.96 7.577-2.152.273zM311.18 265.608c-1.045.182-1.8.733-2.264 1.654-.465.92-.574 2.09-.327 3.508.247 1.418.744 2.482 1.489 3.191.745.71 1.643.973 2.695.79 1.037-.18 1.787-.733 2.251-1.657.464-.924.574-2.092.328-3.503-.245-1.404-.742-2.464-1.492-3.18-.75-.716-1.644-.984-2.68-.803zm-.289-1.651c1.694-.295 3.12.023 4.278.955 1.158.933 1.907 2.372 2.246 4.32.338 1.94.12 3.546-.654 4.819-.774 1.272-2.008 2.056-3.7 2.351-1.701.296-3.129-.024-4.284-.96-1.156-.936-1.903-2.374-2.24-4.315-.34-1.947-.124-3.555.647-4.823.771-1.268 2.007-2.05 3.707-2.347zM326.376 263.081a2.62 2.62 0 0 0-.769-.13 3.81 3.81 0 0 0-.865.089c-1.093.23-1.858.76-2.294 1.595-.435.834-.514 1.917-.234 3.249l1.302 6.203-1.945.408-2.472-11.775 1.945-.408.384 1.83c.257-.8.675-1.443 1.254-1.927.579-.483 1.334-.823 2.266-1.019.133-.028.282-.05.447-.066.165-.016.35-.028.553-.034zM327.76 260.84l1.924-.451 2.744 11.714-1.924.45zm-1.07-4.56 1.925-.452.571 2.437-1.924.451zM332.543 259.729l9.078-2.395.46 1.745-4.982 10.257 7.188-1.896.403 1.527-9.338 2.464-.46-1.745 4.982-10.258-6.928 1.828zM348.913 256.588c-1.013.313-1.691.956-2.035 1.928-.345.972-.304 2.146.121 3.521s1.053 2.368 1.882 2.977c.83.61 1.754.756 2.773.441 1.006-.31 1.68-.954 2.023-1.93.343-.975.303-2.147-.12-3.516-.42-1.361-1.049-2.35-1.884-2.965-.834-.615-1.755-.767-2.76-.456zm-.495-1.6c1.642-.509 3.096-.374 4.364.404 1.267.777 2.193 2.11 2.776 3.999.582 1.881.57 3.502-.036 4.863-.607 1.36-1.731 2.295-3.373 2.802-1.649.51-3.106.374-4.37-.408-1.266-.782-2.19-2.114-2.77-3.995-.585-1.889-.575-3.511.03-4.867.603-1.356 1.73-2.29 3.378-2.799zM367.301 253.81l2.51 6.815-1.854.683-2.488-6.754c-.394-1.068-.897-1.79-1.51-2.168-.611-.378-1.334-.413-2.167-.106-1.002.37-1.674.98-2.016 1.83-.343.852-.311 1.828.095 2.93l2.35 6.381-1.864.687-4.16-11.29 1.865-.686.646 1.754c.194-.843.53-1.542 1.007-2.1.478-.558 1.11-.981 1.896-1.27 1.297-.479 2.426-.439 3.387.12.961.557 1.729 1.616 2.303 3.175z" style="font-size:22px;font-variant:normal;font-stretch:normal;font-family:DejaVu Sans;-inkscape-font-specification:DejaVu Sans" transform="rotate(24.947 238.127 -235.622)"/></g><g style="font-size:22px;font-style:normal;font-variant:normal;font-weight:400;font-stretch:normal;text-align:center;line-height:125%;letter-spacing:0;word-spacing:0;text-anchor:middle;fill:#000;fill-opacity:1;stroke:none;font-family:DejaVu Serif;-inkscape-font-specification:DejaVu Serif"><path d="M419.004 213.635h2.921l7.112 13.417v-13.417h2.105v16.038h-2.922l-7.111-13.417v13.417h-2.105z" style="font-family:DejaVu Sans;-inkscape-font-specification:DejaVu Sans"/></g><g style="font-size:22px;font-style:normal;font-variant:normal;font-weight:400;font-stretch:normal;text-align:center;line-height:125%;letter-spacing:0;word-spacing:0;text-anchor:middle;fill:#000;fill-opacity:1;stroke:none;font-family:DejaVu Serif;-inkscape-font-specification:DejaVu Serif"><path d="m53.859 264.559-7.003 4.83 4.82 3.396zm.23-2.453 2.01 1.417-4.24 16.631-1.844-1.3 1.176-4.204-5.91-4.164-3.564 2.522-1.87-1.318zM58.73 269.945l8.342 4.31-.828 1.603-10.573 4.271 6.604 3.412-.724 1.403-8.58-4.432.828-1.604 10.573-4.271-6.366-3.289zM69.157 275.087l1.812.79-4.807 11.029-1.812-.79zm1.871-4.294 1.812.79-1 2.295-1.812-.79zM81.943 282.527c.757-.678 1.53-1.104 2.318-1.279.788-.174 1.622-.11 2.501.195 1.185.41 1.955 1.14 2.311 2.192.356 1.052.27 2.342-.26 3.872l-2.374 6.862-1.878-.65 2.353-6.801c.377-1.09.464-1.965.261-2.627-.203-.66-.7-1.129-1.492-1.403-.968-.334-1.844-.278-2.628.171-.785.449-1.369 1.228-1.753 2.338l-2.223 6.426-1.878-.65 2.353-6.802c.38-1.096.467-1.973.263-2.631-.204-.658-.71-1.127-1.515-1.405-.954-.33-1.824-.27-2.609.182-.785.452-1.369 1.23-1.75 2.333l-2.224 6.426-1.878-.65 3.934-11.37 1.878.65-.611 1.767c.667-.55 1.356-.887 2.067-1.013.71-.126 1.475-.047 2.293.237.826.285 1.456.738 1.89 1.358.433.62.65 1.377.651 2.272zM91.273 290.67l1.812-7.055 1.914.492-1.793 6.981c-.283 1.103-.28 1.985.008 2.647.288.662.862 1.103 1.722 1.324 1.034.266 1.935.146 2.705-.359.769-.505 1.3-1.326 1.592-2.463l1.697-6.607 1.914.492-2.993 11.653-1.914-.492.46-1.79c-.647.588-1.321.975-2.023 1.161-.703.186-1.46.174-2.27-.034-1.34-.344-2.249-1.021-2.729-2.032-.48-1.01-.514-2.316-.102-3.919zM108.922 283.916l-.697 3.344 3.985.831-.313 1.504-3.986-.832-1.334 6.394c-.2.96-.197 1.605.008 1.933.206.328.712.577 1.518.745l1.988.414-.338 1.62-1.987-.415c-1.494-.311-2.466-.805-2.918-1.48-.451-.677-.523-1.75-.216-3.223l1.333-6.393-1.42-.297.315-1.503 1.42.296.697-3.344zM123.35 294.803l-1.161 7.168-1.951-.316 1.151-7.105c.182-1.124.1-2-.248-2.63-.348-.63-.96-1.015-1.837-1.157-1.053-.17-1.938.03-2.655.603-.717.573-1.17 1.44-1.357 2.599l-1.088 6.712-1.962-.318 2.674-16.5 1.962.319-1.048 6.468c.582-.638 1.218-1.083 1.908-1.334.69-.251 1.449-.31 2.276-.175 1.364.22 2.328.81 2.89 1.769.564.958.712 2.257.446 3.897z" style="font-style:normal;font-variant:normal;font-weight:400;font-stretch:normal;font-family:DejaVu Sans;-inkscape-font-specification:DejaVu Sans" transform="rotate(-40.133 213.524 -99.15)"/></g><g style="font-size:22px;font-style:normal;font-weight:400;text-align:center;line-height:125%;letter-spacing:0;word-spacing:0;text-anchor:middle;fill:#000;fill-opacity:1;stroke:none;font-family:Sans"><path d="m118.355 240.06 8.213 2.217-.528-5.874zm-2.02 1.412-.22-2.45 15.426-7.525.202 2.247-3.966 1.824.647 7.2 4.23 1.086.204 2.28zM114.837 230l-.09-1.974 16.698-.755.09 1.975zM115.827 221.43l3.416-.052-.062-4.07 1.535-.024.063 4.07 6.53-.1c.981-.014 1.61-.158 1.885-.43.275-.274.406-.822.393-1.645l-.03-2.03 1.653-.026.031 2.03c.024 1.526-.245 2.583-.805 3.171-.56.59-1.593.895-3.096.918l-6.53.1.021 1.45-1.536.023-.022-1.45-3.415.053zM119.22 214.344l.028-1.977 12.03.169-.028 1.976zm-4.683-.066.028-1.976 2.502.035-.027 1.976zM116.028 205.796l3.413.146.174-4.067 1.535.066-.174 4.067 6.525.28c.98.042 1.616-.065 1.906-.321.29-.257.454-.796.489-1.619l.087-2.028 1.653.07-.087 2.029c-.066 1.524-.395 2.564-.989 3.119-.594.555-1.642.8-3.144.736l-6.525-.28-.063 1.449-1.534-.066.062-1.449-3.413-.146zM127.032 199.573l-7.256-.633.172-1.97 7.181.628c1.134.099 2.004-.048 2.61-.441.606-.393.948-1.032 1.025-1.916.093-1.063-.173-1.933-.797-2.61-.624-.676-1.52-1.065-2.69-1.167l-6.796-.593.172-1.97 11.985 1.047-.171 1.97-1.841-.162c.686.542 1.178 1.144 1.476 1.806.298.662.41 1.41.338 2.246-.12 1.376-.64 2.384-1.558 3.023-.919.639-2.202.886-3.85.742zM124.135 176.588l-6.443-.93.282-1.956 16.544 2.386-.283 1.957-1.786-.258c.65.513 1.101 1.109 1.354 1.785.254.677.317 1.455.19 2.334-.207 1.44-.95 2.528-2.23 3.266-1.278.738-2.853.972-4.724.702s-3.316-.94-4.334-2.009c-1.018-1.07-1.423-2.323-1.215-3.762.127-.88.407-1.607.841-2.185.435-.578 1.036-1.021 1.804-1.33zm3.195 7.266c1.44.207 2.61.074 3.515-.4.904-.473 1.43-1.228 1.58-2.262.15-1.035-.143-1.91-.875-2.623-.733-.713-1.82-1.174-3.258-1.381-1.439-.208-2.61-.073-3.515.404-.905.478-1.432 1.234-1.58 2.269-.15 1.034.142 1.907.875 2.617.734.71 1.82 1.168 3.258 1.376zM130.922 160.68l.947.196-1.838 8.9c1.35.191 2.448 0 3.294-.576.847-.574 1.402-1.504 1.667-2.787a8.696 8.696 0 0 0 .173-2.218 9.823 9.823 0 0 0-.391-2.248l1.83.378c.151.756.229 1.514.232 2.275.004.761-.071 1.517-.226 2.268-.388 1.88-1.243 3.255-2.564 4.127-1.32.871-2.914 1.115-4.78.73-1.928-.399-3.351-1.236-4.269-2.511-.917-1.275-1.194-2.797-.829-4.564.328-1.585 1.097-2.734 2.307-3.445 1.211-.712 2.694-.887 4.447-.525zm-.968 1.819c-1.062-.205-1.968-.083-2.719.365-.75.449-1.224 1.15-1.421 2.104-.223 1.08-.097 2.007.38 2.782.476.775 1.258 1.325 2.346 1.652z" style="font-size:22px;font-style:normal;font-variant:normal;font-weight:400;font-stretch:normal;font-family:DejaVu Sans;-inkscape-font-specification:DejaVu Sans" transform="rotate(172.261 219.084 208.292)"/></g><svg:text xml:space="preserve" style="font-size:14px;font-style:normal;font-variant:normal;font-weight:400;font-stretch:normal;text-align:center;line-height:125%;letter-spacing:0;word-spacing:0;text-anchor:middle;fill:#000;fill-opacity:1;stroke:none;font-family:DejaVu Serif;-inkscape-font-specification:DejaVu Serif" x="-316.326" y="469.465"><svg:tspan x="-316.326" y="469.465" style="font-size:14px;font-family:DejaVu sans;-inkscape-font-specification:DejaVu sans">Original (editable)</svg:tspan></svg:text><svg:text xml:space="preserve" style="font-size:14px;font-style:normal;font-variant:normal;font-weight:400;font-stretch:normal;text-align:center;line-height:125%;letter-spacing:0;word-spacing:0;text-anchor:middle;fill:#000;fill-opacity:1;stroke:none;font-family:DejaVu Serif;-inkscape-font-specification:DejaVu Serif" x="230.493" y="491.473"><svg:tspan x="230.493" y="491.473" style="font-size:14px;font-family:DejaVu sans;-inkscape-font-specification:DejaVu sans">&quot;Object to Path&quot; on text (curved text won&apos;t display otherwise)</svg:tspan></svg:text><svg:text xml:space="preserve" style="font-size:14px;font-style:normal;font-variant:normal;font-weight:400;font-stretch:normal;text-align:center;line-height:125%;letter-spacing:0;word-spacing:0;text-anchor:middle;fill:#000;fill-opacity:1;stroke:none;font-family:DejaVu Serif;-inkscape-font-specification:DejaVu Serif" x="230.491" y="471.137"><svg:tspan x="230.491" y="471.137" style="font-size:14px;font-family:DejaVu sans;-inkscape-font-specification:DejaVu sans">&quot;Stroke to Path&quot; on arrows</svg:tspan></svg:text><svg:text xml:space="preserve" style="font-size:22px;font-style:normal;font-weight:400;text-align:center;line-height:125%;letter-spacing:0;word-spacing:0;text-anchor:middle;fill:#000;fill-opacity:1;stroke:none;font-family:Sans" transform="rotate(53.872 -38.237 -302.527)"><svg:textPath xlink:href="#j" startOffset="50%" style="font-style:normal;font-variant:normal;font-weight:400;font-stretch:normal;font-family:DejaVu Sans;-inkscape-font-specification:DejaVu Sans">Zenith</svg:textPath></svg:text><svg:text xml:space="preserve" style="font-size:22px;font-style:normal;font-weight:400;text-align:center;line-height:125%;letter-spacing:0;word-spacing:0;text-anchor:middle;fill:#000;fill-opacity:1;stroke:none;font-family:Sans" transform="rotate(-4.417 -137.264 7210.648)"><svg:textPath xlink:href="#k" startOffset="50%"><svg:tspan style="font-size:22px;font-style:normal;font-variant:normal;font-weight:400;font-stretch:normal;font-family:DejaVu Sans;-inkscape-font-specification:DejaVu Sans">Celestial Meridian</svg:tspan></svg:textPath></svg:text><svg:text xml:space="preserve" style="font-size:22px;font-style:normal;font-variant:normal;font-weight:400;font-stretch:normal;text-align:center;line-height:125%;letter-spacing:0;word-spacing:0;text-anchor:middle;fill:#000;fill-opacity:1;stroke:none;font-family:DejaVu Serif;-inkscape-font-specification:DejaVu Serif" x="-259.532" y="124.311"><svg:tspan x="-259.532" y="124.311" style="font-style:normal;font-variant:normal;font-weight:400;font-stretch:normal;font-family:DejaVu Sans;-inkscape-font-specification:DejaVu Sans">Star</svg:tspan></svg:text><svg:text xml:space="preserve" style="font-size:22px;font-style:normal;font-variant:normal;font-weight:400;font-stretch:normal;text-align:center;line-height:125%;letter-spacing:0;word-spacing:0;text-anchor:middle;fill:#000;fill-opacity:1;stroke:none;font-family:DejaVu Serif;-inkscape-font-specification:DejaVu Serif" x="-380.208" y="228.965"><svg:tspan x="-380.208" y="228.965" style="font-style:normal;font-variant:normal;font-weight:400;font-stretch:normal;font-family:DejaVu Sans;-inkscape-font-specification:DejaVu Sans">Observer</svg:tspan></svg:text><svg:text xml:space="preserve" style="font-size:21.97740555px;font-style:normal;font-weight:400;text-align:center;line-height:125%;letter-spacing:0;word-spacing:0;text-anchor:middle;fill:#000;fill-opacity:1;stroke:none;font-family:Sans" transform="rotate(24.947 -29.892 -1441.351)"><svg:textPath xlink:href="#l" startOffset="50%" style="font-size:22px;font-style:normal;font-variant:normal;font-weight:400;font-stretch:normal;font-family:DejaVu Sans;-inkscape-font-specification:DejaVu Sans">Horizon</svg:textPath></svg:text><svg:text xml:space="preserve" style="font-size:22px;font-style:normal;font-variant:normal;font-weight:400;font-stretch:normal;text-align:center;line-height:125%;letter-spacing:0;word-spacing:0;text-anchor:middle;fill:#000;fill-opacity:1;stroke:none;font-family:DejaVu Serif;-inkscape-font-specification:DejaVu Serif" x="-108.479" y="230.224"><svg:tspan x="-108.479" y="230.224" style="font-style:normal;font-variant:normal;font-weight:400;font-stretch:normal;font-family:DejaVu Sans;-inkscape-font-specification:DejaVu Sans">N</svg:tspan></svg:text><svg:text xml:space="preserve" style="font-size:22px;font-style:normal;font-variant:normal;font-weight:400;font-stretch:normal;text-align:center;line-height:125%;letter-spacing:0;word-spacing:0;text-anchor:middle;fill:#000;fill-opacity:1;stroke:none;font-family:DejaVu Serif;-inkscape-font-specification:DejaVu Serif" transform="rotate(-40.133 -52.499 631.45)"><svg:textPath xlink:href="#m" startOffset="50%"><svg:tspan style="font-style:normal;font-variant:normal;font-weight:400;font-stretch:normal;font-family:DejaVu Sans;-inkscape-font-specification:DejaVu Sans">Azimuth</svg:tspan></svg:textPath></svg:text><svg:text xml:space="preserve" style="font-size:22px;font-style:normal;font-weight:400;text-align:center;line-height:125%;letter-spacing:0;word-spacing:0;text-anchor:middle;fill:#000;fill-opacity:1;stroke:none;font-family:Sans" transform="rotate(172.261 -47.71 190.523)"><svg:textPath xlink:href="#n" startOffset="50%"><svg:tspan style="font-size:22px;font-style:normal;font-variant:normal;font-weight:400;font-stretch:normal;font-family:DejaVu Sans;-inkscape-font-specification:DejaVu Sans">Altitude</svg:tspan></svg:textPath></svg:text></svg>