<svg width="634pt" height="98pt" viewBox="0 0 633.97 98" xmlns="http://www.w3.org/2000/svg"><g class="graph"><path fill="#fff" stroke="transparent" d="M0 98V0h633.97v98H0z"/><g class="node" transform="translate(4 94)"><path fill="none" stroke="#000" stroke-opacity=".6" d="m31.43-23.05 1.77-.1 1.76-.15 1.73-.19 1.7-.25 1.66-.29 1.62-.33 1.56-.39 1.5-.43 1.44-.47 1.37-.51 1.3-.55 1.22-.6 1.14-.63 1.05-.67.97-.7.87-.73.78-.76.69-.79.59-.82.5-.84.4-.86.31-.88.22-.9.12-.91.03-.92-.05-.93-.14-.94-.23-.94-.3-.94-.38-.94-.45-.94-.52-.93-.58-.92-.65-.91-.71-.9-.75-.88-.81-.86-.86-.84-.89-.82-.93-.79-.97-.76-1-.73-1.03-.7-1.05-.67-1.08-.63-1.09-.6-1.11-.55-1.13-.51-1.13-.47-1.15-.43-1.16-.39-1.16-.33-1.18-.29-1.17-.25-1.18-.19-1.18-.15-1.19-.1-1.18-.05h-1.19l-1.19.05-1.18.1-1.18.15-1.18.19-1.18.25-1.17.29-1.16.33-1.16.39-1.15.43-1.14.47-1.12.51-1.11.55-1.1.6-1.07.63-1.05.67-1.03.7-1 .73-.97.76-.93.79-.9.82-.85.84-.81.86-.76.88-.7.9-.65.91-.58.92-.53.93-.45.94-.38.94-.3.94-.22.94-.14.94-.06.93.04.92.12.91.22.9.3.88.41.86.5.84.59.82.69.79.78.76.87.73.97.7 1.05.67 1.14.63 1.22.6 1.29.55 1.37.51 1.44.47 1.51.43 1.56.39 1.62.33 1.66.29 1.69.25 1.74.19 1.75.15 1.78.1 1.79.05h1.79l1.79-.05z"/><text text-anchor="middle" x="28.74" y="-38.5" font-family="monospace" font-size="10">plant</text></g><g class="node" transform="translate(4 94)"><path fill="none" stroke="#000" stroke-opacity=".6" d="m128.41-46.05 1.96-.1 1.94-.15 1.91-.19 1.87-.25 1.83-.29 1.78-.33 1.72-.39 1.66-.43 1.58-.47 1.51-.51 1.43-.55 1.35-.6 1.25-.63 1.16-.67 1.06-.7.97-.73.86-.76.75-.79.66-.82.55-.84.44-.86.34-.88.24-.9.13-.91.04-.92-.06-.93-.15-.94-.25-.94-.33-.94-.42-.94-.5-.94-.57-.93-.65-.92-.71-.91-.78-.9-.83-.88-.89-.86-.94-.84-.99-.82-1.03-.79-1.06-.76-1.11-.73-1.13-.7-1.16-.67-1.18-.63-1.21-.6-1.22-.55-1.24-.51-1.25-.47-1.27-.43-1.27-.39-1.29-.33-1.29-.29-1.29-.25-1.3-.19-1.31-.15-1.3-.1-1.31-.05h-1.31l-1.3.05-1.31.1-1.3.15-1.3.19-1.3.25-1.29.29-1.28.33-1.27.39-1.27.43-1.25.47-1.24.51-1.23.55-1.2.6-1.19.63-1.16.67-1.13.7-1.1.73-1.07.76-1.03.79-.98.82-.94.84-.89.86-.84.88-.77.9-.72.91-.64.92-.58.93-.49.94-.42.94-.33.94-.25.94-.15.94-.06.93.03.92.14.91.24.9.34.88.44.86.55.84.65.82.76.79.86.76.96.73 1.07.7 1.16.67 1.25.63 1.34.6 1.43.55 1.51.51 1.59.47 1.66.43 1.72.39 1.78.33 1.83.29 1.87.25 1.91.19 1.94.15 1.95.1 1.97.05h1.97l1.97-.05z"/><text text-anchor="middle" x="125.46" y="-61.5" font-family="monospace" font-size="10">sensor</text></g><g class="edge" transform="translate(4 94)"><path fill="none" stroke="#000" d="M54.13-46.92c9.31-2.26 20.17-4.9 30.54-7.42"/><path fill="#fff" stroke="#000" d="m83.85-57.74 10.54 1.04-8.89 5.76-1.65-6.8z"/></g><g class="node" transform="translate(4 94)"><path fill="none" stroke="#000" stroke-opacity=".6" d="m224.86-46.05 1.77-.1 1.76-.15 1.73-.19 1.7-.25 1.66-.29 1.62-.33 1.56-.39 1.5-.43 1.44-.47 1.37-.51 1.3-.55 1.22-.6 1.14-.63 1.05-.67.96-.7.88-.73.78-.76.69-.79.59-.82.5-.84.4-.86.31-.88.22-.9.12-.91.03-.92-.05-.93-.14-.94-.23-.94-.3-.94-.38-.94-.45-.94-.52-.93-.58-.92-.65-.91-.71-.9-.75-.88-.81-.86-.86-.84-.89-.82-.93-.79-.97-.76-1-.73-1.03-.7-1.05-.67-1.08-.63-1.09-.6-1.11-.55-1.13-.51-1.13-.47-1.15-.43-1.16-.39-1.17-.33-1.17-.29-1.17-.25-1.18-.19-1.18-.15-1.19-.1-1.18-.05h-1.19l-1.19.05-1.18.1-1.18.15-1.18.19-1.18.25-1.17.29-1.16.33-1.16.39-1.15.43-1.14.47-1.12.51-1.11.55-1.1.6-1.07.63-1.05.67-1.03.7-1 .73-.97.76-.93.79-.9.82-.85.84-.81.86-.76.88-.7.9-.65.91-.59.92-.52.93-.45.94-.38.94-.3.94-.22.94-.14.94-.06.93.04.92.12.91.22.9.3.88.41.86.5.84.59.82.69.79.78.76.87.73.97.7 1.05.67 1.14.63 1.22.6 1.29.55 1.37.51 1.44.47 1.51.43 1.56.39 1.61.33 1.66.29 1.7.25 1.74.19 1.75.15 1.78.1 1.79.05h1.79l1.79-.05z"/><text text-anchor="middle" x="222.17" y="-61.5" font-family="monospace" font-size="10">mqtt</text></g><g class="edge" transform="translate(4 94)"><path fill="none" stroke="#000" d="M156.95-64h26.6"/><path fill="#fff" stroke="#000" d="m183.62-67.5 10 3.5-10 3.5v-7z"/></g><g class="node" transform="translate(4 94)"><path fill="none" stroke="#000" stroke-opacity=".6" d="m350.59-46.05 3.56-.1 3.53-.15 3.47-.19 3.4-.25 3.33-.29 3.24-.33 3.13-.39 3.01-.43 2.89-.47 2.75-.51 2.6-.55 2.44-.6 2.28-.63 2.11-.67 1.94-.7 1.75-.73 1.56-.76 1.38-.79 1.19-.82 1-.84.81-.86.61-.88.44-.9.24-.91.07-.92-.11-.93-.28-.94-.45-.94-.6-.94-.76-.94-.91-.94-1.04-.93-1.18-.92-1.29-.91-1.41-.9-1.52-.88-1.62-.86-1.71-.84-1.8-.82-1.87-.79-1.94-.76-2-.73-2.06-.7-2.11-.67-2.16-.63-2.19-.6-2.22-.55-2.26-.51-2.28-.47-2.3-.43-2.32-.39-2.34-.33-2.34-.29-2.36-.25-2.36-.19-2.37-.15-2.38-.1-2.37-.05h-2.38l-2.38.05-2.37.1-2.37.15-2.37.19-2.35.25-2.35.29-2.33.33-2.32.39-2.31.43-2.28.47-2.25.51-2.23.55-2.19.6-2.15.63-2.11.67-2.06.7-2.01.73-1.94.76-1.87.79-1.79.82-1.71.84-1.62.86-1.52.88-1.41.9-1.3.91-1.17.92-1.05.93-.9.94-.76.94-.61.94-.44.94-.29.94-.1.93.06.92.25.91.43.9.62.88.81.86.99.84 1.19.82 1.38.79 1.57.76 1.75.73 1.93.7 2.11.67 2.28.63 2.45.6 2.6.55 2.74.51 2.89.47 3.02.43 3.13.39 3.23.33 3.33.29 3.41.25 3.47.19 3.52.15 3.56.1 3.58.05h3.59l3.58-.05z"/><text text-anchor="middle" x="345.22" y="-61.5" font-family="monospace" font-size="10">homeassistant</text></g><g class="edge" transform="translate(4 94)"><path fill="none" stroke="#000" d="M250.64-64h27.43"/><path fill="#fff" stroke="#000" d="m278.17-67.5 10 3.5-10 3.5v-7z"/></g><g class="node" transform="translate(4 94)"><path fill="none" stroke="#000" stroke-opacity=".6" d="m482.67-54.05 2.42-.1 2.39-.15 2.36-.19 2.31-.25 2.27-.29 2.19-.33 2.13-.39 2.05-.43 1.96-.47 1.87-.51 1.77-.55 1.66-.6 1.55-.63 1.43-.67 1.32-.7 1.19-.73 1.06-.76.94-.79.81-.82.67-.84.55-.86.42-.88.3-.9.16-.91.05-.92-.07-.93-.2-.94-.3-.94-.41-.94-.52-.94-.61-.94-.71-.93-.8-.92-.88-.91-.96-.9-1.03-.88-1.1-.86-1.17-.84-1.22-.82-1.27-.79-1.32-.76-1.36-.73-1.4-.7-1.43-.67-1.46-.63-1.49-.6-1.52-.55-1.53-.51-1.55-.47-1.56-.43-1.58-.39-1.59-.33-1.59-.29-1.6-.25-1.61-.19-1.61-.15-1.62-.1-1.61-.05h-1.62l-1.61.05-1.61.1-1.62.15-1.6.19-1.6.25-1.6.29-1.59.33-1.57.39-1.57.43-1.55.47-1.53.51-1.51.55-1.49.6-1.47.63-1.43.67-1.4.7-1.36.73-1.32.76-1.27.79-1.22.82-1.16.84-1.1.86-1.04.88-.96.9-.88.91-.8.92-.7.93-.62.94-.52.94-.41.94-.3.94-.19.94-.08.93.05.92.17.91.29.9.42.88.55.86.68.84.81.82.93.79 1.07.76 1.19.73 1.31.7 1.43.67 1.55.63 1.67.6 1.76.55 1.87.51 1.96.47 2.05.43 2.13.39 2.2.33 2.26.29 2.31.25 2.36.19 2.4.15 2.42.1 2.43.05h2.44l2.44-.05z"/><text text-anchor="middle" x="479.01" y="-69.5" font-family="monospace" font-size="10">influxdb</text></g><g class="edge" transform="translate(4 94)"><path fill="none" stroke="#000" d="M399.44-67.23c9.97-.61 20.34-1.24 30.15-1.83"/><path fill="#fff" stroke="#000" d="m429.38-72.55 10.2 2.88-9.77 4.1-.43-6.98z"/></g><g class="node" transform="translate(4 94)"><path fill="none" stroke="#000" stroke-opacity=".6" d="m481.69-.05 1.78-.1 1.76-.15 1.73-.19 1.7-.25 1.66-.29 1.61-.33 1.57-.39 1.5-.43 1.44-.47 1.37-.51 1.3-.55 1.22-.6 1.14-.63 1.05-.67.96-.7.88-.73.78-.76.69-.79.59-.82.5-.84.4-.86.31-.88.21-.9.13-.91.03-.92-.05-.93-.14-.94-.23-.94-.3-.94-.38-.94-.45-.94-.52-.93-.59-.92-.64-.91-.71-.9-.76-.88-.8-.86-.86-.84-.89-.82-.94-.79-.96-.76-1-.73-1.03-.7-1.05-.67-1.08-.63-1.09-.6-1.11-.55-1.13-.51-1.14-.47-1.14-.43-1.16-.39-1.17-.33-1.17-.29-1.17-.25-1.18-.19-1.19-.15-1.18-.1-1.19-.05h-1.18l-1.19.05-1.18.1-1.18.15-1.18.19-1.18.25-1.17.29-1.16.33-1.16.39-1.15.43-1.14.47-1.12.51-1.11.55-1.1.6-1.07.63-1.06.67-1.02.7-1 .73-.97.76-.93.79-.9.82-.85.84-.81.86-.76.88-.7.9-.65.91-.59.92-.52.93-.45.94-.38.94-.3.94-.22.94-.14.94-.06.93.04.92.12.91.21.9.31.88.41.86.49.84.6.82.68.79.79.76.87.73.96.7 1.06.67 1.13.63 1.22.6 1.3.55 1.37.51 1.44.47 1.51.43 1.56.39 1.61.33 1.66.29 1.7.25 1.74.19 1.75.15 1.78.1 1.79.05h1.79l1.78-.05z"/><text text-anchor="middle" x="479.01" y="-15.5" font-family="monospace" font-size="10">valve</text></g><g class="edge" transform="translate(4 94)"><path fill="none" stroke="#000" d="M386.48-49.95c19.07 6.66 41.54 14.5 59.44 20.75"/><path fill="#fff" stroke="#000" d="m447.32-32.42 8.29 6.6-10.6.01 2.31-6.61z"/></g><g class="node" transform="translate(4 94)"><path fill="none" stroke="#000" stroke-opacity=".6" d="m593.57-54.05 2.2-.1 2.18-.15 2.15-.19 2.11-.25 2.06-.29 2-.33 1.94-.39 1.87-.43 1.78-.47 1.7-.51 1.61-.55 1.52-.6 1.41-.63 1.3-.67 1.2-.7 1.08-.73.97-.76.86-.79.73-.82.62-.84.5-.86.38-.88.27-.9.15-.91.05-.92-.07-.93-.18-.94-.27-.94-.38-.94-.47-.94-.56-.94-.64-.93-.73-.92-.8-.91-.88-.9-.94-.88-1-.86-1.06-.84-1.11-.82-1.16-.79-1.2-.76-1.24-.73-1.28-.7-1.3-.67-1.33-.63-1.36-.6-1.38-.55-1.4-.51-1.41-.47-1.42-.43-1.44-.39-1.44-.33-1.46-.29-1.45-.25-1.47-.19-1.47-.15-1.46-.1-1.48-.05h-1.47l-1.47.05-1.47.1-1.46.15-1.47.19-1.46.25-1.45.29-1.45.33-1.43.39-1.43.43-1.41.47-1.39.51-1.38.55-1.36.6-1.33.63-1.31.67-1.27.7-1.24.73-1.2.76-1.16.79-1.11.82-1.06.84-1 .86-.95.88-.87.9-.8.91-.73.92-.64.93-.56.94-.47.94-.38.94-.28.94-.17.94-.07.93.04.92.16.91.26.9.39.88.5.86.61.84.74.82.85.79.97.76 1.09.73 1.19.7 1.31.67 1.41.63 1.51.6 1.61.55 1.7.51 1.79.47 1.87.43 1.94.39 2 .33 2.06.29 2.11.25 2.15.19 2.18.15 2.2.1 2.22.05h2.22l2.22-.05z"/><text text-anchor="middle" x="590.24" y="-69.5" font-family="monospace" font-size="10">grafana</text></g><g class="edge" transform="translate(4 94)"><path fill="none" stroke="#000" d="M517.91-72h26.63"/><path fill="#fff" stroke="#000" d="m544.7-75.5 10 3.5-10 3.5v-7z"/></g><g class="edge" transform="translate(4 94)"><path fill="none" stroke="#000" d="M450.97-19.21C388.17-22.05 227.62-29.48 93.49-37c-8.35-.47-17.3-1.01-25.78-1.53"/><path fill="#fff" stroke="#000" d="m67.42-35.05-9.76-4.12 10.2-2.86-.44 6.98z"/></g></g></svg>