<svg width="655pt" height="92pt" viewBox="0 0 655.31 91.54" xmlns="http://www.w3.org/2000/svg"><g class="graph"><g class="node" transform="translate(4 87.54)"><path fill="none" stroke="#fff" stroke-opacity=".6" d="m86.39-51.27 4.85-.09 4.8-.13 4.73-.18 4.64-.21 4.53-.26 4.4-.3 4.27-.35 4.1-.38 3.94-.42 3.74-.45 3.54-.5 3.33-.53 3.11-.56 2.87-.59 2.63-.63 2.39-.65 2.13-.68 1.88-.7 1.62-.73 1.35-.75 1.11-.77.84-.78.59-.8.33-.81.09-.82-.15-.83-.38-.84-.61-.84-.82-.84-1.04-.84-1.23-.83-1.42-.83-1.6-.83-1.77-.81-1.92-.8-2.07-.78-2.2-.77-2.33-.75-2.45-.72-2.55-.71-2.64-.68-2.73-.65-2.8-.62-2.88-.6-2.93-.56-2.99-.53-3.03-.49-3.07-.46-3.11-.42-3.13-.38-3.16-.34-3.18-.31-3.2-.26-3.21-.21-3.22-.18-3.22-.13-3.24-.09-3.23-.04h-3.24l-3.24.04-3.23.09-3.23.13-3.22.18-3.21.21-3.2.26-3.17.31-3.16.34-3.14.38-3.11.42-3.07.46-3.03.49-2.98.53-2.94.56-2.87.6-2.81.62-2.72.65-2.65.68-2.55.71-2.44.72-2.33.75-2.21.77-2.07.78-1.92.8-1.77.81-1.59.83-1.43.83-1.23.83-1.03.84-.83.84-.61.84-.38.84-.15.83.09.82.34.81.59.8.84.78 1.1.77 1.36.75 1.62.73 1.88.7 2.13.68 2.38.65 2.64.63 2.87.59 3.11.56 3.32.53 3.55.5 3.74.45 3.93.42 4.11.38 4.26.35 4.41.3 4.53.26 4.64.21 4.73.18 4.8.13 4.84.09 4.88.04h4.89l4.88-.04z"/><text text-anchor="middle" x="79.07" y="-63.57" font-family="monospace" font-size="14" fill="#fff">water_input</text></g><g class="node" transform="translate(4 87.54)"><path fill="none" stroke="#fff" stroke-opacity=".6" d="m324.2-51.27 4.85-.09 4.8-.13 4.73-.18 4.64-.21 4.53-.26 4.4-.3 4.27-.35 4.1-.38 3.94-.42 3.74-.45 3.54-.5 3.33-.53 3.11-.56 2.87-.59 2.63-.63 2.39-.65 2.13-.68 1.88-.7 1.62-.73 1.36-.75 1.1-.77.84-.78.59-.8.33-.81.09-.82-.15-.83-.38-.84-.61-.84-.82-.84-1.04-.84-1.23-.83-1.42-.83-1.6-.83-1.77-.81-1.92-.8-2.07-.78-2.2-.77-2.33-.75-2.45-.72-2.55-.71-2.64-.68-2.73-.65-2.8-.62-2.88-.6-2.93-.56-2.99-.53-3.03-.49-3.07-.46-3.11-.42-3.13-.38-3.16-.34-3.18-.31-3.2-.26-3.21-.21-3.22-.18-3.22-.13-3.24-.09-3.23-.04h-3.24l-3.24.04-3.23.09-3.23.13-3.22.18-3.21.21-3.19.26-3.18.31-3.16.34-3.14.38-3.1.42-3.08.46-3.03.49-2.98.53-2.94.56-2.87.6-2.81.62-2.72.65-2.65.68-2.55.71-2.44.72-2.33.75-2.21.77-2.07.78-1.92.8-1.77.81-1.59.83-1.42.83-1.24.83-1.03.84-.83.84-.6.84-.39.84-.15.83.09.82.34.81.59.8.84.78 1.1.77 1.36.75 1.62.73 1.88.7 2.13.68 2.38.65 2.64.63 2.87.59 3.11.56 3.32.53 3.55.5 3.74.45 3.93.42 4.11.38 4.26.35 4.41.3 4.53.26 4.64.21 4.73.18 4.8.13 4.85.09 4.87.04h4.89l4.88-.04z"/><text text-anchor="middle" x="316.88" y="-63.57" font-family="monospace" font-size="14" fill="#fff">flow_sensor</text></g><g class="edge" transform="translate(4 87.54)"><path fill="none" stroke="#fff" d="M156.95-67.27h72.14"/><path fill="transparent" stroke="#fff" d="m229.1-70.77 10 3.5-10 3.5v-7z"/></g><g class="node" transform="translate(4 87.54)"><path fill="none" stroke="#fff" stroke-opacity=".6" d="m569.4-25.27 5.25-.09 5.19-.13 5.12-.18 5.02-.21 4.91-.26 4.77-.3 4.62-.35 4.45-.38 4.25-.42 4.06-.45 3.83-.5 3.61-.53 3.36-.56 3.11-.59 2.85-.63 2.59-.65 2.31-.68 2.03-.7 1.75-.73 1.47-.75 1.19-.77.92-.78.63-.8.37-.81.1-.82-.17-.83-.41-.84-.66-.84-.89-.84-1.12-.84-1.34-.83-1.54-.83-1.73-.83-1.91-.81-2.08-.8-2.24-.78-2.39-.77-2.52-.75-2.65-.72-2.76-.71-2.86-.68-2.96-.65-3.04-.62-3.11-.6-3.17-.56-3.24-.53-3.28-.49-3.33-.46-3.36-.42-3.39-.38-3.42-.34-3.45-.31-3.46-.26-3.47-.21-3.49-.18-3.5-.13-3.5-.09-3.5-.04h-3.51l-3.5.04-3.5.09-3.5.13-3.48.18-3.48.21-3.46.26-3.44.31-3.43.34-3.39.38-3.36.42-3.33.46-3.28.49-3.24.53-3.17.56-3.11.6-3.04.62-2.96.65-2.86.68-2.76.71-2.64.72-2.53.75-2.38.77-2.25.78-2.08.8-1.91.81-1.73.83-1.54.83-1.34.83-1.11.84-.9.84-.66.84-.41.84-.16.83.09.82.37.81.63.8.92.78 1.19.77 1.47.75 1.75.73 2.04.7 2.31.68 2.58.65 2.85.63 3.11.59 3.36.56 3.61.53 3.83.5 4.06.45 4.25.42 4.45.38 4.62.35 4.77.3 4.91.26 5.02.21 5.12.18 5.2.13 5.25.09 5.28.04h5.29l5.29-.04z"/><text text-anchor="middle" x="561.47" y="-37.57" font-family="monospace" font-size="14" fill="#fff">water_output</text></g><g class="edge" transform="translate(4 87.54)"><path fill="none" stroke="#fff" d="M391.32-59.4c28.94 3.1 62.21 6.67 91.54 9.81"/><path fill="transparent" stroke="#fff" d="m483.49-53.04 9.57 4.55-10.31 2.41.74-6.96z"/></g><g class="node" transform="translate(4 87.54)"><path fill="none" stroke="#fff" stroke-opacity=".6" d="m328.26-.27 7.53-.09 7.46-.13 7.35-.18 7.21-.21 7.04-.26 6.85-.3 6.63-.35 6.38-.38 6.11-.42 5.82-.45 5.5-.5 5.18-.53 4.82-.56 4.47-.59 4.09-.63 3.71-.65 3.31-.68 2.92-.7 2.52-.73 2.11-.75 1.71-.77 1.31-.78.91-.8.52-.81.14-.82-.23-.83-.59-.84-.95-.84-1.28-.84-1.61-.84-1.91-.83-2.21-.83-2.49-.83-2.74-.81-2.99-.8-3.22-.78-3.42-.77-3.63-.75-3.79-.72-3.96-.71-4.11-.68-4.24-.65-4.36-.62-4.47-.6-4.56-.56-4.64-.53-4.71-.49-4.77-.46-4.83-.42-4.87-.38-4.91-.34-4.94-.31-4.97-.26-4.99-.21-5-.18-5.02-.13-5.03-.09-5.03-.04h-5.03l-5.03.04-5.02.09-5.02.13-5 .18-4.99.21-4.97.26-4.94.31-4.91.34-4.87.38-4.83.42-4.77.46-4.72.49-4.64.53-4.56.56-4.46.6-4.36.62-4.24.65-4.11.68-3.96.71-3.8.72-3.62.75-3.43.77-3.21.78-2.99.8-2.75.81-2.48.83-2.21.83-1.92.83-1.6.84-1.29.84-.94.84-.6.84-.23.83.14.82.53.81.91.8 1.31.78 1.71.77 2.11.75 2.52.73 2.91.7 3.32.68 3.71.65 4.09.63 4.46.59 4.83.56 5.17.53 5.51.5 5.82.45 6.11.42 6.38.38 6.62.35 6.85.3 7.05.26 7.21.21 7.35.18 7.45.13 7.54.09 7.58.04h7.6l7.58-.04z"/><text text-anchor="middle" x="316.88" y="-12.57" font-family="monospace" font-size="14" fill="#fff">fertilizer_storage</text></g><g class="edge" transform="translate(4 87.54)"><path fill="none" stroke="#fff" d="M405.46-25.29c21.44-2.21 44.41-4.58 65.92-6.8"/><path fill="transparent" stroke="#fff" d="m471.17-35.58 10.3 2.45-9.58 4.51-.72-6.96z"/></g></g></svg>