<svg width="516" height="187pt" viewBox="0 0 386.58 187" xmlns="http://www.w3.org/2000/svg"><g class="graph"><path fill="#fff" stroke="transparent" d="M0 187V0h386.58v187H0z"/><g class="cluster" transform="translate(4 183)"><path fill="#fff" stroke="#000" stroke-dasharray="1,5" d="M8-100v-71h362.58v71H8z"/><text text-anchor="middle" x="189.29" y="-159" font-family="monospace" font-size="10">Main Flow</text></g><g class="node" transform="translate(4 183)"><path fill="none" stroke="#000" stroke-opacity=".6" d="m59.15-108.05 2.42-.1 2.39-.15 2.36-.19 2.32-.25 2.26-.29 2.2-.33 2.12-.39 2.05-.43 1.96-.47 1.87-.51 1.77-.55 1.66-.6 1.55-.63 1.44-.67 1.31-.7 1.19-.73 1.06-.76.94-.79.81-.82.68-.84.55-.86.42-.88.29-.9.17-.91.04-.92-.07-.93-.19-.94-.31-.94-.41-.94-.51-.94-.62-.94-.71-.93-.8-.92-.88-.91-.96-.9-1.03-.88-1.1-.86-1.16-.84-1.22-.82-1.28-.79-1.31-.76-1.37-.73-1.4-.7-1.43-.67-1.46-.63-1.49-.6-1.52-.55-1.53-.51-1.55-.47-1.56-.43-1.58-.39-1.59-.33-1.59-.29-1.6-.25-1.61-.19-1.61-.15-1.61-.1-1.62-.05h-1.61l-1.62.05-1.61.1-1.61.15-1.61.19-1.6.25-1.6.29-1.58.33-1.58.39-1.56.43-1.55.47-1.54.51-1.51.55-1.49.6-1.46.63-1.44.67-1.4.7-1.36.73-1.32.76-1.27.79-1.22.82-1.16.84-1.1.86-1.03.88-.96.9-.89.91-.79.92-.71.93-.62.94-.51.94-.41.94-.31.94-.19.94-.07.93.04.92.17.91.29.9.42.88.55.86.68.84.81.82.93.79 1.07.76 1.19.73 1.31.7 1.44.67 1.55.63 1.66.6 1.77.55 1.86.51 1.96.47 2.05.43 2.13.39 2.2.33 2.26.29 2.32.25 2.36.19 2.39.15 2.42.1 2.43.05h2.44l2.44-.05z"/><text text-anchor="middle" x="55.49" y="-123.5" font-family="monospace" font-size="10">water_in</text></g><g class="node" transform="translate(4 183)"><path fill="none" stroke="#000" stroke-opacity=".6" d="m193.97-108.05 3.09-.1 3.07-.15 3.02-.19 2.96-.25 2.9-.29 2.82-.33 2.72-.39 2.62-.43 2.51-.47 2.4-.51 2.26-.55 2.13-.6 1.98-.63 1.84-.67 1.68-.7 1.52-.73 1.36-.76 1.2-.79 1.04-.82.87-.84.7-.86.54-.88.37-.9.22-.91.06-.92-.1-.93-.24-.94-.39-.94-.53-.94-.66-.94-.79-.94-.91-.93-1.02-.92-1.13-.91-1.22-.9-1.33-.88-1.41-.86-1.48-.84-1.57-.82-1.62-.79-1.69-.76-1.75-.73-1.79-.7-1.83-.67-1.88-.63-1.91-.6-1.93-.55-1.96-.51-1.99-.47-2-.43-2.02-.39-2.03-.33-2.04-.29-2.05-.25-2.06-.19-2.06-.15-2.07-.1-2.07-.05h-2.07l-2.06.05-2.07.1-2.06.15-2.06.19-2.05.25-2.04.29-2.03.33-2.02.39-2 .43-1.99.47-1.96.51-1.94.55-1.91.6-1.87.63-1.83.67-1.8.7-1.74.73-1.69.76-1.63.79-1.56.82-1.49.84-1.41.86-1.32.88-1.23.9-1.13.91-1.02.92-.9.93-.79.94-.66.94-.53.94-.39.94-.24.94-.1.93.06.92.21.91.38.9.54.88.7.86.87.84 1.03.82 1.2.79 1.37.76 1.52.73 1.68.7 1.84.67 1.98.63 2.13.6 2.26.55 2.39.51 2.51.47 2.63.43 2.72.39 2.82.33 2.89.29 2.97.25 3.02.19 3.06.15 3.1.1 3.12.05h3.12l3.12-.05z"/><text text-anchor="middle" x="189.29" y="-123.5" font-family="monospace" font-size="10">flow_sensor</text></g><g class="edge" transform="translate(4 183)"><path fill="none" stroke="#2196f3" d="M94.26-126h35.07"/><path fill="#fff" stroke="#2196f3" d="m129.68-129.5 10 3.5-10 3.5v-7z"/></g><g class="node" transform="translate(4 183)"><path fill="none" stroke="#000" stroke-opacity=".6" d="m323.3-108.05 2.64-.1 2.61-.15 2.57-.19 2.52-.25 2.46-.29 2.4-.33 2.31-.39 2.23-.43 2.14-.47 2.04-.51 1.92-.55 1.81-.6 1.69-.63 1.56-.67 1.43-.7 1.3-.73 1.16-.76 1.02-.79.88-.82.74-.84.59-.86.46-.88.32-.9.18-.91.05-.92-.08-.93-.21-.94-.33-.94-.44-.94-.57-.94-.67-.94-.77-.93-.87-.92-.96-.91-1.04-.9-1.13-.88-1.2-.86-1.26-.84-1.33-.82-1.39-.79-1.43-.76-1.49-.73-1.52-.7-1.56-.67-1.6-.63-1.62-.6-1.65-.55-1.67-.51-1.69-.47-1.7-.43-1.72-.39-1.73-.33-1.73-.29-1.75-.25-1.75-.19-1.75-.15-1.76-.1-1.76-.05h-1.76l-1.76.05-1.75.1-1.76.15-1.75.19-1.74.25-1.74.29-1.73.33-1.72.39-1.7.43-1.69.47-1.67.51-1.65.55-1.62.6-1.59.63-1.56.67-1.53.7-1.48.73-1.44.76-1.38.79-1.33.82-1.27.84-1.2.86-1.12.88-1.05.9-.96.91-.87.92-.77.93-.67.94-.56.94-.45.94-.33.94-.21.94-.08.93.05.92.18.91.32.9.46.88.6.86.74.84.88.82 1.02.79 1.16.76 1.29.73 1.43.7 1.56.67 1.69.63 1.81.6 1.93.55 2.03.51 2.14.47 2.23.43 2.32.39 2.39.33 2.47.29 2.52.25 2.57.19 2.61.15 2.63.1 2.65.05h2.66l2.65-.05z"/><text text-anchor="middle" x="319.32" y="-123.5" font-family="monospace" font-size="10">water_out</text></g><g class="edge" transform="translate(4 183)"><path fill="none" stroke="#2196f3" d="M239.06-126h27.62"/><path fill="#fff" stroke="#2196f3" d="m266.79-129.5 10 3.5-10 3.5v-7z"/></g><g class="node" transform="translate(4 183)"><path fill="none" stroke="#000" stroke-opacity=".6" d="m59.85-.05 2.88-.1 2.85-.15 2.81-.19 2.76-.25 2.69-.29 2.62-.33 2.53-.39 2.44-.43 2.34-.47L86-3.16l2.1-.55 1.98-.6 1.85-.63 1.7-.67 1.57-.7 1.42-.73 1.26-.76L99-8.59l.96-.82.81-.84.65-.86.5-.88.35-.9.2-.91.06-.92-.09-.93-.23-.94-.36-.94-.49-.94-.62-.94-.73-.94-.84-.93-.95-.92-1.05-.91-1.15-.9-1.23-.88-1.31-.86-1.38-.84-1.45-.82-1.52-.79-1.57-.76-1.62-.73-1.67-.7-1.71-.67-1.74-.63-1.77-.6-1.81-.55-1.82-.51-1.85-.47-1.86-.43-1.88-.39-1.89-.33-1.9-.29-1.91-.25-1.91-.19-1.92-.15-1.92-.1-1.92-.05h-1.93l-1.92.05-1.92.1-1.92.15-1.92.19-1.9.25-1.9.29-1.89.33-1.88.39-1.86.43-1.85.47-1.83.51-1.8.55-1.77.6-1.75.63-1.7.67-1.67.7-1.62.73-1.57.76-1.52.79-1.45.82-1.39.84-1.31.86-1.23.88-1.14.9-1.05.91-.95.92-.84.93-.74.94-.61.94-.49.94-.36.94-.23.94-.09.93.05.92.2.91.35.9.5.88.66.86.81.84.96.82 1.11.79 1.27.76 1.42.73 1.56.7 1.71.67 1.85.63 1.98.6 2.1.55 2.23.51 2.33.47 2.44.43 2.54.39 2.62.33 2.69.29 2.76.25 2.81.19 2.85.15 2.88.1 2.9.05h2.91l2.9-.05z"/><text text-anchor="middle" x="55.49" y="-15.5" font-family="monospace" font-size="10">fertilizer</text></g><g class="node" transform="translate(4 183)"><path fill="none" stroke="#000" stroke-opacity=".6" d="m191.97-27.05 1.78-.1 1.75-.15 1.74-.19 1.7-.25 1.66-.29 1.61-.33 1.56-.39 1.51-.43 1.44-.47 1.37-.51 1.3-.55 1.22-.6 1.13-.63 1.06-.67.96-.7.87-.73.79-.76.68-.79.6-.82.49-.84.41-.86.31-.88.21-.9.12-.91.04-.92-.06-.93-.14-.94-.22-.94-.3-.94-.38-.94-.45-.94-.52-.93-.59-.92-.65-.91-.7-.9-.76-.88-.81-.86-.85-.84-.9-.82-.93-.79-.97-.76-1-.73-1.02-.7-1.06-.67-1.07-.63-1.1-.6-1.11-.55-1.12-.51-1.14-.47-1.15-.43-1.15-.39-1.17-.33-1.17-.29-1.18-.25-1.18-.19-1.18-.15-1.18-.1-1.19-.05h-1.18l-1.19.05-1.18.1-1.19.15-1.18.19-1.17.25-1.17.29-1.17.33-1.16.39-1.14.43-1.14.47-1.13.51-1.11.55-1.09.6-1.08.63-1.05.67-1.03.7-1 .73-.96.76-.94.79-.89.82-.86.84-.8.86-.76.88-.71.9-.64.91-.59.92-.52.93-.45.94-.38.94-.3.94-.23.94-.14.94-.05.93.03.92.13.91.21.9.31.88.4.86.5.84.59.82.69.79.78.76.88.73.96.7 1.05.67 1.14.63 1.22.6 1.3.55 1.37.51 1.44.47 1.5.43 1.57.39 1.61.33 1.66.29 1.7.25 1.73.19 1.76.15 1.78.1 1.78.05h1.79l1.79-.05z"/><text text-anchor="middle" x="189.29" y="-42.5" font-family="monospace" font-size="10">pump</text></g><g class="edge" transform="translate(4 183)"><path fill="none" stroke="#6d6" d="M93.91-25.66c17.68-3.63 38.76-7.95 56.5-11.58"/><path fill="#fff" stroke="#6d6" d="m149.92-40.71 10.5 1.42-9.09 5.43-1.41-6.85z"/></g><g class="edge" transform="translate(4 183)"><path fill="none" stroke="#6d6" d="M208.63-56.61c19.96-12.62 52.26-33.06 76.65-48.49"/><path fill="#fff" stroke="#6d6" d="m283.56-108.15 10.32-2.39-6.58 8.31-3.74-5.92z"/></g><g class="node" transform="translate(4 183)"><path fill="none" stroke="#000" stroke-opacity=".6" d="m59.85-54.05 2.88-.1 2.85-.15 2.81-.19 2.76-.25 2.69-.29 2.62-.33 2.53-.39 2.44-.43 2.34-.47 2.23-.51 2.1-.55 1.98-.6 1.85-.63 1.7-.67 1.57-.7 1.42-.73 1.26-.76 1.12-.79.96-.82.81-.84.65-.86.5-.88.35-.9.2-.91.06-.92-.09-.93-.23-.94-.36-.94-.49-.94-.62-.94-.73-.94-.84-.93-.95-.92-1.05-.91-1.15-.9-1.23-.88-1.31-.86-1.38-.84-1.45-.82-1.52-.79-1.57-.76-1.62-.73-1.67-.7-1.71-.67-1.74-.63-1.77-.6-1.81-.55-1.82-.51-1.85-.47-1.86-.43-1.88-.39-1.89-.33-1.9-.29-1.91-.25-1.91-.19-1.92-.15-1.92-.1-1.92-.05h-1.93l-1.92.05-1.92.1-1.92.15-1.92.19-1.9.25-1.9.29-1.89.33-1.88.39-1.86.43-1.85.47-1.83.51-1.8.55-1.77.6-1.75.63-1.7.67-1.67.7-1.62.73-1.57.76-1.52.79-1.45.82-1.39.84-1.31.86-1.23.88-1.14.9-1.05.91-.95.92-.84.93-.74.94-.61.94-.49.94-.36.94-.23.94-.09.93.05.92.2.91.35.9.5.88.66.86.81.84.96.82 1.11.79 1.27.76 1.42.73 1.56.7 1.71.67 1.85.63 1.98.6 2.1.55 2.23.51 2.33.47 2.44.43 2.54.39 2.62.33 2.69.29 2.76.25 2.81.19 2.85.15 2.88.1 2.9.05h2.91l2.9-.05z"/><text text-anchor="middle" x="55.49" y="-69.5" font-family="monospace" font-size="10">controller</text></g><g class="edge" transform="translate(4 183)"><path fill="none" stroke="#ff9800" stroke-dasharray="5,2" d="M85.74-83.98c20.02-8.21 46.66-19.12 67.77-27.77"/></g><g class="edge" transform="translate(4 183)"><path fill="none" stroke="#ff9800" stroke-dasharray="5,2" d="M100.01-63.08c21 4.3 45.43 9.3 63.26 12.95"/></g></g></svg>