<svg width="494pt" height="187pt" viewBox="0 0 494.04 187" xmlns="http://www.w3.org/2000/svg"><g class="graph"><path fill="#fff" stroke="transparent" d="M0 187V0h494.04v187H0z"/><g class="cluster" transform="translate(4 183)"><path fill="#fff" stroke="#000" stroke-dasharray="1,5" d="M8-46v-125h470.04v125H8z"/><text text-anchor="middle" x="243.02" y="-159" font-family="monospace" font-size="10">Main Flow</text></g><g class="node" transform="translate(4 183)"><path fill="none" stroke="#000" stroke-opacity=".6" d="m67.37-54.05 2.88-.1 2.85-.15 2.81-.19 2.76-.25 2.69-.29 2.62-.33 2.54-.39 2.44-.43 2.33-.47 2.23-.51 2.1-.55 1.98-.6 1.85-.63 1.71-.67 1.56-.7 1.42-.73 1.27-.76 1.11-.79.96-.82.81-.84.66-.86.5-.88.35-.9.2-.91.05-.92-.09-.93-.23-.94-.36-.94-.49-.94-.61-.94-.74-.94-.84-.93-.95-.92-1.05-.91-1.14-.9-1.23-.88-1.31-.86-1.39-.84-1.45-.82-1.52-.79-1.57-.76-1.62-.73-1.67-.7-1.7-.67-1.75-.63-1.77-.6-1.8-.55-1.83-.51-1.85-.47-1.86-.43-1.88-.39-1.89-.33-1.9-.29-1.9-.25-1.92-.19-1.92-.15-1.92-.1-1.92-.05h-1.93l-1.92.05-1.92.1-1.92.15-1.91.19-1.91.25-1.9.29-1.89.33-1.88.39-1.86.43-1.85.47-1.82.51-1.81.55-1.77.6-1.74.63-1.71.67-1.67.7-1.62.73-1.57.76-1.52.79-1.45.82-1.38.84-1.31.86-1.23.88-1.15.9-1.05.91-.95.92-.84.93-.73.94-.62.94-.49.94-.36.94-.23.94-.09.93.06.92.2.91.35.9.5.88.65.86.81.84.96.82 1.12.79 1.26.76 1.42.73 1.57.7 1.7.67 1.85.63 1.98.6 2.1.55 2.23.51 2.34.47 2.44.43 2.53.39 2.62.33 2.69.29 2.76.25 2.81.19 2.85.15 2.88.1 2.9.05h2.91l2.9-.05z"/><text text-anchor="middle" x="63.02" y="-69.5" font-family="monospace" font-size="10">pot_outlet</text></g><g class="node" transform="translate(4 183)"><path fill="none" stroke="#000" stroke-opacity=".6" d="m197.03-54.05 2.64-.1 2.6-.15 2.57-.19 2.53-.25 2.46-.29 2.39-.33 2.32-.39 2.23-.43 2.14-.47 2.03-.51 1.93-.55 1.81-.6 1.69-.63 1.56-.67 1.43-.7 1.3-.73 1.16-.76 1.02-.79.88-.82.73-.84.6-.86.46-.88.32-.9.18-.91.05-.92-.08-.93-.21-.94-.33-.94-.45-.94-.56-.94-.67-.94-.77-.93-.87-.92-.96-.91-1.05-.9-1.12-.88-1.2-.86-1.26-.84-1.33-.82-1.39-.79-1.44-.76-1.48-.73-1.52-.7-1.56-.67-1.6-.63-1.62-.6-1.65-.55-1.67-.51-1.69-.47-1.7-.43-1.72-.39-1.73-.33-1.73-.29-1.75-.25-1.75-.19-1.75-.15-1.76-.1-1.76-.05h-1.76l-1.76.05-1.76.1-1.75.15-1.75.19-1.75.25-1.73.29-1.73.33-1.72.39-1.7.43-1.69.47-1.67.51-1.65.55-1.62.6-1.6.63-1.56.67-1.52.7-1.48.73-1.44.76-1.39.79-1.33.82-1.26.84-1.2.86-1.12.88-1.05.9-.96.91-.87.92-.77.93-.67.94-.56.94-.45.94-.33.94-.21.94-.08.93.05.92.18.91.32.9.46.88.6.86.73.84.88.82 1.02.79 1.16.76 1.3.73 1.43.7 1.56.67 1.69.63 1.81.6 1.93.55 2.03.51 2.14.47 2.23.43 2.32.39 2.39.33 2.46.29 2.53.25 2.57.19 2.6.15 2.64.1 2.65.05h2.66l2.65-.05z"/><text text-anchor="middle" x="193.05" y="-69.5" font-family="monospace" font-size="10">container</text></g><g class="edge" transform="translate(4 183)"><path fill="none" stroke="#2196f3" d="M109.16-72h31.38"/><path fill="#fff" stroke="#2196f3" d="m140.74-75.5 10 3.5-10 3.5v-7z"/></g><g class="node" transform="translate(4 183)"><path fill="none" stroke="#000" stroke-opacity=".6" d="m310.72-54.05 1.78-.1 1.75-.15 1.74-.19 1.7-.25 1.66-.29 1.61-.33 1.56-.39 1.51-.43 1.44-.47 1.37-.51 1.3-.55 1.22-.6 1.13-.63 1.06-.67.96-.7.87-.73.78-.76.69-.79.6-.82.49-.84.41-.86.31-.88.21-.9.12-.91.04-.92-.06-.93-.14-.94-.22-.94-.3-.94-.38-.94-.45-.94-.52-.93-.59-.92-.65-.91-.7-.9-.76-.88-.81-.86-.85-.84-.9-.82-.93-.79-.97-.76-1-.73-1.03-.7-1.05-.67-1.07-.63-1.1-.6-1.11-.55-1.12-.51-1.14-.47-1.15-.43-1.16-.39-1.16-.33-1.17-.29-1.18-.25-1.18-.19-1.18-.15-1.18-.1-1.19-.05h-1.18l-1.19.05-1.19.1-1.18.15-1.18.19-1.17.25-1.17.29-1.17.33-1.16.39-1.14.43-1.14.47-1.13.51-1.11.55-1.09.6-1.08.63-1.05.67-1.03.7-1 .73-.96.76-.94.79-.89.82-.86.84-.8.86-.76.88-.71.9-.64.91-.59.92-.52.93-.45.94-.38.94-.3.94-.23.94-.14.94-.05.93.03.92.13.91.21.9.31.88.4.86.5.84.59.82.69.79.78.76.88.73.96.7 1.05.67 1.14.63 1.22.6 1.3.55 1.37.51 1.44.47 1.5.43 1.57.39 1.61.33 1.66.29 1.7.25 1.73.19 1.76.15 1.78.1 1.78.05h1.79l1.79-.05z"/><text text-anchor="middle" x="308.04" y="-69.5" font-family="monospace" font-size="10">pump</text></g><g class="edge" transform="translate(4 183)"><path fill="none" stroke="#2196f3" d="M235.48-72h33.84"/><path fill="#fff" stroke="#2196f3" d="m269.35-75.5 10 3.5-10 3.5v-7z"/></g><g class="node" transform="translate(4 183)"><path fill="none" stroke="#000" stroke-opacity=".6" d="m310.99-108.05 1.96-.1 1.94-.15 1.91-.19 1.87-.25 1.83-.29 1.78-.33 1.72-.39 1.66-.43 1.58-.47 1.51-.51 1.43-.55 1.35-.6 1.25-.63 1.16-.67 1.06-.7.97-.73.86-.76.75-.79.66-.82.55-.84.44-.86.34-.88.24-.9.13-.91.04-.92-.06-.93-.15-.94-.25-.94-.33-.94-.42-.94-.5-.94-.57-.93-.65-.92-.71-.91-.78-.9-.83-.88-.89-.86-.94-.84-.99-.82-1.03-.79-1.06-.76-1.11-.73-1.13-.7-1.16-.67-1.18-.63-1.21-.6-1.22-.55-1.24-.51-1.25-.47-1.27-.43-1.28-.39-1.28-.33-1.29-.29-1.29-.25-1.3-.19-1.31-.15-1.3-.1-1.31-.05h-1.31l-1.3.05-1.31.1-1.3.15-1.3.19-1.3.25-1.29.29-1.28.33-1.27.39-1.27.43-1.25.47-1.24.51-1.23.55-1.2.6-1.19.63-1.16.67-1.13.7-1.1.73-1.07.76-1.03.79-.98.82-.94.84-.89.86-.84.88-.77.9-.72.91-.64.92-.58.93-.49.94-.42.94-.33.94-.25.94-.15.94-.06.93.03.92.14.91.23.9.35.88.44.86.55.84.65.82.76.79.86.76.96.73 1.07.7 1.16.67 1.25.63 1.34.6 1.43.55 1.51.51 1.59.47 1.66.43 1.72.39 1.78.33 1.83.29 1.87.25 1.91.19 1.94.15 1.95.1 1.97.05h1.97l1.97-.05z"/><text text-anchor="middle" x="308.04" y="-123.5" font-family="monospace" font-size="10">sensor</text></g><g class="edge" transform="translate(4 183)"><path fill="none" stroke="#2196f3" stroke-dasharray="5,2" d="m219.69-84.25 61.81-29.55"/></g><g class="node" transform="translate(4 183)"><path fill="none" stroke="#000" stroke-opacity=".6" d="m427.38-54.05 2.88-.1 2.85-.15 2.81-.19 2.76-.25 2.69-.29 2.62-.33 2.54-.39 2.44-.43 2.33-.47 2.23-.51 2.1-.55 1.98-.6 1.85-.63 1.71-.67 1.56-.7 1.42-.73 1.27-.76 1.11-.79.96-.82.81-.84.66-.86.5-.88.35-.9.2-.91.05-.92-.09-.93-.23-.94-.36-.94-.49-.94-.61-.94-.74-.94-.84-.93-.95-.92-1.05-.91-1.14-.9-1.23-.88-1.31-.86-1.39-.84-1.45-.82-1.52-.79-1.57-.76-1.62-.73-1.67-.7-1.7-.67-1.75-.63-1.77-.6-1.8-.55-1.83-.51-1.85-.47-1.86-.43-1.88-.39-1.89-.33-1.9-.29-1.9-.25-1.92-.19-1.92-.15-1.92-.1-1.92-.05h-1.93l-1.92.05-1.92.1-1.92.15-1.91.19-1.91.25-1.9.29-1.89.33-1.88.39-1.86.43-1.85.47-1.82.51-1.81.55-1.77.6-1.74.63-1.71.67-1.67.7-1.62.73-1.57.76-1.52.79-1.45.82-1.38.84-1.31.86-1.23.88-1.15.9-1.05.91-.95.92-.84.93-.73.94-.62.94-.49.94-.36.94-.23.94-.09.93.06.92.2.91.35.9.5.88.65.86.81.84.96.82 1.12.79 1.26.76 1.42.73 1.57.7 1.7.67 1.85.63 1.98.6 2.1.55 2.23.51 2.34.47 2.44.43 2.53.39 2.62.33 2.69.29 2.76.25 2.81.19 2.85.15 2.88.1 2.9.05h2.91l2.9-.05z"/><text text-anchor="middle" x="423.03" y="-69.5" font-family="monospace" font-size="10">water_sink</text></g><g class="edge" transform="translate(4 183)"><path fill="none" stroke="#2196f3" d="M336.68-72h29.69"/><path fill="#fff" stroke="#2196f3" d="m366.62-75.5 10 3.5-10 3.5v-7z"/></g><g class="node" transform="translate(4 183)"><path fill="none" stroke="#000" stroke-opacity=".6" d="m197.4-.05 2.88-.1 2.86-.15 2.81-.19 2.75-.25 2.7-.29 2.62-.33 2.53-.39 2.44-.43 2.34-.47 2.22-.51 2.11-.55 1.98-.6 1.84-.63 1.71-.67 1.56-.7 1.42-.73 1.27-.76 1.12-.79.96-.82.81-.84.65-.86.5-.88.35-.9.2-.91.05-.92-.09-.93-.22-.94-.36-.94-.5-.94-.61-.94-.73-.94-.85-.93-.95-.92-1.05-.91-1.14-.9-1.23-.88-1.31-.86-1.39-.84-1.45-.82-1.51-.79-1.57-.76-1.63-.73-1.66-.7-1.71-.67-1.74-.63-1.78-.6-1.8-.55-1.83-.51-1.84-.47-1.87-.43-1.87-.39-1.89-.33-1.9-.29-1.91-.25-1.91-.19-1.92-.15-1.92-.1-1.93-.05h-1.92l-1.93.05-1.92.1-1.92.15-1.91.19-1.91.25-1.9.29-1.89.33-1.87.39-1.87.43-1.84.47-1.83.51-1.8.55-1.78.6-1.74.63-1.71.67-1.66.7-1.63.73-1.57.76-1.51.79-1.45.82-1.39.84-1.31.86-1.23.88-1.14.9-1.05.91-.95.92-.85.93-.73.94-.61.94-.5.94-.36.94-.22.94-.09.93.05.92.2.91.35.9.5.88.65.86.81.84.96.82 1.12.79 1.27.76 1.42.73 1.56.7 1.71.67 1.84.63 1.98.6 2.11.55 2.22.51 2.34.47 2.44.43 2.53.39 2.62.33 2.7.29 2.75.25 2.81.19 2.86.15 2.88.1 2.9.05h2.9l2.9-.05z"/><text text-anchor="middle" x="193.05" y="-15.5" font-family="monospace" font-size="10">controller</text></g><g class="edge" transform="translate(4 183)"><path fill="none" stroke="#ff9800" stroke-dasharray="5,2" d="M220.83-30.8c18.92-9.04 44.07-21.06 62.31-29.78"/></g><g class="edge" transform="translate(4 183)"><path fill="none" stroke="#ff9800" stroke-dasharray="5,2" d="M222.84-30.03c6.09-3.33 12.19-7.33 17.23-11.97 22.04-20.29 16.5-34.25 36-57 3.52-4.12 7.69-8.17 11.8-11.83"/></g><g class="node" transform="translate(4 183)"><path fill="none" stroke="#000" stroke-opacity=".6" d="m65.7-.05 1.78-.1 1.75-.15 1.74-.19 1.69-.25 1.66-.29 1.62-.33 1.56-.39 1.51-.43 1.44-.47 1.37-.51 1.29-.55 1.22-.6 1.14-.63 1.05-.67.97-.7.87-.73.78-.76.69-.79.59-.82.5-.84.41-.86.3-.88.22-.9.12-.91.04-.92-.06-.93-.14-.94-.22-.94-.3-.94-.38-.94-.45-.94-.53-.93-.58-.92-.65-.91-.7-.9-.76-.88-.81-.86-.85-.84-.9-.82-.93-.79-.97-.76-1-.73-1.03-.7-1.05-.67-1.07-.63-1.1-.6-1.11-.55-1.12-.51-1.14-.47-1.15-.43-1.16-.39-1.16-.33-1.17-.29-1.18-.25-1.18-.19-1.18-.15-1.18-.1-1.19-.05h-1.19l-1.18.05-1.19.1-1.18.15-1.18.19-1.17.25-1.18.29-1.16.33-1.16.39-1.15.43-1.13.47-1.13.51-1.11.55-1.09.6-1.08.63-1.05.67-1.03.7-1 .73-.97.76-.93.79-.89.82-.86.84-.81.86-.75.88-.71.9-.65.91-.58.92-.52.93-.45.94-.38.94-.3.94-.23.94-.14.94-.05.93.03.92.12.91.22.9.31.88.4.86.5.84.59.82.69.79.78.76.87.73.97.7 1.05.67 1.14.63 1.22.6 1.3.55 1.37.51 1.44.47 1.5.43 1.56.39 1.62.33 1.66.29 1.7.25 1.73.19 1.76.15 1.77.1 1.79.05h1.79l1.79-.05z"/><text text-anchor="middle" x="63.02" y="-15.5" font-family="monospace" font-size="10">power</text></g><g class="edge" transform="translate(4 183)"><path fill="none" stroke="#ff5c5c" stroke-dasharray="5,2" d="M91.48-18h45.14"/><path fill="#fff" stroke="#ff5c5c" d="m136.75-21.5 10 3.5-10 3.5v-7z"/></g></g></svg>