<svg width="518pt" height="446pt" viewBox="0 0 518 446" xmlns="http://www.w3.org/2000/svg"><g class="graph"><g class="node" transform="translate(4 442)"><path fill="none" stroke="#fff" stroke-width="2" d="M119-280H0v43h119v-43z"/><text text-anchor="middle" x="59.5" y="-254.8" font-family="monospace" font-size="14" fill="#fff">PumpOrValve</text></g><g class="node" transform="translate(4 442)"><path fill="none" stroke="#fff" stroke-width="2" d="M262-280h-95v43h95v-43z"/><text text-anchor="middle" x="214.5" y="-254.8" font-family="monospace" font-size="14" fill="#fff">CorePipe</text></g><g class="edge" transform="translate(4 442)"><path fill="none" stroke="#77f" d="M119.22-258.5h37.31"/><path fill="transparent" stroke="#77f" d="m156.57-262 10 3.5-10 3.5v-7z"/></g><g class="node" transform="translate(4 442)"><path fill="none" stroke="#fff" stroke-width="2" d="M392-359h-78v43h78v-43z"/><text text-anchor="middle" x="353" y="-333.8" font-family="monospace" font-size="14" fill="#fff">Valve1</text></g><g class="edge" transform="translate(4 442)"><path fill="none" stroke="#77f" d="M252.8-280.09c16.4-9.49 35.83-20.73 53.12-30.74"/><path fill="transparent" stroke="#77f" d="m304.34-313.96 10.41-1.98-6.91 8.04-3.5-6.06z"/></g><g class="node" transform="translate(4 442)"><path fill="none" stroke="#fff" stroke-width="2" d="M392-280h-78v43h78v-43z"/><text text-anchor="middle" x="353" y="-254.8" font-family="monospace" font-size="14" fill="#fff">Valve2</text></g><g class="edge" transform="translate(4 442)"><path fill="none" stroke="#77f" d="M262.09-258.5h41.6"/><path fill="transparent" stroke="#77f" d="m303.77-262 10 3.5-10 3.5v-7z"/></g><g class="node" transform="translate(4 442)"><path fill="none" stroke="#fff" stroke-width="2" d="M392-122h-78v43h78v-43z"/><text text-anchor="middle" x="353" y="-96.8" font-family="monospace" font-size="14" fill="#fff">Valve3</text></g><g class="edge" transform="translate(4 442)"><path fill="none" stroke="#77f" d="M254.52-236.98c7.08 5.09 13.96 10.96 19.48 17.48 25.2 29.75 13.26 48.33 36 80 2.48 3.46 5.3 6.84 8.29 10.09"/><path fill="transparent" stroke="#77f" d="m320.94-131.7 4.51 9.58-9.51-4.68 5-4.9z"/></g><g class="node" transform="translate(4 442)"><path fill="none" stroke="#fff" stroke-width="2" d="M510-378h-78v43h78v-43z"/><text text-anchor="middle" x="471" y="-352.8" font-family="monospace" font-size="14" fill="#fff">Plant1</text></g><g class="edge" transform="translate(4 442)"><path fill="none" stroke="#77f" d="M392.3-343.77c9.41-1.54 19.6-3.21 29.4-4.82"/><path fill="transparent" stroke="#77f" d="m421.3-352.07 10.44 1.84-9.31 5.07-1.13-6.91z"/></g><g class="node" transform="translate(4 442)"><path fill="none" stroke="#fff" stroke-width="2" d="M510-260h-78v43h78v-43z"/><text text-anchor="middle" x="471" y="-234.8" font-family="monospace" font-size="14" fill="#fff">Plant2</text></g><g class="edge" transform="translate(4 442)"><path fill="none" stroke="#77f" d="M392.3-251.9c9.41 1.63 19.6 3.38 29.4 5.07"/><path fill="transparent" stroke="#77f" d="m422.48-250.25 9.26 5.15-10.45 1.75 1.19-6.9z"/></g><g class="node" transform="translate(4 442)"><path fill="none" stroke="#fff" stroke-width="2" d="M510-83h-78v43h78v-43z"/><text text-anchor="middle" x="471" y="-57.8" font-family="monospace" font-size="14" fill="#fff">Plant3</text></g><g class="edge" transform="translate(4 442)"><path fill="none" stroke="#77f" d="M392.3-87.62c9.51 3.19 19.81 6.66 29.71 9.99"/><path fill="transparent" stroke="#77f" d="m423.37-80.87 8.37 6.51-10.6.13 2.23-6.64z"/></g><g class="node" transform="translate(4 442)"><path fill="none" stroke="#fff" stroke-width="2" d="M274-398H155v43h119v-43z"/><text text-anchor="middle" x="214.5" y="-372.8" font-family="monospace" font-size="14" fill="#fff">Controller1</text></g><g class="edge" transform="translate(4 442)"><path fill="none" stroke="#fff" stroke-dasharray="5,2" d="M274.18-359.73c9.98 2.85 20.23 5.78 29.88 8.53"/><path fill="transparent" stroke="#fff" d="m305.22-354.51 8.66 6.12-10.58.62 1.92-6.74z"/></g><g class="node" transform="translate(4 442)"><path fill="none" stroke="#fff" stroke-width="2" d="M396-438h-86v43h86v-43z"/><text text-anchor="middle" x="353" y="-412.8" font-family="monospace" font-size="14" fill="#fff">Sensor1</text></g><g class="edge" transform="translate(4 442)"><path fill="none" stroke="#fff" stroke-dasharray="5,2" d="M274.18-393.7c8.62-2.52 17.45-5.11 25.92-7.59"/><path fill="transparent" stroke="#fff" d="m299.27-404.69 10.58.54-8.61 6.17-1.97-6.71z"/></g><g class="node" transform="translate(4 442)"><path fill="none" stroke="#fff" stroke-width="2" d="M274-201H155v43h119v-43z"/><text text-anchor="middle" x="214.5" y="-175.8" font-family="monospace" font-size="14" fill="#fff">Controller2</text></g><g class="edge" transform="translate(4 442)"><path fill="none" stroke="#fff" stroke-dasharray="5,2" d="M252.8-201.09c16.4-9.49 35.83-20.73 53.12-30.74"/><path fill="transparent" stroke="#fff" d="m304.34-234.96 10.41-1.98-6.91 8.04-3.5-6.06z"/></g><g class="node" transform="translate(4 442)"><path fill="none" stroke="#fff" stroke-width="2" d="M396-201h-86v43h86v-43z"/><text text-anchor="middle" x="353" y="-175.8" font-family="monospace" font-size="14" fill="#fff">Sensor2</text></g><g class="edge" transform="translate(4 442)"><path fill="none" stroke="#fff" stroke-dasharray="5,2" d="M274.18-179.5h25.65"/><path fill="transparent" stroke="#fff" d="m299.85-183 10 3.5-10 3.5v-7z"/></g><g class="node" transform="translate(4 442)"><path fill="none" stroke="#fff" stroke-width="2" d="M274-83H155v43h119v-43z"/><text text-anchor="middle" x="214.5" y="-57.8" font-family="monospace" font-size="14" fill="#fff">Controller3</text></g><g class="edge" transform="translate(4 442)"><path fill="none" stroke="#fff" stroke-dasharray="5,2" d="M274.18-78.27c9.98-2.85 20.23-5.78 29.88-8.53"/><path fill="transparent" stroke="#fff" d="m303.3-90.23 10.58.62-8.66 6.12-1.92-6.74z"/></g><g class="node" transform="translate(4 442)"><path fill="none" stroke="#fff" stroke-width="2" d="M396-43h-86V0h86v-43z"/><text text-anchor="middle" x="353" y="-17.8" font-family="monospace" font-size="14" fill="#fff">Sensor3</text></g><g class="edge" transform="translate(4 442)"><path fill="none" stroke="#fff" stroke-dasharray="5,2" d="M274.18-44.3c8.62 2.52 17.45 5.11 25.92 7.59"/><path fill="transparent" stroke="#fff" d="m301.24-40.02 8.61 6.17-10.58.54 1.97-6.71z"/></g><g class="edge" transform="translate(4 442)"><path fill="none" stroke="#fff" stroke-dasharray="5,2" d="M395.88-394.84c8.67 4.49 17.86 9.24 26.71 13.82"/><path fill="transparent" stroke="#fff" d="m424.38-384.04 7.28 7.71-10.49-1.49 3.21-6.22z"/></g><g class="edge" transform="translate(4 442)"><path fill="none" stroke="#fff" stroke-dasharray="5,2" d="M396.21-200.97c8.65-4.4 17.81-9.06 26.63-13.54"/><path fill="transparent" stroke="#fff" d="m421.36-217.69 10.5-1.41-7.32 7.65-3.18-6.24z"/></g><g class="edge" transform="translate(4 442)"><path fill="none" stroke="#fff" stroke-dasharray="5,2" d="M396.21-36.05c8.47-2.93 17.43-6.01 26.07-9"/><path fill="transparent" stroke="#fff" d="m421.27-48.4 10.59.05-8.31 6.57-2.28-6.62z"/></g></g></svg>