<svg width="470pt" height="334pt" viewBox="0 0 470 334" xmlns="http://www.w3.org/2000/svg"><g class="graph"><g class="node" transform="translate(4 330)"><path fill="none" stroke="#fff" stroke-opacity=".267" d="M107-210H0v36h107v-36z"/><text text-anchor="middle" x="53.5" y="-188.3" font-family="monospace" font-size="14" fill="#fff">PumpOrValve</text></g><g class="node" transform="translate(4 330)"><path fill="none" stroke="#fff" stroke-opacity=".267" d="M238-210h-83v36h83v-36z"/><text text-anchor="middle" x="196.5" y="-188.3" font-family="monospace" font-size="14" fill="#fff">CorePipe</text></g><g class="edge" transform="translate(4 330)"><path fill="none" stroke="#77f" stroke-opacity=".667" d="M107-192h37.78"/><path fill="#fff" fill-opacity=".188" stroke="#77f" stroke-opacity=".667" d="m144.85-195.5 10 3.5-10 3.5v-7z"/></g><g class="node" transform="translate(4 330)"><path fill="none" stroke="#fff" stroke-opacity=".267" d="M356-268h-66v36h66v-36z"/><text text-anchor="middle" x="323" y="-246.3" font-family="monospace" font-size="14" fill="#fff">Valve1</text></g><g class="edge" transform="translate(4 330)"><path fill="none" stroke="#77f" stroke-opacity=".667" d="M236.21-210.03c14.05-6.55 29.98-13.97 44.27-20.63"/><path fill="#fff" fill-opacity=".188" stroke="#77f" stroke-opacity=".667" d="m279.05-233.85 10.54-1.05-7.58 7.39-2.96-6.34z"/></g><g class="node" transform="translate(4 330)"><path fill="none" stroke="#fff" stroke-opacity=".267" d="M356-210h-66v36h66v-36z"/><text text-anchor="middle" x="323" y="-188.3" font-family="monospace" font-size="14" fill="#fff">Valve2</text></g><g class="edge" transform="translate(4 330)"><path fill="none" stroke="#77f" stroke-opacity=".667" d="M238.27-192h41.21"/><path fill="#fff" fill-opacity=".188" stroke="#77f" stroke-opacity=".667" d="m279.83-195.5 10 3.5-10 3.5v-7z"/></g><g class="node" transform="translate(4 330)"><path fill="none" stroke="#fff" stroke-opacity=".267" d="M356-94h-66v36h66v-36z"/><text text-anchor="middle" x="323" y="-72.3" font-family="monospace" font-size="14" fill="#fff">Valve3</text></g><g class="edge" transform="translate(4 330)"><path fill="none" stroke="#77f" stroke-opacity=".667" d="M235.82-173.91c5.06 3.25 9.95 6.89 14.18 10.91 21.99 20.9 15.9 35.27 36 58 1.13 1.28 2.33 2.55 3.56 3.8"/><path fill="#fff" fill-opacity=".188" stroke="#77f" stroke-opacity=".667" d="m292.05-103.67 4.94 9.37-9.71-4.24 4.77-5.13z"/></g><g class="node" transform="translate(4 330)"><path fill="none" stroke="#fff" stroke-opacity=".267" d="M462-282h-66v36h66v-36z"/><text text-anchor="middle" x="429" y="-260.3" font-family="monospace" font-size="14" fill="#fff">Plant1</text></g><g class="edge" transform="translate(4 330)"><path fill="none" stroke="#77f" stroke-opacity=".667" d="M356.05-254.31c9.39-1.27 19.81-2.67 29.73-4.01"/><path fill="#fff" fill-opacity=".188" stroke="#77f" stroke-opacity=".667" d="m385.5-261.81 10.37 2.13-9.44 4.81-.93-6.94z"/></g><g class="node" transform="translate(4 330)"><path fill="none" stroke="#fff" stroke-opacity=".267" d="M462-195h-66v36h66v-36z"/><text text-anchor="middle" x="429" y="-173.3" font-family="monospace" font-size="14" fill="#fff">Plant2</text></g><g class="edge" transform="translate(4 330)"><path fill="none" stroke="#77f" stroke-opacity=".667" d="M356.05-187.38c9.39 1.36 19.81 2.86 29.73 4.29"/><path fill="#fff" fill-opacity=".188" stroke="#77f" stroke-opacity=".667" d="m386.48-186.53 9.39 4.9-10.39 2.03 1-6.93z"/></g><g class="node" transform="translate(4 330)"><path fill="none" stroke="#fff" stroke-opacity=".267" d="M462-65h-66v36h66v-36z"/><text text-anchor="middle" x="429" y="-43.3" font-family="monospace" font-size="14" fill="#fff">Plant3</text></g><g class="edge" transform="translate(4 330)"><path fill="none" stroke="#77f" stroke-opacity=".667" d="M356.05-67.06c9.49 2.64 20.03 5.58 30.04 8.37"/><path fill="#fff" fill-opacity=".188" stroke="#77f" stroke-opacity=".667" d="m387.18-62.02 8.69 6.06-10.57.69 1.88-6.75z"/></g><g class="node" transform="translate(4 330)"><path fill="none" stroke="#fff" stroke-opacity=".267" d="M250-297H143v36h107v-36z"/><text text-anchor="middle" x="196.5" y="-275.3" font-family="monospace" font-size="14" fill="#fff">Controller1</text></g><g class="edge" transform="translate(4 330)"><path fill="none" stroke="#fff" stroke-dasharray="5,2" stroke-opacity=".667" d="M250.3-266.7c9.83 2.29 19.98 4.65 29.45 6.86"/><path fill="#fff" fill-opacity=".188" stroke="#fff" stroke-opacity=".667" d="m280.75-263.2 8.95 5.68-10.54 1.14 1.59-6.82z"/></g><g class="node" transform="translate(4 330)"><path fill="none" stroke="#fff" stroke-opacity=".267" d="M360-326h-74v36h74v-36z"/><text text-anchor="middle" x="323" y="-304.3" font-family="monospace" font-size="14" fill="#fff">Sensor1</text></g><g class="edge" transform="translate(4 330)"><path fill="none" stroke="#fff" stroke-dasharray="5,2" stroke-opacity=".667" d="M250.3-291.3c8.48-1.97 17.2-4.01 25.51-5.94"/><path fill="#fff" fill-opacity=".188" stroke="#fff" stroke-opacity=".667" d="m275.17-300.69 10.53 1.14-8.94 5.68-1.59-6.82z"/></g><g class="node" transform="translate(4 330)"><path fill="none" stroke="#fff" stroke-opacity=".267" d="M250-152H143v36h107v-36z"/><text text-anchor="middle" x="196.5" y="-130.3" font-family="monospace" font-size="14" fill="#fff">Controller2</text></g><g class="edge" transform="translate(4 330)"><path fill="none" stroke="#fff" stroke-dasharray="5,2" stroke-opacity=".667" d="M236.21-152.03c14.05-6.55 29.98-13.97 44.27-20.63"/><path fill="#fff" fill-opacity=".188" stroke="#fff" stroke-opacity=".667" d="m279.05-175.85 10.54-1.05-7.58 7.39-2.96-6.34z"/></g><g class="node" transform="translate(4 330)"><path fill="none" stroke="#fff" stroke-opacity=".267" d="M360-152h-74v36h74v-36z"/><text text-anchor="middle" x="323" y="-130.3" font-family="monospace" font-size="14" fill="#fff">Sensor2</text></g><g class="edge" transform="translate(4 330)"><path fill="none" stroke="#fff" stroke-dasharray="5,2" stroke-opacity=".667" d="M250.3-134h25.24"/><path fill="#fff" fill-opacity=".188" stroke="#fff" stroke-opacity=".667" d="m275.7-137.5 10 3.5-10 3.5v-7z"/></g><g class="node" transform="translate(4 330)"><path fill="none" stroke="#fff" stroke-opacity=".267" d="M250-65H143v36h107v-36z"/><text text-anchor="middle" x="196.5" y="-43.3" font-family="monospace" font-size="14" fill="#fff">Controller3</text></g><g class="edge" transform="translate(4 330)"><path fill="none" stroke="#fff" stroke-dasharray="5,2" stroke-opacity=".667" d="M250.3-59.3c9.83-2.29 19.98-4.65 29.45-6.86"/><path fill="#fff" fill-opacity=".188" stroke="#fff" stroke-opacity=".667" d="m279.16-69.62 10.54 1.14-8.95 5.68-1.59-6.82z"/></g><g class="node" transform="translate(4 330)"><path fill="none" stroke="#fff" stroke-opacity=".267" d="M360-36h-74V0h74v-36z"/><text text-anchor="middle" x="323" y="-14.3" font-family="monospace" font-size="14" fill="#fff">Sensor3</text></g><g class="edge" transform="translate(4 330)"><path fill="none" stroke="#fff" stroke-dasharray="5,2" stroke-opacity=".667" d="M250.3-34.7c8.48 1.97 17.2 4.01 25.51 5.94"/><path fill="#fff" fill-opacity=".188" stroke="#fff" stroke-opacity=".667" d="m276.76-32.13 8.94 5.68-10.53 1.14 1.59-6.82z"/></g><g class="edge" transform="translate(4 330)"><path fill="none" stroke="#fff" stroke-dasharray="5,2" stroke-opacity=".667" d="M360.08-292.73c8.53 3.6 17.7 7.48 26.44 11.18"/><path fill="#fff" fill-opacity=".188" stroke="#fff" stroke-opacity=".667" d="m387.96-284.74 7.84 7.12-10.57-.67 2.73-6.45z"/></g><g class="edge" transform="translate(4 330)"><path fill="none" stroke="#fff" stroke-dasharray="5,2" stroke-opacity=".667" d="M360.08-148.92c8.53-3.53 17.7-7.31 26.44-10.93"/><path fill="#fff" fill-opacity=".188" stroke="#fff" stroke-opacity=".667" d="m385.23-163.1 10.57-.59-7.9 7.06-2.67-6.47z"/></g><g class="edge" transform="translate(4 330)"><path fill="none" stroke="#fff" stroke-dasharray="5,2" stroke-opacity=".667" d="M360.08-28.06a60374 60374 0 0 1 25.89-7.22"/><path fill="#fff" fill-opacity=".188" stroke="#fff" stroke-opacity=".667" d="m385.23-38.71 10.57.69-8.69 6.05-1.88-6.74z"/></g></g></svg>