<svg xmlns:xlink="http://www.w3.org/1999/xlink" width="1125.569" height="647.28" viewBox="0 0 844.177 485.46" xmlns="http://www.w3.org/2000/svg"><defs><style>*{stroke-linejoin:round;stroke-linecap:butt}</style></defs><g id="figure_1"><path d="M0 485.46h844.177V0H0v485.46z" style="fill:none" id="patch_1"/><g id="axes_1"><path d="M65.304 423.62h695.5V7.2h-695.5z" style="fill:#141d22" id="patch_2"/><g id="matplotlib.axis_1"><g id="xtick_1"><path d="M78.853 423.62V7.2" clip-path="url(#p8a2ed3e405)" style="fill:none;stroke:#469ecc;stroke-opacity:.3;stroke-linecap:square" id="line2d_1"/><g id="line2d_2"><defs><path id="m1b48aac522" d="M0 0v3.5" style="stroke:#adf7f6;stroke-width:.8"/></defs><use xlink:href="#m1b48aac522" x="78.853" y="423.62" style="fill:#adf7f6;stroke:#adf7f6;stroke-width:.8"/></g><g style="fill:#adf7f6" transform="matrix(.15 0 0 -.15 69.822 448.597)" id="text_1"><defs><path id="DejaVuSansMono-32" d="M1166 531h2143V0H475v531q584 616 1021 1088 438 472 604 665 313 382 422 618t109 482q0 391-230 613-229 222-629 222-284 0-597-103-312-103-662-313v638q321 153 632 231t614 78q685 0 1102-364t417-955q0-300-139-600t-451-662q-175-203-508-563-333-359-1014-1075z" transform="scale(.01563)"/><path id="DejaVuSansMono-30" d="M1509 2344q0 172 120 297 121 125 290 125 175 0 300-125t125-297q0-175-124-297-123-122-301-122-175 0-293 119-117 119-117 300zm416 1906q-441 0-658-475t-217-1447q0-969 217-1444t658-475q444 0 661 475t217 1444q0 972-217 1447t-661 475zm0 500q747 0 1130-613 383-612 383-1809 0-1194-383-1807Q2672-91 1925-91T797 521q-381 613-381 1807 0 1197 381 1809 381 613 1128 613z" transform="scale(.01563)"/></defs><use xlink:href="#DejaVuSansMono-32"/><use xlink:href="#DejaVuSansMono-30" transform="translate(60.205)"/></g></g><g id="xtick_2"><path d="M114.983 423.62V7.2" clip-path="url(#p8a2ed3e405)" style="fill:none;stroke:#469ecc;stroke-opacity:.3;stroke-linecap:square" id="line2d_3"/><use xlink:href="#m1b48aac522" x="114.983" y="423.62" style="fill:#adf7f6;stroke:#adf7f6;stroke-width:.8" id="line2d_4"/><g style="fill:#adf7f6" transform="matrix(.15 0 0 -.15 105.952 448.597)" id="text_2"><defs><path id="DejaVuSansMono-33" d="M2425 2497q459-122 703-433t244-776q0-644-433-1012Q2506-91 1741-91q-322 0-657 60-334 59-656 172v628q319-166 628-247 310-81 616-81 519 0 797 234t278 675q0 406-278 645t-753 239h-482v519h482q434 0 678 190 244 191 244 532 0 359-227 551-227 193-645 193-278 0-575-63-297-62-622-187v581q378 100 673 150 296 50 524 50 681 0 1089-342t408-908q0-384-215-641-214-256-623-362z" transform="scale(.01563)"/></defs><use xlink:href="#DejaVuSansMono-33"/><use xlink:href="#DejaVuSansMono-30" transform="translate(60.205)"/></g></g><g id="xtick_3"><path d="M151.113 423.62V7.2" clip-path="url(#p8a2ed3e405)" style="fill:none;stroke:#469ecc;stroke-opacity:.3;stroke-linecap:square" id="line2d_5"/><use xlink:href="#m1b48aac522" x="151.113" y="423.62" style="fill:#adf7f6;stroke:#adf7f6;stroke-width:.8" id="line2d_6"/><g style="fill:#adf7f6" transform="matrix(.15 0 0 -.15 142.082 448.597)" id="text_3"><defs><path id="DejaVuSansMono-34" d="M2297 4091 825 1625h1472v2466zm-103 575h731V1625h622v-512h-622V0h-628v1113H319v596l1875 2957z" transform="scale(.01563)"/></defs><use xlink:href="#DejaVuSansMono-34"/><use xlink:href="#DejaVuSansMono-30" transform="translate(60.205)"/></g></g><g id="xtick_4"><path d="M187.242 423.62V7.2" clip-path="url(#p8a2ed3e405)" style="fill:none;stroke:#469ecc;stroke-opacity:.3;stroke-linecap:square" id="line2d_7"/><use xlink:href="#m1b48aac522" x="187.242" y="423.62" style="fill:#adf7f6;stroke:#adf7f6;stroke-width:.8" id="line2d_8"/><g style="fill:#adf7f6" transform="matrix(.15 0 0 -.15 178.212 448.597)" id="text_4"><defs><path id="DejaVuSansMono-35" d="M647 4666h2362v-532H1222V2988q134 50 270 73t274 23q725 0 1150-428t425-1159q0-738-446-1163Q2450-91 1678-91q-372 0-680 50Q691 9 447 109v641q287-156 578-233 291-76 594-76 522 0 804 275 283 275 283 781 0 500-292 778t-814 278q-253 0-494-58-240-57-459-173v2344z" transform="scale(.01563)"/></defs><use xlink:href="#DejaVuSansMono-35"/><use xlink:href="#DejaVuSansMono-30" transform="translate(60.205)"/></g></g><g id="xtick_5"><path d="M223.372 423.62V7.2" clip-path="url(#p8a2ed3e405)" style="fill:none;stroke:#469ecc;stroke-opacity:.3;stroke-linecap:square" id="line2d_9"/><use xlink:href="#m1b48aac522" x="223.372" y="423.62" style="fill:#adf7f6;stroke:#adf7f6;stroke-width:.8" id="line2d_10"/><g style="fill:#adf7f6" transform="matrix(.15 0 0 -.15 214.342 448.597)" id="text_5"><defs><path id="DejaVuSansMono-36" d="M3097 4563v-582q-197 116-419 177t-462 61q-600 0-910-452-309-451-309-1329 150 312 415 479 266 167 610 167 675 0 1045-414 371-414 371-1173 0-756-382-1172Q2675-91 1984-91q-812 0-1190 583T416 2328q0 1181 454 1801 455 621 1318 621 231 0 462-49 231-48 447-138zM1972 2591q-403 0-635-291-231-291-231-803 0-513 231-804 232-290 635-290 419 0 631 276 213 277 213 818 0 544-213 819-212 275-631 275z" transform="scale(.01563)"/></defs><use xlink:href="#DejaVuSansMono-36"/><use xlink:href="#DejaVuSansMono-30" transform="translate(60.205)"/></g></g><g id="xtick_6"><path d="M259.502 423.62V7.2" clip-path="url(#p8a2ed3e405)" style="fill:none;stroke:#469ecc;stroke-opacity:.3;stroke-linecap:square" id="line2d_11"/><use xlink:href="#m1b48aac522" x="259.502" y="423.62" style="fill:#adf7f6;stroke:#adf7f6;stroke-width:.8" id="line2d_12"/><g style="fill:#adf7f6" transform="matrix(.15 0 0 -.15 250.472 448.597)" id="text_6"><defs><path id="DejaVuSansMono-37" d="M434 4666h2938v-269L1703 0h-659l1625 4134H434v532z" transform="scale(.01563)"/></defs><use xlink:href="#DejaVuSansMono-37"/><use xlink:href="#DejaVuSansMono-30" transform="translate(60.205)"/></g></g><g id="xtick_7"><path d="M295.632 423.62V7.2" clip-path="url(#p8a2ed3e405)" style="fill:none;stroke:#469ecc;stroke-opacity:.3;stroke-linecap:square" id="line2d_13"/><use xlink:href="#m1b48aac522" x="295.632" y="423.62" style="fill:#adf7f6;stroke:#adf7f6;stroke-width:.8" id="line2d_14"/><g style="fill:#adf7f6" transform="matrix(.15 0 0 -.15 286.602 448.597)" id="text_7"><defs><path id="DejaVuSansMono-38" d="M1925 2216q-422 0-652-236-229-236-229-667 0-432 232-671 233-239 649-239 425 0 654 236 230 236 230 674 0 428-233 665-232 238-651 238zm-550 262q-403 103-630 384-226 282-226 679 0 556 378 882 378 327 1028 327 653 0 1031-327 378-326 378-882 0-397-227-679-226-281-629-384 469-103 717-416 249-312 249-809 0-631-403-988Q2638-91 1925-91q-712 0-1114 355t-402 983q0 500 248 814 249 314 718 417zm-228 1003q0-375 200-572 200-196 578-196 381 0 581 196 200 197 200 572 0 382-199 582-198 200-582 200-378 0-578-202t-200-580z" transform="scale(.01563)"/></defs><use xlink:href="#DejaVuSansMono-38"/><use xlink:href="#DejaVuSansMono-30" transform="translate(60.205)"/></g></g><g id="xtick_8"><path d="M331.762 423.62V7.2" clip-path="url(#p8a2ed3e405)" style="fill:none;stroke:#469ecc;stroke-opacity:.3;stroke-linecap:square" id="line2d_15"/><use xlink:href="#m1b48aac522" x="331.762" y="423.62" style="fill:#adf7f6;stroke:#adf7f6;stroke-width:.8" id="line2d_16"/><g style="fill:#adf7f6" transform="matrix(.15 0 0 -.15 322.731 448.597)" id="text_8"><defs><path id="DejaVuSansMono-39" d="M1863 2069q403 0 632 290 230 291 230 804 0 512-230 802-229 291-632 291-419 0-632-277-212-276-212-816 0-544 211-819t633-275zM738 97v581q196-115 418-176t463-61q600 0 907 451 308 452 308 1330-146-313-412-480t-609-167q-675 0-1046 415-370 416-370 1179 0 753 379 1167 380 414 1074 414 813 0 1191-585 378-584 378-1837 0-1178-455-1799Q2509-91 1644-91q-228 0-460 49Q953 6 738 97z" transform="scale(.01563)"/></defs><use xlink:href="#DejaVuSansMono-39"/><use xlink:href="#DejaVuSansMono-30" transform="translate(60.205)"/></g></g><g id="xtick_9"><path d="M367.892 423.62V7.2" clip-path="url(#p8a2ed3e405)" style="fill:none;stroke:#469ecc;stroke-opacity:.3;stroke-linecap:square" id="line2d_17"/><use xlink:href="#m1b48aac522" x="367.892" y="423.62" style="fill:#adf7f6;stroke:#adf7f6;stroke-width:.8" id="line2d_18"/><g style="fill:#adf7f6" transform="matrix(.15 0 0 -.15 354.346 448.597)" id="text_9"><defs><path id="DejaVuSansMono-31" d="M844 531h981v3566L769 3859v575l1050 232h631V531h969V0H844v531z" transform="scale(.01563)"/></defs><use xlink:href="#DejaVuSansMono-31"/><use xlink:href="#DejaVuSansMono-30" transform="translate(60.205)"/><use xlink:href="#DejaVuSansMono-30" transform="translate(120.41)"/></g></g><g id="xtick_10"><path d="M404.022 423.62V7.2" clip-path="url(#p8a2ed3e405)" style="fill:none;stroke:#469ecc;stroke-opacity:.3;stroke-linecap:square" id="line2d_19"/><use xlink:href="#m1b48aac522" x="404.022" y="423.62" style="fill:#adf7f6;stroke:#adf7f6;stroke-width:.8" id="line2d_20"/><g style="fill:#adf7f6" transform="matrix(.15 0 0 -.15 390.476 448.597)" id="text_10"><use xlink:href="#DejaVuSansMono-31"/><use xlink:href="#DejaVuSansMono-31" transform="translate(60.205)"/><use xlink:href="#DejaVuSansMono-30" transform="translate(120.41)"/></g></g><g id="xtick_11"><path d="M440.151 423.62V7.2" clip-path="url(#p8a2ed3e405)" style="fill:none;stroke:#469ecc;stroke-opacity:.3;stroke-linecap:square" id="line2d_21"/><use xlink:href="#m1b48aac522" x="440.151" y="423.62" style="fill:#adf7f6;stroke:#adf7f6;stroke-width:.8" id="line2d_22"/><g style="fill:#adf7f6" transform="matrix(.15 0 0 -.15 426.606 448.597)" id="text_11"><use xlink:href="#DejaVuSansMono-31"/><use xlink:href="#DejaVuSansMono-32" transform="translate(60.205)"/><use xlink:href="#DejaVuSansMono-30" transform="translate(120.41)"/></g></g><g id="xtick_12"><path d="M476.281 423.62V7.2" clip-path="url(#p8a2ed3e405)" style="fill:none;stroke:#469ecc;stroke-opacity:.3;stroke-linecap:square" id="line2d_23"/><use xlink:href="#m1b48aac522" x="476.281" y="423.62" style="fill:#adf7f6;stroke:#adf7f6;stroke-width:.8" id="line2d_24"/><g style="fill:#adf7f6" transform="matrix(.15 0 0 -.15 462.736 448.597)" id="text_12"><use xlink:href="#DejaVuSansMono-31"/><use xlink:href="#DejaVuSansMono-33" transform="translate(60.205)"/><use xlink:href="#DejaVuSansMono-30" transform="translate(120.41)"/></g></g><g id="xtick_13"><path d="M512.411 423.62V7.2" clip-path="url(#p8a2ed3e405)" style="fill:none;stroke:#469ecc;stroke-opacity:.3;stroke-linecap:square" id="line2d_25"/><use xlink:href="#m1b48aac522" x="512.411" y="423.62" style="fill:#adf7f6;stroke:#adf7f6;stroke-width:.8" id="line2d_26"/><g style="fill:#adf7f6" transform="matrix(.15 0 0 -.15 498.866 448.597)" id="text_13"><use xlink:href="#DejaVuSansMono-31"/><use xlink:href="#DejaVuSansMono-34" transform="translate(60.205)"/><use xlink:href="#DejaVuSansMono-30" transform="translate(120.41)"/></g></g><g id="xtick_14"><path d="M548.541 423.62V7.2" clip-path="url(#p8a2ed3e405)" style="fill:none;stroke:#469ecc;stroke-opacity:.3;stroke-linecap:square" id="line2d_27"/><use xlink:href="#m1b48aac522" x="548.541" y="423.62" style="fill:#adf7f6;stroke:#adf7f6;stroke-width:.8" id="line2d_28"/><g style="fill:#adf7f6" transform="matrix(.15 0 0 -.15 534.995 448.597)" id="text_14"><use xlink:href="#DejaVuSansMono-31"/><use xlink:href="#DejaVuSansMono-35" transform="translate(60.205)"/><use xlink:href="#DejaVuSansMono-30" transform="translate(120.41)"/></g></g><g id="xtick_15"><path d="M584.67 423.62V7.2" clip-path="url(#p8a2ed3e405)" style="fill:none;stroke:#469ecc;stroke-opacity:.3;stroke-linecap:square" id="line2d_29"/><use xlink:href="#m1b48aac522" x="584.671" y="423.62" style="fill:#adf7f6;stroke:#adf7f6;stroke-width:.8" id="line2d_30"/><g style="fill:#adf7f6" transform="matrix(.15 0 0 -.15 571.125 448.597)" id="text_15"><use xlink:href="#DejaVuSansMono-31"/><use xlink:href="#DejaVuSansMono-36" transform="translate(60.205)"/><use xlink:href="#DejaVuSansMono-30" transform="translate(120.41)"/></g></g><g id="xtick_16"><path d="M620.8 423.62V7.2" clip-path="url(#p8a2ed3e405)" style="fill:none;stroke:#469ecc;stroke-opacity:.3;stroke-linecap:square" id="line2d_31"/><use xlink:href="#m1b48aac522" x="620.801" y="423.62" style="fill:#adf7f6;stroke:#adf7f6;stroke-width:.8" id="line2d_32"/><g style="fill:#adf7f6" transform="matrix(.15 0 0 -.15 607.255 448.597)" id="text_16"><use xlink:href="#DejaVuSansMono-31"/><use xlink:href="#DejaVuSansMono-37" transform="translate(60.205)"/><use xlink:href="#DejaVuSansMono-30" transform="translate(120.41)"/></g></g><g id="xtick_17"><path d="M656.93 423.62V7.2" clip-path="url(#p8a2ed3e405)" style="fill:none;stroke:#469ecc;stroke-opacity:.3;stroke-linecap:square" id="line2d_33"/><use xlink:href="#m1b48aac522" x="656.931" y="423.62" style="fill:#adf7f6;stroke:#adf7f6;stroke-width:.8" id="line2d_34"/><g style="fill:#adf7f6" transform="matrix(.15 0 0 -.15 643.385 448.597)" id="text_17"><use xlink:href="#DejaVuSansMono-31"/><use xlink:href="#DejaVuSansMono-38" transform="translate(60.205)"/><use xlink:href="#DejaVuSansMono-30" transform="translate(120.41)"/></g></g><g id="xtick_18"><path d="M693.06 423.62V7.2" clip-path="url(#p8a2ed3e405)" style="fill:none;stroke:#469ecc;stroke-opacity:.3;stroke-linecap:square" id="line2d_35"/><use xlink:href="#m1b48aac522" x="693.061" y="423.62" style="fill:#adf7f6;stroke:#adf7f6;stroke-width:.8" id="line2d_36"/><g style="fill:#adf7f6" transform="matrix(.15 0 0 -.15 679.515 448.597)" id="text_18"><use xlink:href="#DejaVuSansMono-31"/><use xlink:href="#DejaVuSansMono-39" transform="translate(60.205)"/><use xlink:href="#DejaVuSansMono-30" transform="translate(120.41)"/></g></g><g id="xtick_19"><path d="M729.19 423.62V7.2" clip-path="url(#p8a2ed3e405)" style="fill:none;stroke:#469ecc;stroke-opacity:.3;stroke-linecap:square" id="line2d_37"/><use xlink:href="#m1b48aac522" x="729.19" y="423.62" style="fill:#adf7f6;stroke:#adf7f6;stroke-width:.8" id="line2d_38"/><g style="fill:#adf7f6" transform="matrix(.15 0 0 -.15 715.645 448.597)" id="text_19"><use xlink:href="#DejaVuSansMono-32"/><use xlink:href="#DejaVuSansMono-30" transform="translate(60.205)"/><use xlink:href="#DejaVuSansMono-30" transform="translate(120.41)"/></g></g><g style="fill:#73e3bb" transform="matrix(.17 0 0 -.17 249.302 474.725)" id="text_20"><defs><path id="DejaVuSansMono-43" d="M3353 166Q3113 38 2859-26q-253-65-537-65-897 0-1393 634-495 635-495 1785 0 1144 498 1783 499 639 1390 639 284 0 537-64 254-64 494-192v-647q-231 191-497 291-265 100-534 100-616 0-922-475t-306-1435q0-956 306-1431t922-475q275 0 539 100t492 291V166z" transform="scale(.01563)"/><path id="DejaVuSansMono-61" d="M2194 1759h-191q-503 0-758-177-254-176-254-526 0-315 190-490 191-175 528-175 475 0 747 329 272 330 275 911v128h-537zm1115 238V0h-578v519q-184-313-464-462-279-148-679-148-535 0-854 302-318 302-318 808 0 584 392 887t1151 303h772v91q-3 419-213 608-209 189-668 189-294 0-594-85-300-84-584-246v575q319 122 611 182 292 61 567 61 434 0 742-128t499-384q118-156 168-386t50-689z" transform="scale(.01563)"/><path id="DejaVuSansMono-62" d="M2869 1747q0 669-213 1009-212 341-628 341-419 0-635-342-215-342-215-1008 0-663 215-1007 216-343 635-343 416 0 628 340 213 341 213 1010zM1178 3053q138 256 380 393 242 138 561 138 631 0 993-486 363-485 363-1339 0-865-364-1358-364-492-998-492-313 0-552 136t-383 396V0H603v4863h575V3053z" transform="scale(.01563)"/><path id="DejaVuSansMono-6c" d="M1997 1269q0-388 142-585 142-196 420-196h672V0h-728q-515 0-798 331-283 332-283 938v3178H500v450h1497V1269z" transform="scale(.01563)"/><path id="DejaVuSansMono-65" d="M3475 1894v-281H984v-19q0-572 298-885 299-312 843-312 275 0 575 87 300 88 641 266V178Q3013 44 2708-23q-305-68-589-68-816 0-1276 489-459 490-459 1349 0 837 450 1337t1200 500q669 0 1055-453t386-1237zm-575 169q-12 506-239 770t-652 264q-415 0-684-275t-319-763l1894 4z" transform="scale(.01563)"/><path id="DejaVuSansMono-72" d="M3609 2778q-184 144-375 209-190 66-418 66-538 0-823-338-284-337-284-974V0h-578v3500h578v-684q144 372 442 570 299 198 708 198 213 0 397-53 185-53 353-165v-588z" transform="scale(.01563)"/><path id="DejaVuSansMono-6f" d="M1925 3097q-437 0-662-341-225-340-225-1009 0-666 225-1008t662-342q441 0 666 342t225 1008q0 669-225 1009-225 341-666 341zm0 487q728 0 1114-472 386-471 386-1365 0-897-385-1368Q2656-91 1925-91q-728 0-1113 470-384 471-384 1368 0 894 384 1365 385 472 1113 472z" transform="scale(.01563)"/><path id="DejaVuSansMono-73" d="M3041 3378v-562q-247 143-497 215t-510 72q-390 0-583-127-192-126-192-385 0-235 144-351 144-115 716-224l231-44q428-81 648-325 221-244 221-634 0-519-369-812Q2481-91 1825-91q-259 0-544 55-284 55-615 164v594q322-166 615-249 294-82 557-82 381 0 590 154 210 155 210 433 0 400-766 553l-25 7-216 43q-497 97-725 327t-228 626q0 504 340 777 341 273 973 273 281 0 540-52 260-51 510-154z" transform="scale(.01563)"/><path id="DejaVuSansMono-2d" d="M1113 2009h1628v-512H1113v512z" transform="scale(.01563)"/><path id="DejaVuSansMono-63" d="M3316 178Q3084 44 2839-23q-245-68-501-68-813 0-1271 487-458 488-458 1351 0 862 458 1349 458 488 1271 488 253 0 493-66 241-65 485-202v-603q-228 203-458 293-230 91-520 91-541 0-832-350-290-350-290-1000 0-647 292-999 292-351 830-351 300 0 537 92 238 92 441 286V178z" transform="scale(.01563)"/><path id="DejaVuSansMono-74" d="M1919 4494v-994h1306v-447H1919V1153q0-387 147-541 147-153 512-153h647V0h-703q-647 0-913 259-265 260-265 894v1900H409v447h935v994h575z" transform="scale(.01563)"/><path id="DejaVuSansMono-69" d="M800 3500h1472V447h1141V0H556v447h1141v2606H800v447zm897 1363h575v-729h-575v729z" transform="scale(.01563)"/><path id="DejaVuSansMono-6e" d="M3284 2169V0h-578v2169q0 472-166 693-165 222-518 222-403 0-621-286-217-285-217-820V0H609v3500h575v-525q154 300 416 454 263 155 622 155 534 0 798-352 264-351 264-1063z" transform="scale(.01563)"/><path id="DejaVuSansMono-41" d="m1925 4109-666-2387h1332l-666 2387zm-381 557h765L3738 0h-654l-343 1216H1106L769 0H116l1428 4666z" transform="scale(.01563)"/><path id="DejaVuSansMono-28" d="M2766 4856q-416-712-621-1420-204-708-204-1427 0-715 204-1425 205-709 621-1428h-500q-472 744-704 1448-231 705-231 1405 0 697 231 1403 232 707 704 1444h500z" transform="scale(.01563)"/><path id="DejaVuSansMono-6d" d="M2113 3144q106 225 270 332 164 108 395 108 422 0 595-327 174-326 174-1229V0h-525v2003q0 741-83 920-83 180-301 180-250 0-343-192-92-192-92-908V0h-525v2003q0 750-89 925t-320 175q-228 0-317-192t-89-908V0H341v3500h522v-300q103 188 257 286 155 98 352 98 237 0 395-109t246-331z" transform="scale(.01563)"/><path id="DejaVuSansMono-b2" d="M1509 2444h1282v-356H1006v343l722 707q316 303 442 493 127 191 127 350 0 191-157 309-156 119-412 119-153 0-330-56-176-56-373-169v391q203 88 392 131 189 44 374 44 443 0 712-208t269-542q0-178-116-364-115-186-487-552l-660-640z" transform="scale(.01563)"/><path id="DejaVuSansMono-29" d="M1088 4856h500q471-737 702-1444 232-706 232-1403 0-703-232-1409-231-706-702-1444h-500q415 725 620 1434 205 710 205 1419 0 713-205 1422-205 710-620 1425z" transform="scale(.01563)"/></defs><use xlink:href="#DejaVuSansMono-43"/><use xlink:href="#DejaVuSansMono-61" transform="translate(60.205)"/><use xlink:href="#DejaVuSansMono-62" transform="translate(120.41)"/><use xlink:href="#DejaVuSansMono-6c" transform="translate(180.615)"/><use xlink:href="#DejaVuSansMono-65" transform="translate(240.82)"/><use xlink:href="#DejaVuSansMono-20" transform="translate(301.025)"/><use xlink:href="#DejaVuSansMono-43" transform="translate(361.23)"/><use xlink:href="#DejaVuSansMono-72" transform="translate(421.436)"/><use xlink:href="#DejaVuSansMono-6f" transform="translate(481.64)"/><use xlink:href="#DejaVuSansMono-73" transform="translate(541.846)"/><use xlink:href="#DejaVuSansMono-73" transform="translate(602.05)"/><use xlink:href="#DejaVuSansMono-2d" transform="translate(662.256)"/><use xlink:href="#DejaVuSansMono-73" transform="translate(722.46)"/><use xlink:href="#DejaVuSansMono-65" transform="translate(782.666)"/><use xlink:href="#DejaVuSansMono-63" transform="translate(842.871)"/><use xlink:href="#DejaVuSansMono-74" transform="translate(903.076)"/><use xlink:href="#DejaVuSansMono-69" transform="translate(963.281)"/><use xlink:href="#DejaVuSansMono-6f" transform="translate(1023.486)"/><use xlink:href="#DejaVuSansMono-6e" transform="translate(1083.691)"/><use xlink:href="#DejaVuSansMono-61" transform="translate(1143.896)"/><use xlink:href="#DejaVuSansMono-6c" transform="translate(1204.102)"/><use xlink:href="#DejaVuSansMono-20" transform="translate(1264.307)"/><use xlink:href="#DejaVuSansMono-41" transform="translate(1324.512)"/><use xlink:href="#DejaVuSansMono-72" transform="translate(1384.717)"/><use xlink:href="#DejaVuSansMono-65" transform="translate(1444.922)"/><use xlink:href="#DejaVuSansMono-61" transform="translate(1505.127)"/><use xlink:href="#DejaVuSansMono-20" transform="translate(1565.332)"/><use xlink:href="#DejaVuSansMono-28" transform="translate(1625.537)"/><use xlink:href="#DejaVuSansMono-6d" transform="translate(1685.742)"/><use xlink:href="#DejaVuSansMono-6d" transform="translate(1745.947)"/><use xlink:href="#DejaVuSansMono-b2" transform="translate(1806.152)"/><use xlink:href="#DejaVuSansMono-29" transform="translate(1866.357)"/></g></g><g id="matplotlib.axis_2"><g id="ytick_1"><path d="M65.304 385.907h695.5" clip-path="url(#p8a2ed3e405)" style="fill:none;stroke:#469ecc;stroke-opacity:.3;stroke-linecap:square" id="line2d_39"/><g id="line2d_40"><defs><path id="m816331de76" d="M0 0h-3.5" style="stroke:#adf7f6;stroke-width:.8"/></defs><use xlink:href="#m816331de76" x="65.304" y="385.907" style="fill:#adf7f6;stroke:#adf7f6;stroke-width:.8"/></g><use xlink:href="#DejaVuSansMono-35" style="fill:#adf7f6" transform="matrix(.15 0 0 -.15 42.774 391.646)" id="text_21"/></g><g id="ytick_2"><path d="M65.304 334.137h695.5" clip-path="url(#p8a2ed3e405)" style="fill:none;stroke:#469ecc;stroke-opacity:.3;stroke-linecap:square" id="line2d_41"/><use xlink:href="#m816331de76" x="65.304" y="334.137" style="fill:#adf7f6;stroke:#adf7f6;stroke-width:.8" id="line2d_42"/><g style="fill:#adf7f6" transform="matrix(.15 0 0 -.15 33.743 339.875)" id="text_22"><use xlink:href="#DejaVuSansMono-31"/><use xlink:href="#DejaVuSansMono-30" transform="translate(60.205)"/></g></g><g id="ytick_3"><path d="M65.304 282.366h695.5" clip-path="url(#p8a2ed3e405)" style="fill:none;stroke:#469ecc;stroke-opacity:.3;stroke-linecap:square" id="line2d_43"/><use xlink:href="#m816331de76" x="65.304" y="282.366" style="fill:#adf7f6;stroke:#adf7f6;stroke-width:.8" id="line2d_44"/><g style="fill:#adf7f6" transform="matrix(.15 0 0 -.15 33.743 288.105)" id="text_23"><use xlink:href="#DejaVuSansMono-31"/><use xlink:href="#DejaVuSansMono-35" transform="translate(60.205)"/></g></g><g id="ytick_4"><path d="M65.304 230.596h695.5" clip-path="url(#p8a2ed3e405)" style="fill:none;stroke:#469ecc;stroke-opacity:.3;stroke-linecap:square" id="line2d_45"/><use xlink:href="#m816331de76" x="65.304" y="230.596" style="fill:#adf7f6;stroke:#adf7f6;stroke-width:.8" id="line2d_46"/><g style="fill:#adf7f6" transform="matrix(.15 0 0 -.15 33.743 236.334)" id="text_24"><use xlink:href="#DejaVuSansMono-32"/><use xlink:href="#DejaVuSansMono-30" transform="translate(60.205)"/></g></g><g id="ytick_5"><path d="M65.304 178.825h695.5" clip-path="url(#p8a2ed3e405)" style="fill:none;stroke:#469ecc;stroke-opacity:.3;stroke-linecap:square" id="line2d_47"/><use xlink:href="#m816331de76" x="65.304" y="178.825" style="fill:#adf7f6;stroke:#adf7f6;stroke-width:.8" id="line2d_48"/><g style="fill:#adf7f6" transform="matrix(.15 0 0 -.15 33.743 184.564)" id="text_25"><use xlink:href="#DejaVuSansMono-32"/><use xlink:href="#DejaVuSansMono-35" transform="translate(60.205)"/></g></g><g id="ytick_6"><path d="M65.304 127.054h695.5" clip-path="url(#p8a2ed3e405)" style="fill:none;stroke:#469ecc;stroke-opacity:.3;stroke-linecap:square" id="line2d_49"/><use xlink:href="#m816331de76" x="65.304" y="127.054" style="fill:#adf7f6;stroke:#adf7f6;stroke-width:.8" id="line2d_50"/><g style="fill:#adf7f6" transform="matrix(.15 0 0 -.15 33.743 132.793)" id="text_26"><use xlink:href="#DejaVuSansMono-33"/><use xlink:href="#DejaVuSansMono-30" transform="translate(60.205)"/></g></g><g id="ytick_7"><path d="M65.304 75.284h695.5" clip-path="url(#p8a2ed3e405)" style="fill:none;stroke:#469ecc;stroke-opacity:.3;stroke-linecap:square" id="line2d_51"/><use xlink:href="#m816331de76" x="65.304" y="75.284" style="fill:#adf7f6;stroke:#adf7f6;stroke-width:.8" id="line2d_52"/><g style="fill:#adf7f6" transform="matrix(.15 0 0 -.15 33.743 81.023)" id="text_27"><use xlink:href="#DejaVuSansMono-33"/><use xlink:href="#DejaVuSansMono-35" transform="translate(60.205)"/></g></g><g id="ytick_8"><path d="M65.304 23.513h695.5" clip-path="url(#p8a2ed3e405)" style="fill:none;stroke:#469ecc;stroke-opacity:.3;stroke-linecap:square" id="line2d_53"/><use xlink:href="#m816331de76" x="65.304" y="23.513" style="fill:#adf7f6;stroke:#adf7f6;stroke-width:.8" id="line2d_54"/><g style="fill:#adf7f6" transform="matrix(.15 0 0 -.15 33.743 29.252)" id="text_28"><use xlink:href="#DejaVuSansMono-34"/><use xlink:href="#DejaVuSansMono-30" transform="translate(60.205)"/></g></g><g style="fill:#73e3bb" transform="matrix(0 -.17 -.17 0 20.208 307.52)" id="text_29"><defs><path id="DejaVuSansMono-50" d="M1247 4147V2394h731q438 0 683 231t245 647q0 416-244 645-243 230-684 230h-731zm-631 519h1362q781 0 1184-355 404-355 404-1039 0-691-402-1044-401-353-1186-353h-731V0H616v4666z" transform="scale(.01563)"/><path id="DejaVuSansMono-77" d="M0 3500h569l609-2828 500 1806h491l506-1806 609 2828h569L3034 0h-550l-559 1919L1369 0H819L0 3500z" transform="scale(.01563)"/><path id="DejaVuSansMono-4c" d="M672 4666h634V531h2253V0H672v4666z" transform="scale(.01563)"/><path id="DejaVuSansMono-57" d="M0 4666h616l447-3788 531 2506h659l538-2512 447 3794h615L3156 0h-597l-634 2772L1294 0H697L0 4666z" transform="scale(.01563)"/></defs><use xlink:href="#DejaVuSansMono-50"/><use xlink:href="#DejaVuSansMono-6f" transform="translate(60.205)"/><use xlink:href="#DejaVuSansMono-77" transform="translate(120.41)"/><use xlink:href="#DejaVuSansMono-65" transform="translate(180.615)"/><use xlink:href="#DejaVuSansMono-72" transform="translate(240.82)"/><use xlink:href="#DejaVuSansMono-20" transform="translate(301.025)"/><use xlink:href="#DejaVuSansMono-4c" transform="translate(361.23)"/><use xlink:href="#DejaVuSansMono-6f" transform="translate(421.436)"/><use xlink:href="#DejaVuSansMono-73" transform="translate(481.64)"/><use xlink:href="#DejaVuSansMono-73" transform="translate(541.846)"/><use xlink:href="#DejaVuSansMono-20" transform="translate(602.05)"/><use xlink:href="#DejaVuSansMono-28" transform="translate(662.256)"/><use xlink:href="#DejaVuSansMono-57" transform="translate(722.46)"/><use xlink:href="#DejaVuSansMono-61" transform="translate(782.666)"/><use xlink:href="#DejaVuSansMono-74" transform="translate(842.871)"/><use xlink:href="#DejaVuSansMono-74" transform="translate(903.076)"/><use xlink:href="#DejaVuSansMono-73" transform="translate(963.281)"/><use xlink:href="#DejaVuSansMono-29" transform="translate(1023.486)"/></g></g><path d="m96.918 173.79 33.277 71.047 33.278 40.905 33.277 26.59L230.028 331l33.277 13.828 33.278 10.655 33.277 8.461 33.278 6.882 33.277 5.707 33.278 4.81 33.277 4.107 33.278 3.55 33.277 3.097 33.278 2.727 33.277 2.42 33.278 2.16 33.277 1.941 33.278 1.754 33.277 1.593" clip-path="url(#p8a2ed3e405)" style="fill:none;stroke:#8dd3c7;stroke-width:2;stroke-linecap:square" id="line2d_55"/><path d="m96.918 124.57 33.277 84.298 33.278 48.535 33.277 31.548 33.278 22.151 33.277 16.408 33.278 12.642 33.277 10.04 33.278 8.165 33.277 6.771 33.278 5.706 33.277 4.874 33.278 4.212 33.277 3.675 33.278 3.236 33.277 2.87 33.278 2.564 33.277 2.304 33.278 2.08 33.277 1.89" clip-path="url(#p8a2ed3e405)" style="fill:none;stroke:#feffb3;stroke-width:2;stroke-linecap:square" id="line2d_56"/><path d="m96.918 75.349 33.277 97.55 33.278 56.165 33.277 36.508 33.278 25.632 33.277 18.988 33.278 14.63 33.277 11.617 33.278 9.449 33.277 7.836 33.278 6.603 33.277 5.64 33.278 4.873 33.277 4.254 33.278 3.744 33.277 3.322 33.278 2.966 33.277 2.666 33.278 2.408 33.277 2.187" clip-path="url(#p8a2ed3e405)" style="fill:none;stroke:#bfbbd9;stroke-width:2;stroke-linecap:square" id="line2d_57"/><path d="m96.918 26.128 33.277 110.802 33.278 63.795 33.277 41.467 33.278 29.115 33.277 21.566 33.278 16.617 33.277 13.196 33.278 10.733 33.277 8.9 33.278 7.5 33.277 6.406 33.278 5.536 33.277 4.83 33.278 4.254 33.277 3.773 33.278 3.37 33.277 3.027 33.278 2.736 33.277 2.483" clip-path="url(#p8a2ed3e405)" style="fill:none;stroke:#fa8174;stroke-width:2;stroke-linecap:square" id="line2d_58"/><path d="M65.304 423.62V7.2" style="fill:none;stroke:#469ecc;stroke-width:1.5;stroke-linejoin:miter;stroke-linecap:square" id="patch_3"/><path d="M760.804 423.62V7.2" style="fill:none;stroke:#469ecc;stroke-width:1.5;stroke-linejoin:miter;stroke-linecap:square" id="patch_4"/><path d="M65.304 423.62h695.5" style="fill:none;stroke:#469ecc;stroke-width:1.5;stroke-linejoin:miter;stroke-linecap:square" id="patch_5"/><path d="M65.304 7.2h695.5" style="fill:none;stroke:#469ecc;stroke-width:1.5;stroke-linejoin:miter;stroke-linecap:square" id="patch_6"/><g id="legend_1"><path d="M531.51 154.181h220.294V16.2H531.51z" style="fill:#141d22;opacity:.8;stroke:#469ecc;stroke-linejoin:miter" id="patch_7"/><g style="fill:#fff" transform="matrix(.18 0 0 -.18 538.71 37.173)" id="text_30"><defs><path id="DejaVuSansMono-54" d="M147 4666h3559v-532H2247V0h-634v4134H147v532z" transform="scale(.01563)"/><path id="DejaVuSansMono-70" d="M1172 441v-1772H594v4831h578v-447q144 260 383 395 239 136 551 136 635 0 996-491 361-490 361-1359 0-853-363-1339-362-486-994-486-318 0-558 136-239 136-376 396zm1687 1306q0 669-211 1009-210 341-626 341-419 0-635-342-215-342-215-1008 0-663 215-1007 216-343 635-343 416 0 626 340 211 341 211 1010z" transform="scale(.01563)"/><path id="DejaVuSansMono-75" d="M609 1325v2169h575V1325q0-472 167-694 168-222 518-222 406 0 621 286 216 286 216 821v1978h578V0h-578v525q-153-303-417-460-264-156-617-156-538 0-801 352-262 352-262 1064z" transform="scale(.01563)"/></defs><use xlink:href="#DejaVuSansMono-41"/><use xlink:href="#DejaVuSansMono-6d" transform="translate(60.205)"/><use xlink:href="#DejaVuSansMono-62" transform="translate(120.41)"/><use xlink:href="#DejaVuSansMono-69" transform="translate(180.615)"/><use xlink:href="#DejaVuSansMono-65" transform="translate(240.82)"/><use xlink:href="#DejaVuSansMono-6e" transform="translate(301.025)"/><use xlink:href="#DejaVuSansMono-74" transform="translate(361.23)"/><use xlink:href="#DejaVuSansMono-20" transform="translate(421.436)"/><use xlink:href="#DejaVuSansMono-54" transform="translate(481.64)"/><use xlink:href="#DejaVuSansMono-65" transform="translate(541.846)"/><use xlink:href="#DejaVuSansMono-6d" transform="translate(602.05)"/><use xlink:href="#DejaVuSansMono-70" transform="translate(662.256)"/><use xlink:href="#DejaVuSansMono-65" transform="translate(722.46)"/><use xlink:href="#DejaVuSansMono-72" transform="translate(782.666)"/><use xlink:href="#DejaVuSansMono-61" transform="translate(842.871)"/><use xlink:href="#DejaVuSansMono-74" transform="translate(903.076)"/><use xlink:href="#DejaVuSansMono-75" transform="translate(963.281)"/><use xlink:href="#DejaVuSansMono-72" transform="translate(1023.486)"/><use xlink:href="#DejaVuSansMono-65" transform="translate(1083.691)"/></g><path d="M589.365 57.39h36" style="fill:none;stroke:#8dd3c7;stroke-width:2;stroke-linecap:square" id="line2d_59"/><g style="fill:#fff" transform="matrix(.18 0 0 -.18 639.765 63.69)" id="text_31"><defs><path id="DejaVuSansMono-b0" d="M1925 4750q203 0 386-77 183-76 320-220 141-140 214-319 74-178 74-384 0-412-291-698-290-286-709-286-422 0-704 281-281 281-281 703 0 419 287 709 288 291 704 291zm0-403q-247 0-421-174-173-173-173-423t170-419q171-168 418-168 250 0 426 171 177 172 177 416 0 247-175 422t-422 175z" transform="scale(.01563)"/></defs><use xlink:href="#DejaVuSansMono-2d"/><use xlink:href="#DejaVuSansMono-32" transform="translate(60.205)"/><use xlink:href="#DejaVuSansMono-30" transform="translate(120.41)"/><use xlink:href="#DejaVuSansMono-b0" transform="translate(180.615)"/><use xlink:href="#DejaVuSansMono-43" transform="translate(240.82)"/></g><path d="M589.365 83.905h36" style="fill:none;stroke:#feffb3;stroke-width:2;stroke-linecap:square" id="line2d_60"/><g style="fill:#fff" transform="matrix(.18 0 0 -.18 639.765 90.205)" id="text_32"><use xlink:href="#DejaVuSansMono-32"/><use xlink:href="#DejaVuSansMono-30" transform="translate(60.205)"/><use xlink:href="#DejaVuSansMono-b0" transform="translate(120.41)"/><use xlink:href="#DejaVuSansMono-43" transform="translate(180.615)"/></g><path d="M589.365 110.422h36" style="fill:none;stroke:#bfbbd9;stroke-width:2;stroke-linecap:square" id="line2d_61"/><g style="fill:#fff" transform="matrix(.18 0 0 -.18 639.765 116.722)" id="text_33"><use xlink:href="#DejaVuSansMono-36"/><use xlink:href="#DejaVuSansMono-30" transform="translate(60.205)"/><use xlink:href="#DejaVuSansMono-b0" transform="translate(120.41)"/><use xlink:href="#DejaVuSansMono-43" transform="translate(180.615)"/></g><path d="M589.365 136.938h36" style="fill:none;stroke:#fa8174;stroke-width:2;stroke-linecap:square" id="line2d_62"/><g style="fill:#fff" transform="matrix(.18 0 0 -.18 639.765 143.238)" id="text_34"><use xlink:href="#DejaVuSansMono-31"/><use xlink:href="#DejaVuSansMono-30" transform="translate(60.205)"/><use xlink:href="#DejaVuSansMono-30" transform="translate(120.41)"/><use xlink:href="#DejaVuSansMono-b0" transform="translate(180.615)"/><use xlink:href="#DejaVuSansMono-43" transform="translate(240.82)"/></g></g></g><g id="axes_2"><g id="matplotlib.axis_3"><g id="ytick_9"><g id="line2d_63"><defs><path id="m640afa33d4" d="M0 0h3.5" style="stroke:#adf7f6;stroke-width:.8"/></defs><use xlink:href="#m640afa33d4" x="760.804" y="372.447" style="fill:#adf7f6;stroke:#adf7f6;stroke-width:.8"/></g><g style="fill:#adf7f6" transform="matrix(.15 0 0 -.15 774.304 378.186)" id="text_35"><defs><path id="DejaVuSansMono-2e" d="M1528 953h788V0h-788v953z" transform="scale(.01563)"/></defs><use xlink:href="#DejaVuSansMono-30"/><use xlink:href="#DejaVuSansMono-2e" transform="translate(60.205)"/><use xlink:href="#DejaVuSansMono-30" transform="translate(120.41)"/><use xlink:href="#DejaVuSansMono-35" transform="translate(180.615)"/></g></g><g id="ytick_10"><use xlink:href="#m640afa33d4" x="760.804" y="307.216" style="fill:#adf7f6;stroke:#adf7f6;stroke-width:.8" id="line2d_64"/><g style="fill:#adf7f6" transform="matrix(.15 0 0 -.15 774.304 312.955)" id="text_36"><use xlink:href="#DejaVuSansMono-30"/><use xlink:href="#DejaVuSansMono-2e" transform="translate(60.205)"/><use xlink:href="#DejaVuSansMono-31" transform="translate(120.41)"/><use xlink:href="#DejaVuSansMono-30" transform="translate(180.615)"/></g></g><g id="ytick_11"><use xlink:href="#m640afa33d4" x="760.804" y="241.985" style="fill:#adf7f6;stroke:#adf7f6;stroke-width:.8" id="line2d_65"/><g style="fill:#adf7f6" transform="matrix(.15 0 0 -.15 774.304 247.724)" id="text_37"><use xlink:href="#DejaVuSansMono-30"/><use xlink:href="#DejaVuSansMono-2e" transform="translate(60.205)"/><use xlink:href="#DejaVuSansMono-31" transform="translate(120.41)"/><use xlink:href="#DejaVuSansMono-35" transform="translate(180.615)"/></g></g><g id="ytick_12"><use xlink:href="#m640afa33d4" x="760.804" y="176.754" style="fill:#adf7f6;stroke:#adf7f6;stroke-width:.8" id="line2d_66"/><g style="fill:#adf7f6" transform="matrix(.15 0 0 -.15 774.304 182.493)" id="text_38"><use xlink:href="#DejaVuSansMono-30"/><use xlink:href="#DejaVuSansMono-2e" transform="translate(60.205)"/><use xlink:href="#DejaVuSansMono-32" transform="translate(120.41)"/><use xlink:href="#DejaVuSansMono-30" transform="translate(180.615)"/></g></g><g id="ytick_13"><use xlink:href="#m640afa33d4" x="760.804" y="111.523" style="fill:#adf7f6;stroke:#adf7f6;stroke-width:.8" id="line2d_67"/><g style="fill:#adf7f6" transform="matrix(.15 0 0 -.15 774.304 117.262)" id="text_39"><use xlink:href="#DejaVuSansMono-30"/><use xlink:href="#DejaVuSansMono-2e" transform="translate(60.205)"/><use xlink:href="#DejaVuSansMono-32" transform="translate(120.41)"/><use xlink:href="#DejaVuSansMono-35" transform="translate(180.615)"/></g></g><g id="ytick_14"><use xlink:href="#m640afa33d4" x="760.804" y="46.292" style="fill:#adf7f6;stroke:#adf7f6;stroke-width:.8" id="line2d_68"/><g style="fill:#adf7f6" transform="matrix(.15 0 0 -.15 774.304 52.031)" id="text_40"><use xlink:href="#DejaVuSansMono-30"/><use xlink:href="#DejaVuSansMono-2e" transform="translate(60.205)"/><use xlink:href="#DejaVuSansMono-33" transform="translate(120.41)"/><use xlink:href="#DejaVuSansMono-30" transform="translate(180.615)"/></g></g><g style="fill:#fd5548" transform="matrix(0 -.17 -.17 0 833.325 312.638)" id="text_41"><defs><path id="DejaVuSansMono-67" d="M2681 1778q0 647-211 983t-614 336q-422 0-644-336-221-336-221-983t223-986q224-339 649-339 396 0 607 340 211 341 211 985zm575-1553q0-788-372-1194-371-406-1093-406-238 0-498 44-259 43-518 128v569q306-144 556-213t460-69q465 0 677 254 213 253 213 803v415q-137-293-375-437-237-144-578-144-612 0-978 490-366 491-366 1313 0 825 366 1315 366 491 978 491 338 0 572-134t381-416v454h575V225z" transform="scale(.01563)"/><path id="DejaVuSansMono-25" d="M2175 997q0-244 164-410 164-165 408-165 241 0 408 167t167 408q0 241-169 409-169 169-406 169-244 0-408-166-164-165-164-412zm-422 0q0 422 287 711 288 289 707 289 200 0 379-75 180-75 324-219 144-147 222-328t78-378q0-416-291-707Q3169 0 2747 0q-425 0-710 286-284 286-284 711zM378 1453l-109 300 3256 1306 128-300L378 1453zm147 2022q0-247 164-411t411-164q241 0 409 167 169 167 169 408t-169 408q-168 167-409 167t-408-166q-167-165-167-409zm-422 0q0 422 287 711 288 289 710 289 200 0 383-75t323-216q141-140 217-323 77-183 77-386 0-419-291-708-290-289-709-289-422 0-710 287-287 288-287 710z" transform="scale(.01563)"/></defs><use xlink:href="#DejaVuSansMono-4c"/><use xlink:href="#DejaVuSansMono-6f" transform="translate(60.205)"/><use xlink:href="#DejaVuSansMono-73" transform="translate(120.41)"/><use xlink:href="#DejaVuSansMono-73" transform="translate(180.615)"/><use xlink:href="#DejaVuSansMono-20" transform="translate(240.82)"/><use xlink:href="#DejaVuSansMono-50" transform="translate(301.025)"/><use xlink:href="#DejaVuSansMono-65" transform="translate(361.23)"/><use xlink:href="#DejaVuSansMono-72" transform="translate(421.436)"/><use xlink:href="#DejaVuSansMono-63" transform="translate(481.64)"/><use xlink:href="#DejaVuSansMono-65" transform="translate(541.846)"/><use xlink:href="#DejaVuSansMono-6e" transform="translate(602.05)"/><use xlink:href="#DejaVuSansMono-74" transform="translate(662.256)"/><use xlink:href="#DejaVuSansMono-61" transform="translate(722.46)"/><use xlink:href="#DejaVuSansMono-67" transform="translate(782.666)"/><use xlink:href="#DejaVuSansMono-65" transform="translate(842.871)"/><use xlink:href="#DejaVuSansMono-20" transform="translate(903.076)"/><use xlink:href="#DejaVuSansMono-28" transform="translate(963.281)"/><use xlink:href="#DejaVuSansMono-25" transform="translate(1023.486)"/><use xlink:href="#DejaVuSansMono-29" transform="translate(1083.691)"/></g></g><path d="m96.918 173.79 33.277 71.047 33.278 40.905 33.277 26.59L230.028 331l33.277 13.828 33.278 10.655 33.277 8.461 33.278 6.882 33.277 5.707 33.278 4.81 33.277 4.107 33.278 3.55 33.277 3.097 33.278 2.727 33.277 2.42 33.278 2.16 33.277 1.941 33.278 1.754 33.277 1.593" clip-path="url(#p8a2ed3e405)" style="fill:none" id="line2d_69"/><path d="m96.918 124.57 33.277 84.298 33.278 48.535 33.277 31.548 33.278 22.151 33.277 16.408 33.278 12.642 33.277 10.04 33.278 8.165 33.277 6.771 33.278 5.706 33.277 4.874 33.278 4.212 33.277 3.675 33.278 3.236 33.277 2.87 33.278 2.564 33.277 2.304 33.278 2.08 33.277 1.89" clip-path="url(#p8a2ed3e405)" style="fill:none" id="line2d_70"/><path d="m96.918 75.349 33.277 97.55 33.278 56.165 33.277 36.508 33.278 25.632 33.277 18.988 33.278 14.63 33.277 11.617 33.278 9.449 33.277 7.836 33.278 6.603 33.277 5.64 33.278 4.873 33.277 4.254 33.278 3.744 33.277 3.322 33.278 2.966 33.277 2.666 33.278 2.408 33.277 2.187" clip-path="url(#p8a2ed3e405)" style="fill:none" id="line2d_71"/><path d="m96.918 26.128 33.277 110.802 33.278 63.795 33.277 41.467 33.278 29.115 33.277 21.566 33.278 16.617 33.277 13.196 33.278 10.733 33.277 8.9 33.278 7.5 33.277 6.406 33.278 5.536 33.277 4.83 33.278 4.254 33.277 3.773 33.278 3.37 33.277 3.027 33.278 2.736 33.277 2.483" clip-path="url(#p8a2ed3e405)" style="fill:none" id="line2d_72"/></g></g><defs><clipPath id="p8a2ed3e405"><path d="M65.304 7.2h695.5v416.42h-695.5z"/></clipPath></defs></svg>