<svg xmlns:xlink="http://www.w3.org/1999/xlink" width="1125.479" height="1319.28" viewBox="0 0 844.11 989.46" xmlns="http://www.w3.org/2000/svg"><defs><style>*{stroke-linejoin:round;stroke-linecap:butt}</style></defs><g id="figure_1"><path d="M0 989.46h844.11V0H0v989.46z" style="fill:none" id="patch_1"/><g id="axes_1"><path d="M92.395 431.72h686.41V7.2H92.395z" style="fill:#141d22" id="patch_2"/><g id="matplotlib.axis_1"><g id="xtick_1"><path d="M123.596 431.72V7.2" clip-path="url(#p6e2af1a21b)" style="fill:none;stroke-dasharray:1,1.65;stroke-dashoffset:0;stroke:#469ecc;stroke-opacity:.33" id="line2d_1"/><g id="line2d_2"><defs><path id="m5258f733c7" d="M0 0v3.5" style="stroke:#adf7f6;stroke-width:.8"/></defs><use xlink:href="#m5258f733c7" x="123.596" y="431.72" style="fill:#adf7f6;stroke:#adf7f6;stroke-width:.8"/></g><g style="fill:#adf7f6" transform="matrix(.15 0 0 -.15 114.565 456.697)" id="text_1"><defs><path id="DejaVuSansMono-34" d="M2297 4091 825 1625h1472v2466zm-103 575h731V1625h622v-512h-622V0h-628v1113H319v596l1875 2957z" transform="scale(.01563)"/><path id="DejaVuSansMono-30" d="M1509 2344q0 172 120 297 121 125 290 125 175 0 300-125t125-297q0-175-124-297-123-122-301-122-175 0-293 119-117 119-117 300zm416 1906q-441 0-658-475t-217-1447q0-969 217-1444t658-475q444 0 661 475t217 1444q0 972-217 1447t-661 475zm0 500q747 0 1130-613 383-612 383-1809 0-1194-383-1807Q2672-91 1925-91T797 521q-381 613-381 1807 0 1197 381 1809 381 613 1128 613z" transform="scale(.01563)"/></defs><use xlink:href="#DejaVuSansMono-34"/><use xlink:href="#DejaVuSansMono-30" transform="translate(60.205)"/></g></g><g id="xtick_2"><path d="M165.197 431.72V7.2" clip-path="url(#p6e2af1a21b)" style="fill:none;stroke-dasharray:1,1.65;stroke-dashoffset:0;stroke:#469ecc;stroke-opacity:.33" id="line2d_3"/><use xlink:href="#m5258f733c7" x="165.197" y="431.72" style="fill:#adf7f6;stroke:#adf7f6;stroke-width:.8" id="line2d_4"/><g style="fill:#adf7f6" transform="matrix(.15 0 0 -.15 156.166 456.697)" id="text_2"><defs><path id="DejaVuSansMono-35" d="M647 4666h2362v-532H1222V2988q134 50 270 73t274 23q725 0 1150-428t425-1159q0-738-446-1163Q2450-91 1678-91q-372 0-680 50Q691 9 447 109v641q287-156 578-233 291-76 594-76 522 0 804 275 283 275 283 781 0 500-292 778t-814 278q-253 0-494-58-240-57-459-173v2344z" transform="scale(.01563)"/></defs><use xlink:href="#DejaVuSansMono-35"/><use xlink:href="#DejaVuSansMono-30" transform="translate(60.205)"/></g></g><g id="xtick_3"><path d="M206.797 431.72V7.2" clip-path="url(#p6e2af1a21b)" style="fill:none;stroke-dasharray:1,1.65;stroke-dashoffset:0;stroke:#469ecc;stroke-opacity:.33" id="line2d_5"/><use xlink:href="#m5258f733c7" x="206.797" y="431.72" style="fill:#adf7f6;stroke:#adf7f6;stroke-width:.8" id="line2d_6"/><g style="fill:#adf7f6" transform="matrix(.15 0 0 -.15 197.767 456.697)" id="text_3"><defs><path id="DejaVuSansMono-36" d="M3097 4563v-582q-197 116-419 177t-462 61q-600 0-910-452-309-451-309-1329 150 312 415 479 266 167 610 167 675 0 1045-414 371-414 371-1173 0-756-382-1172Q2675-91 1984-91q-812 0-1190 583T416 2328q0 1181 454 1801 455 621 1318 621 231 0 462-49 231-48 447-138zM1972 2591q-403 0-635-291-231-291-231-803 0-513 231-804 232-290 635-290 419 0 631 276 213 277 213 818 0 544-213 819-212 275-631 275z" transform="scale(.01563)"/></defs><use xlink:href="#DejaVuSansMono-36"/><use xlink:href="#DejaVuSansMono-30" transform="translate(60.205)"/></g></g><g id="xtick_4"><path d="M248.398 431.72V7.2" clip-path="url(#p6e2af1a21b)" style="fill:none;stroke-dasharray:1,1.65;stroke-dashoffset:0;stroke:#469ecc;stroke-opacity:.33" id="line2d_7"/><use xlink:href="#m5258f733c7" x="248.398" y="431.72" style="fill:#adf7f6;stroke:#adf7f6;stroke-width:.8" id="line2d_8"/><g style="fill:#adf7f6" transform="matrix(.15 0 0 -.15 239.367 456.697)" id="text_4"><defs><path id="DejaVuSansMono-37" d="M434 4666h2938v-269L1703 0h-659l1625 4134H434v532z" transform="scale(.01563)"/></defs><use xlink:href="#DejaVuSansMono-37"/><use xlink:href="#DejaVuSansMono-30" transform="translate(60.205)"/></g></g><g id="xtick_5"><path d="M289.998 431.72V7.2" clip-path="url(#p6e2af1a21b)" style="fill:none;stroke-dasharray:1,1.65;stroke-dashoffset:0;stroke:#469ecc;stroke-opacity:.33" id="line2d_9"/><use xlink:href="#m5258f733c7" x="289.998" y="431.72" style="fill:#adf7f6;stroke:#adf7f6;stroke-width:.8" id="line2d_10"/><g style="fill:#adf7f6" transform="matrix(.15 0 0 -.15 280.968 456.697)" id="text_5"><defs><path id="DejaVuSansMono-38" d="M1925 2216q-422 0-652-236-229-236-229-667 0-432 232-671 233-239 649-239 425 0 654 236 230 236 230 674 0 428-233 665-232 238-651 238zm-550 262q-403 103-630 384-226 282-226 679 0 556 378 882 378 327 1028 327 653 0 1031-327 378-326 378-882 0-397-227-679-226-281-629-384 469-103 717-416 249-312 249-809 0-631-403-988Q2638-91 1925-91q-712 0-1114 355t-402 983q0 500 248 814 249 314 718 417zm-228 1003q0-375 200-572 200-196 578-196 381 0 581 196 200 197 200 572 0 382-199 582-198 200-582 200-378 0-578-202t-200-580z" transform="scale(.01563)"/></defs><use xlink:href="#DejaVuSansMono-38"/><use xlink:href="#DejaVuSansMono-30" transform="translate(60.205)"/></g></g><g id="xtick_6"><path d="M331.599 431.72V7.2" clip-path="url(#p6e2af1a21b)" style="fill:none;stroke-dasharray:1,1.65;stroke-dashoffset:0;stroke:#469ecc;stroke-opacity:.33" id="line2d_11"/><use xlink:href="#m5258f733c7" x="331.599" y="431.72" style="fill:#adf7f6;stroke:#adf7f6;stroke-width:.8" id="line2d_12"/><g style="fill:#adf7f6" transform="matrix(.15 0 0 -.15 322.568 456.697)" id="text_6"><defs><path id="DejaVuSansMono-39" d="M1863 2069q403 0 632 290 230 291 230 804 0 512-230 802-229 291-632 291-419 0-632-277-212-276-212-816 0-544 211-819t633-275zM738 97v581q196-115 418-176t463-61q600 0 907 451 308 452 308 1330-146-313-412-480t-609-167q-675 0-1046 415-370 416-370 1179 0 753 379 1167 380 414 1074 414 813 0 1191-585 378-584 378-1837 0-1178-455-1799Q2509-91 1644-91q-228 0-460 49Q953 6 738 97z" transform="scale(.01563)"/></defs><use xlink:href="#DejaVuSansMono-39"/><use xlink:href="#DejaVuSansMono-30" transform="translate(60.205)"/></g></g><g id="xtick_7"><path d="M373.2 431.72V7.2" clip-path="url(#p6e2af1a21b)" style="fill:none;stroke-dasharray:1,1.65;stroke-dashoffset:0;stroke:#469ecc;stroke-opacity:.33" id="line2d_13"/><use xlink:href="#m5258f733c7" x="373.2" y="431.72" style="fill:#adf7f6;stroke:#adf7f6;stroke-width:.8" id="line2d_14"/><g style="fill:#adf7f6" transform="matrix(.15 0 0 -.15 359.654 456.697)" id="text_7"><defs><path id="DejaVuSansMono-31" d="M844 531h981v3566L769 3859v575l1050 232h631V531h969V0H844v531z" transform="scale(.01563)"/></defs><use xlink:href="#DejaVuSansMono-31"/><use xlink:href="#DejaVuSansMono-30" transform="translate(60.205)"/><use xlink:href="#DejaVuSansMono-30" transform="translate(120.41)"/></g></g><g id="xtick_8"><path d="M414.8 431.72V7.2" clip-path="url(#p6e2af1a21b)" style="fill:none;stroke-dasharray:1,1.65;stroke-dashoffset:0;stroke:#469ecc;stroke-opacity:.33" id="line2d_15"/><use xlink:href="#m5258f733c7" x="414.8" y="431.72" style="fill:#adf7f6;stroke:#adf7f6;stroke-width:.8" id="line2d_16"/><g style="fill:#adf7f6" transform="matrix(.15 0 0 -.15 401.254 456.697)" id="text_8"><use xlink:href="#DejaVuSansMono-31"/><use xlink:href="#DejaVuSansMono-31" transform="translate(60.205)"/><use xlink:href="#DejaVuSansMono-30" transform="translate(120.41)"/></g></g><g id="xtick_9"><path d="M456.4 431.72V7.2" clip-path="url(#p6e2af1a21b)" style="fill:none;stroke-dasharray:1,1.65;stroke-dashoffset:0;stroke:#469ecc;stroke-opacity:.33" id="line2d_17"/><use xlink:href="#m5258f733c7" x="456.401" y="431.72" style="fill:#adf7f6;stroke:#adf7f6;stroke-width:.8" id="line2d_18"/><g style="fill:#adf7f6" transform="matrix(.15 0 0 -.15 442.855 456.697)" id="text_9"><defs><path id="DejaVuSansMono-32" d="M1166 531h2143V0H475v531q584 616 1021 1088 438 472 604 665 313 382 422 618t109 482q0 391-230 613-229 222-629 222-284 0-597-103-312-103-662-313v638q321 153 632 231t614 78q685 0 1102-364t417-955q0-300-139-600t-451-662q-175-203-508-563-333-359-1014-1075z" transform="scale(.01563)"/></defs><use xlink:href="#DejaVuSansMono-31"/><use xlink:href="#DejaVuSansMono-32" transform="translate(60.205)"/><use xlink:href="#DejaVuSansMono-30" transform="translate(120.41)"/></g></g><g id="xtick_10"><path d="M498.001 431.72V7.2" clip-path="url(#p6e2af1a21b)" style="fill:none;stroke-dasharray:1,1.65;stroke-dashoffset:0;stroke:#469ecc;stroke-opacity:.33" id="line2d_19"/><use xlink:href="#m5258f733c7" x="498.001" y="431.72" style="fill:#adf7f6;stroke:#adf7f6;stroke-width:.8" id="line2d_20"/><g style="fill:#adf7f6" transform="matrix(.15 0 0 -.15 484.456 456.697)" id="text_10"><defs><path id="DejaVuSansMono-33" d="M2425 2497q459-122 703-433t244-776q0-644-433-1012Q2506-91 1741-91q-322 0-657 60-334 59-656 172v628q319-166 628-247 310-81 616-81 519 0 797 234t278 675q0 406-278 645t-753 239h-482v519h482q434 0 678 190 244 191 244 532 0 359-227 551-227 193-645 193-278 0-575-63-297-62-622-187v581q378 100 673 150 296 50 524 50 681 0 1089-342t408-908q0-384-215-641-214-256-623-362z" transform="scale(.01563)"/></defs><use xlink:href="#DejaVuSansMono-31"/><use xlink:href="#DejaVuSansMono-33" transform="translate(60.205)"/><use xlink:href="#DejaVuSansMono-30" transform="translate(120.41)"/></g></g><g id="xtick_11"><path d="M539.602 431.72V7.2" clip-path="url(#p6e2af1a21b)" style="fill:none;stroke-dasharray:1,1.65;stroke-dashoffset:0;stroke:#469ecc;stroke-opacity:.33" id="line2d_21"/><use xlink:href="#m5258f733c7" x="539.602" y="431.72" style="fill:#adf7f6;stroke:#adf7f6;stroke-width:.8" id="line2d_22"/><g style="fill:#adf7f6" transform="matrix(.15 0 0 -.15 526.056 456.697)" id="text_11"><use xlink:href="#DejaVuSansMono-31"/><use xlink:href="#DejaVuSansMono-34" transform="translate(60.205)"/><use xlink:href="#DejaVuSansMono-30" transform="translate(120.41)"/></g></g><g id="xtick_12"><path d="M581.203 431.72V7.2" clip-path="url(#p6e2af1a21b)" style="fill:none;stroke-dasharray:1,1.65;stroke-dashoffset:0;stroke:#469ecc;stroke-opacity:.33" id="line2d_23"/><use xlink:href="#m5258f733c7" x="581.203" y="431.72" style="fill:#adf7f6;stroke:#adf7f6;stroke-width:.8" id="line2d_24"/><g style="fill:#adf7f6" transform="matrix(.15 0 0 -.15 567.657 456.697)" id="text_12"><use xlink:href="#DejaVuSansMono-31"/><use xlink:href="#DejaVuSansMono-35" transform="translate(60.205)"/><use xlink:href="#DejaVuSansMono-30" transform="translate(120.41)"/></g></g><g id="xtick_13"><path d="M622.803 431.72V7.2" clip-path="url(#p6e2af1a21b)" style="fill:none;stroke-dasharray:1,1.65;stroke-dashoffset:0;stroke:#469ecc;stroke-opacity:.33" id="line2d_25"/><use xlink:href="#m5258f733c7" x="622.803" y="431.72" style="fill:#adf7f6;stroke:#adf7f6;stroke-width:.8" id="line2d_26"/><g style="fill:#adf7f6" transform="matrix(.15 0 0 -.15 609.257 456.697)" id="text_13"><use xlink:href="#DejaVuSansMono-31"/><use xlink:href="#DejaVuSansMono-36" transform="translate(60.205)"/><use xlink:href="#DejaVuSansMono-30" transform="translate(120.41)"/></g></g><g id="xtick_14"><path d="M664.404 431.72V7.2" clip-path="url(#p6e2af1a21b)" style="fill:none;stroke-dasharray:1,1.65;stroke-dashoffset:0;stroke:#469ecc;stroke-opacity:.33" id="line2d_27"/><use xlink:href="#m5258f733c7" x="664.404" y="431.72" style="fill:#adf7f6;stroke:#adf7f6;stroke-width:.8" id="line2d_28"/><g style="fill:#adf7f6" transform="matrix(.15 0 0 -.15 650.858 456.697)" id="text_14"><use xlink:href="#DejaVuSansMono-31"/><use xlink:href="#DejaVuSansMono-37" transform="translate(60.205)"/><use xlink:href="#DejaVuSansMono-30" transform="translate(120.41)"/></g></g><g id="xtick_15"><path d="M706.004 431.72V7.2" clip-path="url(#p6e2af1a21b)" style="fill:none;stroke-dasharray:1,1.65;stroke-dashoffset:0;stroke:#469ecc;stroke-opacity:.33" id="line2d_29"/><use xlink:href="#m5258f733c7" x="706.004" y="431.72" style="fill:#adf7f6;stroke:#adf7f6;stroke-width:.8" id="line2d_30"/><g style="fill:#adf7f6" transform="matrix(.15 0 0 -.15 692.459 456.697)" id="text_15"><use xlink:href="#DejaVuSansMono-31"/><use xlink:href="#DejaVuSansMono-38" transform="translate(60.205)"/><use xlink:href="#DejaVuSansMono-30" transform="translate(120.41)"/></g></g><g id="xtick_16"><path d="M747.605 431.72V7.2" clip-path="url(#p6e2af1a21b)" style="fill:none;stroke-dasharray:1,1.65;stroke-dashoffset:0;stroke:#469ecc;stroke-opacity:.33" id="line2d_31"/><use xlink:href="#m5258f733c7" x="747.605" y="431.72" style="fill:#adf7f6;stroke:#adf7f6;stroke-width:.8" id="line2d_32"/><g style="fill:#adf7f6" transform="matrix(.15 0 0 -.15 734.06 456.697)" id="text_16"><use xlink:href="#DejaVuSansMono-31"/><use xlink:href="#DejaVuSansMono-39" transform="translate(60.205)"/><use xlink:href="#DejaVuSansMono-30" transform="translate(120.41)"/></g></g><g style="fill:#73e3bb" transform="matrix(.17 0 0 -.17 353.724 482.825)" id="text_17"><defs><path id="DejaVuSansMono-50" d="M1247 4147V2394h731q438 0 683 231t245 647q0 416-244 645-243 230-684 230h-731zm-631 519h1362q781 0 1184-355 404-355 404-1039 0-691-402-1044-401-353-1186-353h-731V0H616v4666z" transform="scale(.01563)"/><path id="DejaVuSansMono-61" d="M2194 1759h-191q-503 0-758-177-254-176-254-526 0-315 190-490 191-175 528-175 475 0 747 329 272 330 275 911v128h-537zm1115 238V0h-578v519q-184-313-464-462-279-148-679-148-535 0-854 302-318 302-318 808 0 584 392 887t1151 303h772v91q-3 419-213 608-209 189-668 189-294 0-594-85-300-84-584-246v575q319 122 611 182 292 61 567 61 434 0 742-128t499-384q118-156 168-386t50-689z" transform="scale(.01563)"/><path id="DejaVuSansMono-63" d="M3316 178Q3084 44 2839-23q-245-68-501-68-813 0-1271 487-458 488-458 1351 0 862 458 1349 458 488 1271 488 253 0 493-66 241-65 485-202v-603q-228 203-458 293-230 91-520 91-541 0-832-350-290-350-290-1000 0-647 292-999 292-351 830-351 300 0 537 92 238 92 441 286V178z" transform="scale(.01563)"/><path id="DejaVuSansMono-6b" d="M738 4863h593V2047l1510 1453h700L2163 2181 3756 0h-703L1759 1806l-428-403V0H738v4863z" transform="scale(.01563)"/><path id="DejaVuSansMono-43" d="M3353 166Q3113 38 2859-26q-253-65-537-65-897 0-1393 634-495 635-495 1785 0 1144 498 1783 499 639 1390 639 284 0 537-64 254-64 494-192v-647q-231 191-497 291-265 100-534 100-616 0-922-475t-306-1435q0-956 306-1431t922-475q275 0 539 100t492 291V166z" transform="scale(.01563)"/><path id="DejaVuSansMono-75" d="M609 1325v2169h575V1325q0-472 167-694 168-222 518-222 406 0 621 286 216 286 216 821v1978h578V0h-578v525q-153-303-417-460-264-156-617-156-538 0-801 352-262 352-262 1064z" transform="scale(.01563)"/><path id="DejaVuSansMono-72" d="M3609 2778q-184 144-375 209-190 66-418 66-538 0-823-338-284-337-284-974V0h-578v3500h578v-684q144 372 442 570 299 198 708 198 213 0 397-53 185-53 353-165v-588z" transform="scale(.01563)"/><path id="DejaVuSansMono-65" d="M3475 1894v-281H984v-19q0-572 298-885 299-312 843-312 275 0 575 87 300 88 641 266V178Q3013 44 2708-23q-305-68-589-68-816 0-1276 489-459 490-459 1349 0 837 450 1337t1200 500q669 0 1055-453t386-1237zm-575 169q-12 506-239 770t-652 264q-415 0-684-275t-319-763l1894 4z" transform="scale(.01563)"/><path id="DejaVuSansMono-6e" d="M3284 2169V0h-578v2169q0 472-166 693-165 222-518 222-403 0-621-286-217-285-217-820V0H609v3500h575v-525q154 300 416 454 263 155 622 155 534 0 798-352 264-351 264-1063z" transform="scale(.01563)"/><path id="DejaVuSansMono-74" d="M1919 4494v-994h1306v-447H1919V1153q0-387 147-541 147-153 512-153h647V0h-703q-647 0-913 259-265 260-265 894v1900H409v447h935v994h575z" transform="scale(.01563)"/><path id="DejaVuSansMono-28" d="M2766 4856q-416-712-621-1420-204-708-204-1427 0-715 204-1425 205-709 621-1428h-500q-472 744-704 1448-231 705-231 1405 0 697 231 1403 232 707 704 1444h500z" transform="scale(.01563)"/><path id="DejaVuSansMono-41" d="m1925 4109-666-2387h1332l-666 2387zm-381 557h765L3738 0h-654l-343 1216H1106L769 0H116l1428 4666z" transform="scale(.01563)"/><path id="DejaVuSansMono-29" d="M1088 4856h500q471-737 702-1444 232-706 232-1403 0-703-232-1409-231-706-702-1444h-500q415 725 620 1434 205 710 205 1419 0 713-205 1422-205 710-620 1425z" transform="scale(.01563)"/></defs><use xlink:href="#DejaVuSansMono-50"/><use xlink:href="#DejaVuSansMono-61" transform="translate(60.205)"/><use xlink:href="#DejaVuSansMono-63" transform="translate(120.41)"/><use xlink:href="#DejaVuSansMono-6b" transform="translate(180.615)"/><use xlink:href="#DejaVuSansMono-20" transform="translate(240.82)"/><use xlink:href="#DejaVuSansMono-43" transform="translate(301.025)"/><use xlink:href="#DejaVuSansMono-75" transform="translate(361.23)"/><use xlink:href="#DejaVuSansMono-72" transform="translate(421.436)"/><use xlink:href="#DejaVuSansMono-72" transform="translate(481.64)"/><use xlink:href="#DejaVuSansMono-65" transform="translate(541.846)"/><use xlink:href="#DejaVuSansMono-6e" transform="translate(602.05)"/><use xlink:href="#DejaVuSansMono-74" transform="translate(662.256)"/><use xlink:href="#DejaVuSansMono-20" transform="translate(722.46)"/><use xlink:href="#DejaVuSansMono-28" transform="translate(782.666)"/><use xlink:href="#DejaVuSansMono-41" transform="translate(842.871)"/><use xlink:href="#DejaVuSansMono-29" transform="translate(903.076)"/></g></g><g id="matplotlib.axis_2"><g id="ytick_1"><path d="M92.395 422.452h686.41" clip-path="url(#p6e2af1a21b)" style="fill:none;stroke-dasharray:1,1.65;stroke-dashoffset:0;stroke:#469ecc;stroke-opacity:.33" id="line2d_33"/><g id="line2d_34"><defs><path id="mfcc1aaf345" d="M0 0h-3.5" style="stroke:#adf7f6;stroke-width:.8"/></defs><use xlink:href="#mfcc1aaf345" x="92.395" y="422.452" style="fill:#adf7f6;stroke:#adf7f6;stroke-width:.8"/></g><use xlink:href="#DejaVuSansMono-30" style="fill:#adf7f6" transform="matrix(.15 0 0 -.15 69.865 428.19)" id="text_18"/></g><g id="ytick_2"><path d="M92.395 377.683h686.41" clip-path="url(#p6e2af1a21b)" style="fill:none;stroke-dasharray:1,1.65;stroke-dashoffset:0;stroke:#469ecc;stroke-opacity:.33" id="line2d_35"/><use xlink:href="#mfcc1aaf345" x="92.395" y="377.683" style="fill:#adf7f6;stroke:#adf7f6;stroke-width:.8" id="line2d_36"/><g style="fill:#adf7f6" transform="matrix(.15 0 0 -.15 51.804 383.422)" id="text_19"><use xlink:href="#DejaVuSansMono-32"/><use xlink:href="#DejaVuSansMono-30" transform="translate(60.205)"/><use xlink:href="#DejaVuSansMono-30" transform="translate(120.41)"/></g></g><g id="ytick_3"><path d="M92.395 332.915h686.41" clip-path="url(#p6e2af1a21b)" style="fill:none;stroke-dasharray:1,1.65;stroke-dashoffset:0;stroke:#469ecc;stroke-opacity:.33" id="line2d_37"/><use xlink:href="#mfcc1aaf345" x="92.395" y="332.915" style="fill:#adf7f6;stroke:#adf7f6;stroke-width:.8" id="line2d_38"/><g style="fill:#adf7f6" transform="matrix(.15 0 0 -.15 51.804 338.653)" id="text_20"><use xlink:href="#DejaVuSansMono-34"/><use xlink:href="#DejaVuSansMono-30" transform="translate(60.205)"/><use xlink:href="#DejaVuSansMono-30" transform="translate(120.41)"/></g></g><g id="ytick_4"><path d="M92.395 288.146h686.41" clip-path="url(#p6e2af1a21b)" style="fill:none;stroke-dasharray:1,1.65;stroke-dashoffset:0;stroke:#469ecc;stroke-opacity:.33" id="line2d_39"/><use xlink:href="#mfcc1aaf345" x="92.395" y="288.146" style="fill:#adf7f6;stroke:#adf7f6;stroke-width:.8" id="line2d_40"/><g style="fill:#adf7f6" transform="matrix(.15 0 0 -.15 51.804 293.885)" id="text_21"><use xlink:href="#DejaVuSansMono-36"/><use xlink:href="#DejaVuSansMono-30" transform="translate(60.205)"/><use xlink:href="#DejaVuSansMono-30" transform="translate(120.41)"/></g></g><g id="ytick_5"><path d="M92.395 243.378h686.41" clip-path="url(#p6e2af1a21b)" style="fill:none;stroke-dasharray:1,1.65;stroke-dashoffset:0;stroke:#469ecc;stroke-opacity:.33" id="line2d_41"/><use xlink:href="#mfcc1aaf345" x="92.395" y="243.378" style="fill:#adf7f6;stroke:#adf7f6;stroke-width:.8" id="line2d_42"/><g style="fill:#adf7f6" transform="matrix(.15 0 0 -.15 51.804 249.116)" id="text_22"><use xlink:href="#DejaVuSansMono-38"/><use xlink:href="#DejaVuSansMono-30" transform="translate(60.205)"/><use xlink:href="#DejaVuSansMono-30" transform="translate(120.41)"/></g></g><g id="ytick_6"><path d="M92.395 198.609h686.41" clip-path="url(#p6e2af1a21b)" style="fill:none;stroke-dasharray:1,1.65;stroke-dashoffset:0;stroke:#469ecc;stroke-opacity:.33" id="line2d_43"/><use xlink:href="#mfcc1aaf345" x="92.395" y="198.609" style="fill:#adf7f6;stroke:#adf7f6;stroke-width:.8" id="line2d_44"/><g style="fill:#adf7f6" transform="matrix(.15 0 0 -.15 42.774 204.348)" id="text_23"><use xlink:href="#DejaVuSansMono-31"/><use xlink:href="#DejaVuSansMono-30" transform="translate(60.205)"/><use xlink:href="#DejaVuSansMono-30" transform="translate(120.41)"/><use xlink:href="#DejaVuSansMono-30" transform="translate(180.615)"/></g></g><g id="ytick_7"><path d="M92.395 153.84h686.41" clip-path="url(#p6e2af1a21b)" style="fill:none;stroke-dasharray:1,1.65;stroke-dashoffset:0;stroke:#469ecc;stroke-opacity:.33" id="line2d_45"/><use xlink:href="#mfcc1aaf345" x="92.395" y="153.84" style="fill:#adf7f6;stroke:#adf7f6;stroke-width:.8" id="line2d_46"/><g style="fill:#adf7f6" transform="matrix(.15 0 0 -.15 42.774 159.58)" id="text_24"><use xlink:href="#DejaVuSansMono-31"/><use xlink:href="#DejaVuSansMono-32" transform="translate(60.205)"/><use xlink:href="#DejaVuSansMono-30" transform="translate(120.41)"/><use xlink:href="#DejaVuSansMono-30" transform="translate(180.615)"/></g></g><g id="ytick_8"><path d="M92.395 109.072h686.41" clip-path="url(#p6e2af1a21b)" style="fill:none;stroke-dasharray:1,1.65;stroke-dashoffset:0;stroke:#469ecc;stroke-opacity:.33" id="line2d_47"/><use xlink:href="#mfcc1aaf345" x="92.395" y="109.072" style="fill:#adf7f6;stroke:#adf7f6;stroke-width:.8" id="line2d_48"/><g style="fill:#adf7f6" transform="matrix(.15 0 0 -.15 42.774 114.81)" id="text_25"><use xlink:href="#DejaVuSansMono-31"/><use xlink:href="#DejaVuSansMono-34" transform="translate(60.205)"/><use xlink:href="#DejaVuSansMono-30" transform="translate(120.41)"/><use xlink:href="#DejaVuSansMono-30" transform="translate(180.615)"/></g></g><g id="ytick_9"><path d="M92.395 64.303h686.41" clip-path="url(#p6e2af1a21b)" style="fill:none;stroke-dasharray:1,1.65;stroke-dashoffset:0;stroke:#469ecc;stroke-opacity:.33" id="line2d_49"/><use xlink:href="#mfcc1aaf345" x="92.395" y="64.303" style="fill:#adf7f6;stroke:#adf7f6;stroke-width:.8" id="line2d_50"/><g style="fill:#adf7f6" transform="matrix(.15 0 0 -.15 42.774 70.042)" id="text_26"><use xlink:href="#DejaVuSansMono-31"/><use xlink:href="#DejaVuSansMono-36" transform="translate(60.205)"/><use xlink:href="#DejaVuSansMono-30" transform="translate(120.41)"/><use xlink:href="#DejaVuSansMono-30" transform="translate(180.615)"/></g></g><g id="ytick_10"><path d="M92.395 19.535h686.41" clip-path="url(#p6e2af1a21b)" style="fill:none;stroke-dasharray:1,1.65;stroke-dashoffset:0;stroke:#469ecc;stroke-opacity:.33" id="line2d_51"/><use xlink:href="#mfcc1aaf345" x="92.395" y="19.535" style="fill:#adf7f6;stroke:#adf7f6;stroke-width:.8" id="line2d_52"/><g style="fill:#adf7f6" transform="matrix(.15 0 0 -.15 42.774 25.274)" id="text_27"><use xlink:href="#DejaVuSansMono-31"/><use xlink:href="#DejaVuSansMono-38" transform="translate(60.205)"/><use xlink:href="#DejaVuSansMono-30" transform="translate(120.41)"/><use xlink:href="#DejaVuSansMono-30" transform="translate(180.615)"/></g></g><g style="fill:#73e3bb" transform="matrix(0 -.17 -.17 0 29.238 367.86)" id="text_28"><defs><path id="DejaVuSansMono-54" d="M147 4666h3559v-532H2247V0h-634v4134H147v532z" transform="scale(.01563)"/><path id="DejaVuSansMono-6f" d="M1925 3097q-437 0-662-341-225-340-225-1009 0-666 225-1008t662-342q441 0 666 342t225 1008q0 669-225 1009-225 341-666 341zm0 487q728 0 1114-472 386-471 386-1365 0-897-385-1368Q2656-91 1925-91q-728 0-1113 470-384 471-384 1368 0 894 384 1365 385 472 1113 472z" transform="scale(.01563)"/><path id="DejaVuSansMono-6c" d="M1997 1269q0-388 142-585 142-196 420-196h672V0h-728q-515 0-798 331-283 332-283 938v3178H500v450h1497V1269z" transform="scale(.01563)"/><path id="DejaVuSansMono-48" d="M428 4666h635V2753h1728v1913h634V0h-634v2222H1063V0H428v4666z" transform="scale(.01563)"/><path id="DejaVuSansMono-47" d="M3450 384q-253-234-570-355-317-120-686-120-888 0-1382 636-493 636-493 1783 0 1144 500 1783t1390 639q294 0 563-83t519-251v-647q-253 240-519 354-266 115-563 115-615 0-923-477T978 2328q0-972 298-1439 299-467 918-467 209 0 367 48 158 49 286 152v1253h-678v519h1281V384z" transform="scale(.01563)"/><path id="DejaVuSansMono-69" d="M800 3500h1472V447h1141V0H556v447h1141v2606H800v447zm897 1363h575v-729h-575v729z" transform="scale(.01563)"/><path id="DejaVuSansMono-57" d="M0 4666h616l447-3788 531 2506h659l538-2512 447 3794h615L3156 0h-597l-634 2772L1294 0H697L0 4666z" transform="scale(.01563)"/><path id="DejaVuSansMono-73" d="M3041 3378v-562q-247 143-497 215t-510 72q-390 0-583-127-192-126-192-385 0-235 144-351 144-115 716-224l231-44q428-81 648-325 221-244 221-634 0-519-369-812Q2481-91 1825-91q-259 0-544 55-284 55-615 164v594q322-166 615-249 294-82 557-82 381 0 590 154 210 155 210 433 0 400-766 553l-25 7-216 43q-497 97-725 327t-228 626q0 504 340 777 341 273 973 273 281 0 540-52 260-51 510-154z" transform="scale(.01563)"/></defs><use xlink:href="#DejaVuSansMono-54"/><use xlink:href="#DejaVuSansMono-6f" transform="translate(60.205)"/><use xlink:href="#DejaVuSansMono-74" transform="translate(120.41)"/><use xlink:href="#DejaVuSansMono-61" transform="translate(180.615)"/><use xlink:href="#DejaVuSansMono-6c" transform="translate(240.82)"/><use xlink:href="#DejaVuSansMono-20" transform="translate(301.025)"/><use xlink:href="#DejaVuSansMono-48" transform="translate(361.23)"/><use xlink:href="#DejaVuSansMono-65" transform="translate(421.436)"/><use xlink:href="#DejaVuSansMono-61" transform="translate(481.64)"/><use xlink:href="#DejaVuSansMono-74" transform="translate(541.846)"/><use xlink:href="#DejaVuSansMono-20" transform="translate(602.05)"/><use xlink:href="#DejaVuSansMono-47" transform="translate(662.256)"/><use xlink:href="#DejaVuSansMono-65" transform="translate(722.46)"/><use xlink:href="#DejaVuSansMono-6e" transform="translate(782.666)"/><use xlink:href="#DejaVuSansMono-65" transform="translate(842.871)"/><use xlink:href="#DejaVuSansMono-72" transform="translate(903.076)"/><use xlink:href="#DejaVuSansMono-61" transform="translate(963.281)"/><use xlink:href="#DejaVuSansMono-74" transform="translate(1023.486)"/><use xlink:href="#DejaVuSansMono-69" transform="translate(1083.691)"/><use xlink:href="#DejaVuSansMono-6f" transform="translate(1143.896)"/><use xlink:href="#DejaVuSansMono-6e" transform="translate(1204.102)"/><use xlink:href="#DejaVuSansMono-20" transform="translate(1264.307)"/><use xlink:href="#DejaVuSansMono-28" transform="translate(1324.512)"/><use xlink:href="#DejaVuSansMono-57" transform="translate(1384.717)"/><use xlink:href="#DejaVuSansMono-61" transform="translate(1444.922)"/><use xlink:href="#DejaVuSansMono-74" transform="translate(1505.127)"/><use xlink:href="#DejaVuSansMono-74" transform="translate(1565.332)"/><use xlink:href="#DejaVuSansMono-73" transform="translate(1625.537)"/><use xlink:href="#DejaVuSansMono-29" transform="translate(1685.742)"/></g></g><path d="m123.596 412.424 6.303-.774 6.303-.803 6.303-.832 6.303-.86 6.304-.89 6.303-.918 6.303-.946 6.303-.976 6.303-1.004 6.303-1.033 6.303-1.062 6.303-1.09 6.304-1.12 6.303-1.148 6.303-1.177 6.303-1.206 6.303-1.235 6.303-1.263 6.303-1.292 6.303-1.32 6.303-1.35 6.304-1.379 6.303-1.407 6.303-1.436 6.303-1.465 6.303-1.493 6.303-1.523 6.303-1.55 6.303-1.58 6.304-1.61 6.303-1.637 6.303-1.666 6.303-1.695 6.303-1.723 6.303-1.753 6.303-1.781 6.303-1.81 6.304-1.84 6.303-1.867 6.303-1.896 6.303-1.925 6.303-1.954 6.303-1.983 6.303-2.012 6.303-2.04 6.304-2.069 6.303-2.098 6.303-2.126 6.303-2.156 6.303-2.184 6.303-2.213 6.303-2.242 6.303-2.27 6.304-2.3 6.303-2.327 6.303-2.357 6.303-2.386 6.303-2.414 6.303-2.443 6.303-2.472 6.303-2.5 6.303-2.53 6.304-2.559 6.303-2.587 6.303-2.616 6.303-2.644 6.303-2.673 6.303-2.703 6.303-2.73 6.303-2.76 6.304-2.789 6.303-2.817 6.303-2.846 6.303-2.875 6.303-2.903 6.303-2.933 6.303-2.96 6.303-2.99 6.304-3.02 6.303-3.047 6.303-3.076 6.303-3.105 6.303-3.134 6.303-3.163 6.303-3.191 6.303-3.22 6.304-3.249 6.303-3.278 6.303-3.306 6.303-3.335 6.303-3.364 6.303-3.393 6.303-3.422 6.303-3.45 6.304-3.48 6.303-3.507 6.303-3.537 6.303-3.565 6.303-3.594" clip-path="url(#p6e2af1a21b)" style="fill:none;stroke:#8dd3c7;stroke-width:2;stroke-linecap:square" id="line2d_53"/><path d="m123.596 409.917 6.303-.968 6.303-1.004 6.303-1.04 6.303-1.075 6.304-1.111 6.303-1.148 6.303-1.183 6.303-1.22 6.303-1.255 6.303-1.291 6.303-1.328 6.303-1.363 6.304-1.4 6.303-1.434 6.303-1.472 6.303-1.507 6.303-1.543 6.303-1.58 6.303-1.614 6.303-1.651 6.303-1.687 6.304-1.723 6.303-1.76 6.303-1.794 6.303-1.831 6.303-1.867 6.303-1.903 6.303-1.939 6.303-1.975 6.304-2.01 6.303-2.047 6.303-2.083 6.303-2.119 6.303-2.154 6.303-2.19 6.303-2.228 6.303-2.262 6.304-2.299 6.303-2.334 6.303-2.37 6.303-2.407 6.303-2.443 6.303-2.478 6.303-2.514 6.303-2.55 6.304-2.587 6.303-2.622 6.303-2.659 6.303-2.694 6.303-2.73 6.303-2.766 6.303-2.802 6.303-2.838 6.304-2.875 6.303-2.91 6.303-2.946 6.303-2.982 6.303-3.018 6.303-3.054 6.303-3.09 6.303-3.125 6.303-3.162 6.304-3.198 6.303-3.234 6.303-3.27 6.303-3.305 6.303-3.342 6.303-3.378 6.303-3.413 6.303-3.45 6.304-3.486 6.303-3.521 6.303-3.558 6.303-3.593 6.303-3.63 6.303-3.665 6.303-3.702 6.303-3.737 6.304-3.773 6.303-3.81 6.303-3.845 6.303-3.881 6.303-3.917 6.303-3.954 6.303-3.989 6.303-4.025 6.304-4.061 6.303-4.097 6.303-4.133 6.303-4.17 6.303-4.204 6.303-4.241 6.303-4.277 6.303-4.313 6.304-4.35 6.303-4.384 6.303-4.42 6.303-4.458 6.303-4.493" clip-path="url(#p6e2af1a21b)" style="fill:none;stroke:#feffb3;stroke-width:2;stroke-linecap:square" id="line2d_54"/><path d="m123.596 407.41 6.303-1.162 6.303-1.204 6.303-1.247 6.303-1.291 6.304-1.334 6.303-1.377 6.303-1.42 6.303-1.463 6.303-1.507 6.303-1.55 6.303-1.592 6.303-1.636 6.304-1.68 6.303-1.722 6.303-1.765 6.303-1.809 6.303-1.851 6.303-1.895 6.303-1.938 6.303-1.982 6.303-2.024 6.304-2.068 6.303-2.11 6.303-2.155 6.303-2.197 6.303-2.24 6.303-2.283 6.303-2.327 6.303-2.37 6.304-2.413 6.303-2.456 6.303-2.5 6.303-2.542 6.303-2.585 6.303-2.629 6.303-2.672 6.303-2.715 6.304-2.758 6.303-2.802 6.303-2.844 6.303-2.888 6.303-2.93 6.303-2.975 6.303-3.017 6.303-3.06 6.304-3.104 6.303-3.147 6.303-3.19 6.303-3.233 6.303-3.276 6.303-3.32 6.303-3.362 6.303-3.406 6.304-3.449 6.303-3.492 6.303-3.535 6.303-3.579 6.303-3.621 6.303-3.665 6.303-3.708 6.303-3.75 6.303-3.795 6.304-3.837 6.303-3.88 6.303-3.925 6.303-3.967 6.303-4.01 6.303-4.053 6.303-4.096 6.303-4.14 6.304-4.182 6.303-4.226 6.303-4.27 6.303-4.312 6.303-4.355 6.303-4.399 6.303-4.441 6.303-4.485 6.304-4.528 6.303-4.571 6.303-4.615 6.303-4.657 6.303-4.7 6.303-4.745 6.303-4.787 6.303-4.83 6.304-4.873 6.303-4.917 6.303-4.96 6.303-5.002 6.303-5.046 6.303-5.09 6.303-5.132 6.303-5.176 6.304-5.218 6.303-5.262 6.303-5.305 6.303-5.348 6.303-5.392" clip-path="url(#p6e2af1a21b)" style="fill:none;stroke:#bfbbd9;stroke-width:2;stroke-linecap:square" id="line2d_55"/><path d="m123.596 404.903 6.303-1.355 6.303-1.405 6.303-1.456 6.303-1.505 6.304-1.556 6.303-1.607 6.303-1.657 6.303-1.707 6.303-1.757 6.303-1.808 6.303-1.859 6.303-1.908 6.304-1.96 6.303-2.009 6.303-2.06 6.303-2.11 6.303-2.16 6.303-2.21 6.303-2.262 6.303-2.311 6.303-2.362 6.304-2.412 6.303-2.463 6.303-2.513 6.303-2.563 6.303-2.614 6.303-2.664 6.303-2.714 6.303-2.765 6.304-2.815 6.303-2.865 6.303-2.916 6.303-2.966 6.303-3.017 6.303-3.067 6.303-3.117 6.303-3.168 6.304-3.218 6.303-3.268 6.303-3.319 6.303-3.369 6.303-3.42 6.303-3.469 6.303-3.52 6.303-3.57 6.304-3.621 6.303-3.672 6.303-3.721 6.303-3.772 6.303-3.822 6.303-3.873 6.303-3.923 6.303-3.973 6.304-4.024 6.303-4.074 6.303-4.125 6.303-4.174 6.303-4.226 6.303-4.275 6.303-4.326 6.303-4.376 6.303-4.427 6.304-4.477 6.303-4.527 6.303-4.578 6.303-4.628 6.303-4.678 6.303-4.729 6.303-4.779 6.303-4.83 6.304-4.88 6.303-4.93 6.303-4.98 6.303-5.031 6.303-5.081 6.303-5.132 6.303-5.182 6.303-5.232 6.304-5.283 6.303-5.333 6.303-5.383 6.303-5.434 6.303-5.484 6.303-5.535 6.303-5.585 6.303-5.635 6.304-5.686 6.303-5.736 6.303-5.786 6.303-5.836 6.303-5.888 6.303-5.937 6.303-5.988 6.303-6.038 6.304-6.088 6.303-6.139 6.303-6.19 6.303-6.239 6.303-6.29" clip-path="url(#p6e2af1a21b)" style="fill:none;stroke:#fa8174;stroke-width:2;stroke-linecap:square" id="line2d_56"/><path d="M581.203 431.72V7.2" clip-path="url(#p6e2af1a21b)" style="fill:none;stroke-dasharray:5.55,2.4;stroke-dashoffset:0;stroke:#fd5548;stroke-opacity:.75;stroke-width:1.5" id="line2d_57"/><path d="M373.2 431.72V7.2" clip-path="url(#p6e2af1a21b)" style="fill:none;stroke-dasharray:5.55,2.4;stroke-dashoffset:0;stroke:orange;stroke-opacity:.75;stroke-width:1.5" id="line2d_58"/><path d="M165.197 431.72V7.2" clip-path="url(#p6e2af1a21b)" style="fill:none;stroke-dasharray:5.55,2.4;stroke-dashoffset:0;stroke:#73e3bb;stroke-opacity:.75;stroke-width:1.5" id="line2d_59"/><path d="M92.395 431.72V7.2" style="fill:none;stroke:#469ecc;stroke-width:1.5;stroke-linejoin:miter;stroke-linecap:square" id="patch_3"/><path d="M778.805 431.72V7.2" style="fill:none;stroke:#469ecc;stroke-width:1.5;stroke-linejoin:miter;stroke-linecap:square" id="patch_4"/><path d="M92.395 431.72h686.41" style="fill:none;stroke:#469ecc;stroke-width:1.5;stroke-linejoin:miter;stroke-linecap:square" id="patch_5"/><path d="M92.395 7.2h686.41" style="fill:none;stroke:#469ecc;stroke-width:1.5;stroke-linejoin:miter;stroke-linecap:square" id="patch_6"/></g><g id="axes_2"><path d="M92.395 927.62h686.41V503.1H92.395z" style="fill:#141d22" id="patch_7"/><g id="matplotlib.axis_3"><g id="xtick_17"><path d="M123.596 927.62V503.1" clip-path="url(#p3664b1989a)" style="fill:none;stroke-dasharray:1,1.65;stroke-dashoffset:0;stroke:#469ecc;stroke-opacity:.33" id="line2d_60"/><use xlink:href="#m5258f733c7" x="123.596" y="927.62" style="fill:#adf7f6;stroke:#adf7f6;stroke-width:.8" id="line2d_61"/><g style="fill:#adf7f6" transform="matrix(.15 0 0 -.15 114.565 952.597)" id="text_29"><use xlink:href="#DejaVuSansMono-34"/><use xlink:href="#DejaVuSansMono-30" transform="translate(60.205)"/></g></g><g id="xtick_18"><path d="M206.797 927.62V503.1" clip-path="url(#p3664b1989a)" style="fill:none;stroke-dasharray:1,1.65;stroke-dashoffset:0;stroke:#469ecc;stroke-opacity:.33" id="line2d_62"/><use xlink:href="#m5258f733c7" x="206.797" y="927.62" style="fill:#adf7f6;stroke:#adf7f6;stroke-width:.8" id="line2d_63"/><g style="fill:#adf7f6" transform="matrix(.15 0 0 -.15 197.767 952.597)" id="text_30"><use xlink:href="#DejaVuSansMono-36"/><use xlink:href="#DejaVuSansMono-30" transform="translate(60.205)"/></g></g><g id="xtick_19"><path d="M289.998 927.62V503.1" clip-path="url(#p3664b1989a)" style="fill:none;stroke-dasharray:1,1.65;stroke-dashoffset:0;stroke:#469ecc;stroke-opacity:.33" id="line2d_64"/><use xlink:href="#m5258f733c7" x="289.998" y="927.62" style="fill:#adf7f6;stroke:#adf7f6;stroke-width:.8" id="line2d_65"/><g style="fill:#adf7f6" transform="matrix(.15 0 0 -.15 280.968 952.597)" id="text_31"><use xlink:href="#DejaVuSansMono-38"/><use xlink:href="#DejaVuSansMono-30" transform="translate(60.205)"/></g></g><g id="xtick_20"><path d="M373.2 927.62V503.1" clip-path="url(#p3664b1989a)" style="fill:none;stroke-dasharray:1,1.65;stroke-dashoffset:0;stroke:#469ecc;stroke-opacity:.33" id="line2d_66"/><use xlink:href="#m5258f733c7" x="373.2" y="927.62" style="fill:#adf7f6;stroke:#adf7f6;stroke-width:.8" id="line2d_67"/><g style="fill:#adf7f6" transform="matrix(.15 0 0 -.15 359.654 952.597)" id="text_32"><use xlink:href="#DejaVuSansMono-31"/><use xlink:href="#DejaVuSansMono-30" transform="translate(60.205)"/><use xlink:href="#DejaVuSansMono-30" transform="translate(120.41)"/></g></g><g id="xtick_21"><path d="M456.4 927.62V503.1" clip-path="url(#p3664b1989a)" style="fill:none;stroke-dasharray:1,1.65;stroke-dashoffset:0;stroke:#469ecc;stroke-opacity:.33" id="line2d_68"/><use xlink:href="#m5258f733c7" x="456.401" y="927.62" style="fill:#adf7f6;stroke:#adf7f6;stroke-width:.8" id="line2d_69"/><g style="fill:#adf7f6" transform="matrix(.15 0 0 -.15 442.855 952.597)" id="text_33"><use xlink:href="#DejaVuSansMono-31"/><use xlink:href="#DejaVuSansMono-32" transform="translate(60.205)"/><use xlink:href="#DejaVuSansMono-30" transform="translate(120.41)"/></g></g><g id="xtick_22"><path d="M539.602 927.62V503.1" clip-path="url(#p3664b1989a)" style="fill:none;stroke-dasharray:1,1.65;stroke-dashoffset:0;stroke:#469ecc;stroke-opacity:.33" id="line2d_70"/><use xlink:href="#m5258f733c7" x="539.602" y="927.62" style="fill:#adf7f6;stroke:#adf7f6;stroke-width:.8" id="line2d_71"/><g style="fill:#adf7f6" transform="matrix(.15 0 0 -.15 526.056 952.597)" id="text_34"><use xlink:href="#DejaVuSansMono-31"/><use xlink:href="#DejaVuSansMono-34" transform="translate(60.205)"/><use xlink:href="#DejaVuSansMono-30" transform="translate(120.41)"/></g></g><g id="xtick_23"><path d="M622.803 927.62V503.1" clip-path="url(#p3664b1989a)" style="fill:none;stroke-dasharray:1,1.65;stroke-dashoffset:0;stroke:#469ecc;stroke-opacity:.33" id="line2d_72"/><use xlink:href="#m5258f733c7" x="622.803" y="927.62" style="fill:#adf7f6;stroke:#adf7f6;stroke-width:.8" id="line2d_73"/><g style="fill:#adf7f6" transform="matrix(.15 0 0 -.15 609.257 952.597)" id="text_35"><use xlink:href="#DejaVuSansMono-31"/><use xlink:href="#DejaVuSansMono-36" transform="translate(60.205)"/><use xlink:href="#DejaVuSansMono-30" transform="translate(120.41)"/></g></g><g id="xtick_24"><path d="M706.004 927.62V503.1" clip-path="url(#p3664b1989a)" style="fill:none;stroke-dasharray:1,1.65;stroke-dashoffset:0;stroke:#469ecc;stroke-opacity:.33" id="line2d_74"/><use xlink:href="#m5258f733c7" x="706.004" y="927.62" style="fill:#adf7f6;stroke:#adf7f6;stroke-width:.8" id="line2d_75"/><g style="fill:#adf7f6" transform="matrix(.15 0 0 -.15 692.459 952.597)" id="text_36"><use xlink:href="#DejaVuSansMono-31"/><use xlink:href="#DejaVuSansMono-38" transform="translate(60.205)"/><use xlink:href="#DejaVuSansMono-30" transform="translate(120.41)"/></g></g><g style="fill:#73e3bb" transform="matrix(.17 0 0 -.17 353.724 978.725)" id="text_37"><use xlink:href="#DejaVuSansMono-50"/><use xlink:href="#DejaVuSansMono-61" transform="translate(60.205)"/><use xlink:href="#DejaVuSansMono-63" transform="translate(120.41)"/><use xlink:href="#DejaVuSansMono-6b" transform="translate(180.615)"/><use xlink:href="#DejaVuSansMono-20" transform="translate(240.82)"/><use xlink:href="#DejaVuSansMono-43" transform="translate(301.025)"/><use xlink:href="#DejaVuSansMono-75" transform="translate(361.23)"/><use xlink:href="#DejaVuSansMono-72" transform="translate(421.436)"/><use xlink:href="#DejaVuSansMono-72" transform="translate(481.64)"/><use xlink:href="#DejaVuSansMono-65" transform="translate(541.846)"/><use xlink:href="#DejaVuSansMono-6e" transform="translate(602.05)"/><use xlink:href="#DejaVuSansMono-74" transform="translate(662.256)"/><use xlink:href="#DejaVuSansMono-20" transform="translate(722.46)"/><use xlink:href="#DejaVuSansMono-28" transform="translate(782.666)"/><use xlink:href="#DejaVuSansMono-41" transform="translate(842.871)"/><use xlink:href="#DejaVuSansMono-29" transform="translate(903.076)"/></g></g><g id="matplotlib.axis_4"><g id="ytick_11"><path d="M92.395 885.308h686.41" clip-path="url(#p3664b1989a)" style="fill:none;stroke-dasharray:1,1.65;stroke-dashoffset:0;stroke:#469ecc;stroke-opacity:.33" id="line2d_76"/><use xlink:href="#mfcc1aaf345" x="92.395" y="885.308" style="fill:#adf7f6;stroke:#adf7f6;stroke-width:.8" id="line2d_77"/><g style="fill:#adf7f6" transform="matrix(.15 0 0 -.15 42.774 891.047)" id="text_38"><use xlink:href="#DejaVuSansMono-32"/><use xlink:href="#DejaVuSansMono-37" transform="translate(60.205)"/><use xlink:href="#DejaVuSansMono-36" transform="translate(120.41)"/><use xlink:href="#DejaVuSansMono-73" transform="translate(180.615)"/></g></g><g id="ytick_12"><path d="M92.395 835.276h686.41" clip-path="url(#p3664b1989a)" style="fill:none;stroke-dasharray:1,1.65;stroke-dashoffset:0;stroke:#469ecc;stroke-opacity:.33" id="line2d_78"/><use xlink:href="#mfcc1aaf345" x="92.395" y="835.276" style="fill:#adf7f6;stroke:#adf7f6;stroke-width:.8" id="line2d_79"/><g style="fill:#adf7f6" transform="matrix(.15 0 0 -.15 42.774 841.014)" id="text_39"><use xlink:href="#DejaVuSansMono-34"/><use xlink:href="#DejaVuSansMono-34" transform="translate(60.205)"/><use xlink:href="#DejaVuSansMono-34" transform="translate(120.41)"/><use xlink:href="#DejaVuSansMono-73" transform="translate(180.615)"/></g></g><g id="ytick_13"><path d="M92.395 785.243h686.41" clip-path="url(#p3664b1989a)" style="fill:none;stroke-dasharray:1,1.65;stroke-dashoffset:0;stroke:#469ecc;stroke-opacity:.33" id="line2d_80"/><use xlink:href="#mfcc1aaf345" x="92.395" y="785.243" style="fill:#adf7f6;stroke:#adf7f6;stroke-width:.8" id="line2d_81"/><g style="fill:#adf7f6" transform="matrix(.15 0 0 -.15 42.774 790.982)" id="text_40"><use xlink:href="#DejaVuSansMono-37"/><use xlink:href="#DejaVuSansMono-31" transform="translate(60.205)"/><use xlink:href="#DejaVuSansMono-35" transform="translate(120.41)"/><use xlink:href="#DejaVuSansMono-73" transform="translate(180.615)"/></g></g><g id="ytick_14"><path d="M92.395 735.211h686.41" clip-path="url(#p3664b1989a)" style="fill:none;stroke-dasharray:1,1.65;stroke-dashoffset:0;stroke:#469ecc;stroke-opacity:.33" id="line2d_82"/><use xlink:href="#mfcc1aaf345" x="92.395" y="735.211" style="fill:#adf7f6;stroke:#adf7f6;stroke-width:.8" id="line2d_83"/><g style="fill:#adf7f6" transform="matrix(.15 0 0 -.15 33.743 740.95)" id="text_41"><use xlink:href="#DejaVuSansMono-31"/><use xlink:href="#DejaVuSansMono-31" transform="translate(60.205)"/><use xlink:href="#DejaVuSansMono-35" transform="translate(120.41)"/><use xlink:href="#DejaVuSansMono-32" transform="translate(180.615)"/><use xlink:href="#DejaVuSansMono-73" transform="translate(240.82)"/></g></g><g id="ytick_15"><path d="M92.395 685.179h686.41" clip-path="url(#p3664b1989a)" style="fill:none;stroke-dasharray:1,1.65;stroke-dashoffset:0;stroke:#469ecc;stroke-opacity:.33" id="line2d_84"/><use xlink:href="#mfcc1aaf345" x="92.395" y="685.179" style="fill:#adf7f6;stroke:#adf7f6;stroke-width:.8" id="line2d_85"/><g style="fill:#adf7f6" transform="matrix(.15 0 0 -.15 33.743 690.918)" id="text_42"><use xlink:href="#DejaVuSansMono-31"/><use xlink:href="#DejaVuSansMono-38" transform="translate(60.205)"/><use xlink:href="#DejaVuSansMono-35" transform="translate(120.41)"/><use xlink:href="#DejaVuSansMono-35" transform="translate(180.615)"/><use xlink:href="#DejaVuSansMono-73" transform="translate(240.82)"/></g></g><g id="ytick_16"><path d="M92.395 635.147h686.41" clip-path="url(#p3664b1989a)" style="fill:none;stroke-dasharray:1,1.65;stroke-dashoffset:0;stroke:#469ecc;stroke-opacity:.33" id="line2d_86"/><use xlink:href="#mfcc1aaf345" x="92.395" y="635.147" style="fill:#adf7f6;stroke:#adf7f6;stroke-width:.8" id="line2d_87"/><g style="fill:#adf7f6" transform="matrix(.15 0 0 -.15 33.743 640.885)" id="text_43"><use xlink:href="#DejaVuSansMono-32"/><use xlink:href="#DejaVuSansMono-39" transform="translate(60.205)"/><use xlink:href="#DejaVuSansMono-38" transform="translate(120.41)"/><use xlink:href="#DejaVuSansMono-37" transform="translate(180.615)"/><use xlink:href="#DejaVuSansMono-73" transform="translate(240.82)"/></g></g><g id="ytick_17"><path d="M92.395 585.114h686.41" clip-path="url(#p3664b1989a)" style="fill:none;stroke-dasharray:1,1.65;stroke-dashoffset:0;stroke:#469ecc;stroke-opacity:.33" id="line2d_88"/><use xlink:href="#mfcc1aaf345" x="92.395" y="585.114" style="fill:#adf7f6;stroke:#adf7f6;stroke-width:.8" id="line2d_89"/><g style="fill:#adf7f6" transform="matrix(.15 0 0 -.15 42.774 590.853)" id="text_44"><defs><path id="DejaVuSansMono-6d" d="M2113 3144q106 225 270 332 164 108 395 108 422 0 595-327 174-326 174-1229V0h-525v2003q0 741-83 920-83 180-301 180-250 0-343-192-92-192-92-908V0h-525v2003q0 750-89 925t-320 175q-228 0-317-192t-89-908V0H341v3500h522v-300q103 188 257 286 155 98 352 98 237 0 395-109t246-331z" transform="scale(.01563)"/></defs><use xlink:href="#DejaVuSansMono-31"/><use xlink:href="#DejaVuSansMono-6d" transform="translate(60.205)"/><use xlink:href="#DejaVuSansMono-69" transform="translate(120.41)"/><use xlink:href="#DejaVuSansMono-6e" transform="translate(180.615)"/></g></g><g id="ytick_18"><path d="M92.395 535.082h686.41" clip-path="url(#p3664b1989a)" style="fill:none;stroke-dasharray:1,1.65;stroke-dashoffset:0;stroke:#469ecc;stroke-opacity:.33" id="line2d_90"/><use xlink:href="#mfcc1aaf345" x="92.395" y="535.082" style="fill:#adf7f6;stroke:#adf7f6;stroke-width:.8" id="line2d_91"/><g style="fill:#adf7f6" transform="matrix(.15 0 0 -.15 42.774 540.82)" id="text_45"><use xlink:href="#DejaVuSansMono-32"/><use xlink:href="#DejaVuSansMono-6d" transform="translate(60.205)"/><use xlink:href="#DejaVuSansMono-69" transform="translate(120.41)"/><use xlink:href="#DejaVuSansMono-6e" transform="translate(180.615)"/></g></g><g id="ytick_19"><g id="line2d_92"><defs><path id="m3e8236910c" d="M0 0h-2" style="stroke:#adf7f6;stroke-width:.6"/></defs><use xlink:href="#m3e8236910c" x="92.395" y="899.867" style="fill:#adf7f6;stroke:#adf7f6;stroke-width:.6"/></g></g><g id="ytick_20"><use xlink:href="#m3e8236910c" x="92.395" y="876.439" style="fill:#adf7f6;stroke:#adf7f6;stroke-width:.6" id="line2d_93"/></g><g id="ytick_21"><use xlink:href="#m3e8236910c" x="92.395" y="857.298" style="fill:#adf7f6;stroke:#adf7f6;stroke-width:.6" id="line2d_94"/></g><g id="ytick_22"><use xlink:href="#m3e8236910c" x="92.395" y="841.114" style="fill:#adf7f6;stroke:#adf7f6;stroke-width:.6" id="line2d_95"/></g><g id="ytick_23"><use xlink:href="#m3e8236910c" x="92.395" y="827.094" style="fill:#adf7f6;stroke:#adf7f6;stroke-width:.6" id="line2d_96"/></g><g id="ytick_24"><use xlink:href="#m3e8236910c" x="92.395" y="814.728" style="fill:#adf7f6;stroke:#adf7f6;stroke-width:.6" id="line2d_97"/></g><g id="ytick_25"><use xlink:href="#m3e8236910c" x="92.395" y="730.894" style="fill:#adf7f6;stroke:#adf7f6;stroke-width:.6" id="line2d_98"/></g><g id="ytick_26"><use xlink:href="#m3e8236910c" x="92.395" y="688.325" style="fill:#adf7f6;stroke:#adf7f6;stroke-width:.6" id="line2d_99"/></g><g id="ytick_27"><use xlink:href="#m3e8236910c" x="92.395" y="658.122" style="fill:#adf7f6;stroke:#adf7f6;stroke-width:.6" id="line2d_100"/></g><g id="ytick_28"><use xlink:href="#m3e8236910c" x="92.395" y="634.695" style="fill:#adf7f6;stroke:#adf7f6;stroke-width:.6" id="line2d_101"/></g><g id="ytick_29"><use xlink:href="#m3e8236910c" x="92.395" y="615.553" style="fill:#adf7f6;stroke:#adf7f6;stroke-width:.6" id="line2d_102"/></g><g id="ytick_30"><use xlink:href="#m3e8236910c" x="92.395" y="599.369" style="fill:#adf7f6;stroke:#adf7f6;stroke-width:.6" id="line2d_103"/></g><g id="ytick_31"><use xlink:href="#m3e8236910c" x="92.395" y="585.35" style="fill:#adf7f6;stroke:#adf7f6;stroke-width:.6" id="line2d_104"/></g><g id="ytick_32"><use xlink:href="#m3e8236910c" x="92.395" y="572.984" style="fill:#adf7f6;stroke:#adf7f6;stroke-width:.6" id="line2d_105"/></g><g style="fill:#73e3bb" transform="matrix(0 -.17 -.17 0 20.208 858.643)" id="text_46"><defs><path id="DejaVuSansMono-68" d="M3284 2169V0h-578v2169q0 472-166 693-165 222-518 222-403 0-621-286-217-285-217-820V0H609v4863h575V2975q154 300 416 454 263 155 622 155 534 0 798-352 264-351 264-1063z" transform="scale(.01563)"/><path id="DejaVuSansMono-b0" d="M1925 4750q203 0 386-77 183-76 320-220 141-140 214-319 74-178 74-384 0-412-291-698-290-286-709-286-422 0-704 281-281 281-281 703 0 419 287 709 288 291 704 291zm0-403q-247 0-421-174-173-173-173-423t170-419q171-168 418-168 250 0 426 171 177 172 177 416 0 247-175 422t-422 175z" transform="scale(.01563)"/></defs><use xlink:href="#DejaVuSansMono-54"/><use xlink:href="#DejaVuSansMono-69" transform="translate(60.205)"/><use xlink:href="#DejaVuSansMono-6d" transform="translate(120.41)"/><use xlink:href="#DejaVuSansMono-65" transform="translate(180.615)"/><use xlink:href="#DejaVuSansMono-20" transform="translate(240.82)"/><use xlink:href="#DejaVuSansMono-74" transform="translate(301.025)"/><use xlink:href="#DejaVuSansMono-6f" transform="translate(361.23)"/><use xlink:href="#DejaVuSansMono-20" transform="translate(421.436)"/><use xlink:href="#DejaVuSansMono-72" transform="translate(481.64)"/><use xlink:href="#DejaVuSansMono-65" transform="translate(541.846)"/><use xlink:href="#DejaVuSansMono-61" transform="translate(602.05)"/><use xlink:href="#DejaVuSansMono-63" transform="translate(662.256)"/><use xlink:href="#DejaVuSansMono-68" transform="translate(722.46)"/><use xlink:href="#DejaVuSansMono-20" transform="translate(782.666)"/><use xlink:href="#DejaVuSansMono-38" transform="translate(842.871)"/><use xlink:href="#DejaVuSansMono-30" transform="translate(903.076)"/><use xlink:href="#DejaVuSansMono-b0" transform="translate(963.281)"/><use xlink:href="#DejaVuSansMono-43" transform="translate(1023.486)"/><use xlink:href="#DejaVuSansMono-20" transform="translate(1083.691)"/><use xlink:href="#DejaVuSansMono-28" transform="translate(1143.896)"/><use xlink:href="#DejaVuSansMono-6d" transform="translate(1204.102)"/><use xlink:href="#DejaVuSansMono-69" transform="translate(1264.307)"/><use xlink:href="#DejaVuSansMono-6e" transform="translate(1324.512)"/><use xlink:href="#DejaVuSansMono-75" transform="translate(1384.717)"/><use xlink:href="#DejaVuSansMono-74" transform="translate(1444.922)"/><use xlink:href="#DejaVuSansMono-65" transform="translate(1505.127)"/><use xlink:href="#DejaVuSansMono-73" transform="translate(1565.332)"/><use xlink:href="#DejaVuSansMono-29" transform="translate(1625.537)"/></g></g><path d="m123.596 522.396 6.303 7.807 6.303 7.527 6.303 7.266 6.303 7.024 6.304 6.796 6.303 6.582 6.303 6.383 6.303 6.195 6.303 6.017 6.303 5.849 6.303 5.69 6.303 5.541 6.304 5.398 6.303 5.263 6.303 5.134 6.303 5.012 6.303 4.895 6.303 4.783 6.303 4.677 6.303 4.575 6.303 4.477 6.304 4.384 6.303 4.294 6.303 4.208 6.303 4.125 6.303 4.046 6.303 3.97 6.303 3.896 6.303 3.824 6.304 3.757 6.303 3.69 6.303 3.627 6.303 3.565 6.303 3.505 6.303 3.448 6.303 3.393 6.303 3.338 6.304 3.286 6.303 3.235 6.303 3.187 6.303 3.139 6.303 3.092 6.303 3.048 6.303 3.004 6.303 2.961 6.304 2.92 6.303 2.881 6.303 2.842 6.303 2.803 6.303 2.767 6.303 2.73 6.303 2.696 6.303 2.661 6.304 2.628 6.303 2.596 6.303 2.563 6.303 2.533 6.303 2.503 6.303 2.473 6.303 2.445 6.303 2.416 6.303 2.389 6.304 2.362 6.303 2.336 6.303 2.31 6.303 2.284 6.303 2.26 6.303 2.237 6.303 2.213 6.303 2.19 6.304 2.166 6.303 2.145 6.303 2.123 6.303 2.102 6.303 2.081 6.303 2.06 6.303 2.041 6.303 2.021 6.304 2.002 6.303 1.983 6.303 1.964 6.303 1.946 6.303 1.928 6.303 1.91 6.303 1.894 6.303 1.877 6.304 1.86 6.303 1.843 6.303 1.828 6.303 1.811 6.303 1.796 6.303 1.781 6.303 1.766 6.303 1.752 6.304 1.737 6.303 1.722 6.303 1.709 6.303 1.694 6.303 1.681" clip-path="url(#p3664b1989a)" style="fill:none;stroke:#8dd3c7;stroke-width:2;stroke-linecap:square" id="line2d_106"/><path d="m123.596 545.824 6.303 7.807 6.303 7.526 6.303 7.267 6.303 7.023 6.304 6.796 6.303 6.583 6.303 6.383 6.303 6.194 6.303 6.017 6.303 5.85 6.303 5.69 6.303 5.54 6.304 5.399 6.303 5.263 6.303 5.134 6.303 5.012 6.303 4.894 6.303 4.784 6.303 4.676 6.303 4.575 6.303 4.477 6.304 4.384 6.303 4.294 6.303 4.209 6.303 4.125 6.303 4.046 6.303 3.97 6.303 3.895 6.303 3.825 6.304 3.756 6.303 3.69 6.303 3.627 6.303 3.565 6.303 3.506 6.303 3.448 6.303 3.392 6.303 3.338 6.304 3.287 6.303 3.235 6.303 3.186 6.303 3.139 6.303 3.093 6.303 3.047 6.303 3.004 6.303 2.962 6.304 2.92 6.303 2.88 6.303 2.842 6.303 2.804 6.303 2.766 6.303 2.73 6.303 2.696 6.303 2.661 6.304 2.628 6.303 2.596 6.303 2.564 6.303 2.533 6.303 2.503 6.303 2.473 6.303 2.444 6.303 2.417 6.303 2.388 6.304 2.362 6.303 2.336 6.303 2.31 6.303 2.285 6.303 2.26 6.303 2.236 6.303 2.213 6.303 2.19 6.304 2.167 6.303 2.144 6.303 2.124 6.303 2.101 6.303 2.081 6.303 2.061 6.303 2.04 6.303 2.022 6.304 2.001 6.303 1.983 6.303 1.964 6.303 1.946 6.303 1.929 6.303 1.91 6.303 1.894 6.303 1.876 6.304 1.86 6.303 1.844 6.303 1.827 6.303 1.812 6.303 1.796 6.303 1.78 6.303 1.767 6.303 1.751 6.304 1.737 6.303 1.723 6.303 1.708 6.303 1.695 6.303 1.681" clip-path="url(#p3664b1989a)" style="fill:none;stroke:#feffb3;stroke-width:2;stroke-linecap:square" id="line2d_107"/><path d="m123.596 564.965 6.303 7.807 6.303 7.527 6.303 7.266 6.303 7.024 6.304 6.796 6.303 6.583 6.303 6.382 6.303 6.195 6.303 6.017 6.303 5.849 6.303 5.69 6.303 5.541 6.304 5.399 6.303 5.262 6.303 5.135 6.303 5.011 6.303 4.895 6.303 4.783 6.303 4.677 6.303 4.575 6.303 4.477 6.304 4.384 6.303 4.294 6.303 4.208 6.303 4.126 6.303 4.045 6.303 3.97 6.303 3.896 6.303 3.825 6.304 3.756 6.303 3.69 6.303 3.627 6.303 3.565 6.303 3.506 6.303 3.447 6.303 3.393 6.303 3.338 6.304 3.286 6.303 3.236 6.303 3.186 6.303 3.139 6.303 3.092 6.303 3.048 6.303 3.004 6.303 2.961 6.304 2.92 6.303 2.881 6.303 2.842 6.303 2.803 6.303 2.767 6.303 2.73 6.303 2.696 6.303 2.661 6.304 2.628 6.303 2.596 6.303 2.564 6.303 2.532 6.303 2.503 6.303 2.473 6.303 2.445 6.303 2.416 6.303 2.389 6.304 2.362 6.303 2.336 6.303 2.31 6.303 2.285 6.303 2.26 6.303 2.236 6.303 2.213 6.303 2.19 6.304 2.166 6.303 2.145 6.303 2.123 6.303 2.102 6.303 2.081 6.303 2.06 6.303 2.041 6.303 2.021 6.304 2.002 6.303 1.983 6.303 1.964 6.303 1.946 6.303 1.928 6.303 1.91 6.303 1.894 6.303 1.877 6.304 1.86 6.303 1.843 6.303 1.828 6.303 1.811 6.303 1.797 6.303 1.78 6.303 1.767 6.303 1.75 6.304 1.738 6.303 1.722 6.303 1.709 6.303 1.694 6.303 1.682" clip-path="url(#p3664b1989a)" style="fill:none;stroke:#bfbbd9;stroke-width:2;stroke-linecap:square" id="line2d_108"/><path d="m123.596 581.15 6.303 7.806 6.303 7.527 6.303 7.266 6.303 7.024 6.304 6.796 6.303 6.583 6.303 6.382 6.303 6.195 6.303 6.017 6.303 5.849 6.303 5.69 6.303 5.541 6.304 5.399 6.303 5.262 6.303 5.135 6.303 5.011 6.303 4.895 6.303 4.783 6.303 4.677 6.303 4.575 6.303 4.477 6.304 4.384 6.303 4.294 6.303 4.208 6.303 4.126 6.303 4.046 6.303 3.969 6.303 3.896 6.303 3.825 6.304 3.756 6.303 3.69 6.303 3.627 6.303 3.565 6.303 3.506 6.303 3.448 6.303 3.392 6.303 3.338 6.304 3.286 6.303 3.236 6.303 3.186 6.303 3.139 6.303 3.092 6.303 3.048 6.303 3.004 6.303 2.961 6.304 2.92 6.303 2.881 6.303 2.842 6.303 2.803 6.303 2.767 6.303 2.73 6.303 2.696 6.303 2.661 6.304 2.628 6.303 2.596 6.303 2.564 6.303 2.532 6.303 2.503 6.303 2.473 6.303 2.445 6.303 2.416 6.303 2.39 6.304 2.361 6.303 2.336 6.303 2.31 6.303 2.285 6.303 2.26 6.303 2.236 6.303 2.213 6.303 2.19 6.304 2.166 6.303 2.145 6.303 2.123 6.303 2.102 6.303 2.081 6.303 2.06 6.303 2.041 6.303 2.021 6.304 2.002 6.303 1.983 6.303 1.964 6.303 1.946 6.303 1.928 6.303 1.91 6.303 1.894 6.303 1.877 6.304 1.86 6.303 1.843 6.303 1.828 6.303 1.811 6.303 1.797 6.303 1.78 6.303 1.767 6.303 1.75 6.304 1.738 6.303 1.722 6.303 1.709 6.303 1.694 6.303 1.682" clip-path="url(#p3664b1989a)" style="fill:none;stroke:#fa8174;stroke-width:2;stroke-linecap:square" id="line2d_109"/><path d="M581.203 927.62V503.1" clip-path="url(#p3664b1989a)" style="fill:none;stroke-dasharray:5.55,2.4;stroke-dashoffset:0;stroke:#fd5548;stroke-opacity:.75;stroke-width:1.5" id="line2d_110"/><path d="M373.2 927.62V503.1" clip-path="url(#p3664b1989a)" style="fill:none;stroke-dasharray:5.55,2.4;stroke-dashoffset:0;stroke:orange;stroke-opacity:.75;stroke-width:1.5" id="line2d_111"/><path d="M165.197 927.62V503.1" clip-path="url(#p3664b1989a)" style="fill:none;stroke-dasharray:5.55,2.4;stroke-dashoffset:0;stroke:#73e3bb;stroke-opacity:.75;stroke-width:1.5" id="line2d_112"/><path d="M92.395 927.62V503.1" style="fill:none;stroke:#469ecc;stroke-width:1.5;stroke-linejoin:miter;stroke-linecap:square" id="patch_8"/><path d="M778.805 927.62V503.1" style="fill:none;stroke:#469ecc;stroke-width:1.5;stroke-linejoin:miter;stroke-linecap:square" id="patch_9"/><path d="M92.395 927.62h686.41" style="fill:none;stroke:#469ecc;stroke-width:1.5;stroke-linejoin:miter;stroke-linecap:square" id="patch_10"/><path d="M92.395 503.1h686.41" style="fill:none;stroke:#469ecc;stroke-width:1.5;stroke-linejoin:miter;stroke-linecap:square" id="patch_11"/></g><g id="axes_3"><g id="matplotlib.axis_5"><g id="ytick_33"><g id="line2d_113"><defs><path id="mbe78f2a1c5" d="M0 0h3.5" style="stroke:#adf7f6;stroke-width:.8"/></defs><use xlink:href="#mbe78f2a1c5" x="778.805" y="380.852" style="fill:#adf7f6;stroke:#adf7f6;stroke-width:.8"/></g><g style="fill:#adf7f6" transform="matrix(.15 0 0 -.15 792.305 386.59)" id="text_47"><use xlink:href="#DejaVuSansMono-38"/><use xlink:href="#DejaVuSansMono-38" transform="translate(60.205)"/></g></g><g id="ytick_34"><use xlink:href="#mbe78f2a1c5" x="778.805" y="312.997" style="fill:#adf7f6;stroke:#adf7f6;stroke-width:.8" id="line2d_114"/><g style="fill:#adf7f6" transform="matrix(.15 0 0 -.15 792.305 318.735)" id="text_48"><use xlink:href="#DejaVuSansMono-39"/><use xlink:href="#DejaVuSansMono-30" transform="translate(60.205)"/></g></g><g id="ytick_35"><use xlink:href="#mbe78f2a1c5" x="778.805" y="245.141" style="fill:#adf7f6;stroke:#adf7f6;stroke-width:.8" id="line2d_115"/><g style="fill:#adf7f6" transform="matrix(.15 0 0 -.15 792.305 250.88)" id="text_49"><use xlink:href="#DejaVuSansMono-39"/><use xlink:href="#DejaVuSansMono-32" transform="translate(60.205)"/></g></g><g id="ytick_36"><use xlink:href="#mbe78f2a1c5" x="778.805" y="177.286" style="fill:#adf7f6;stroke:#adf7f6;stroke-width:.8" id="line2d_116"/><g style="fill:#adf7f6" transform="matrix(.15 0 0 -.15 792.305 183.025)" id="text_50"><use xlink:href="#DejaVuSansMono-39"/><use xlink:href="#DejaVuSansMono-34" transform="translate(60.205)"/></g></g><g id="ytick_37"><use xlink:href="#mbe78f2a1c5" x="778.805" y="109.431" style="fill:#adf7f6;stroke:#adf7f6;stroke-width:.8" id="line2d_117"/><g style="fill:#adf7f6" transform="matrix(.15 0 0 -.15 792.305 115.17)" id="text_51"><use xlink:href="#DejaVuSansMono-39"/><use xlink:href="#DejaVuSansMono-36" transform="translate(60.205)"/></g></g><g id="ytick_38"><use xlink:href="#mbe78f2a1c5" x="778.805" y="41.575" style="fill:#adf7f6;stroke:#adf7f6;stroke-width:.8" id="line2d_118"/><g style="fill:#adf7f6" transform="matrix(.15 0 0 -.15 792.305 47.314)" id="text_52"><use xlink:href="#DejaVuSansMono-39"/><use xlink:href="#DejaVuSansMono-38" transform="translate(60.205)"/></g></g><g style="fill:#fd5548" transform="matrix(0 -.17 -.17 0 833.374 316.688)" id="text_53"><defs><path id="DejaVuSansMono-45" d="M616 4666h2768v-532H1247V2753h2044v-531H1247V531h2197V0H616v4666z" transform="scale(.01563)"/><path id="DejaVuSansMono-66" d="M3322 4863v-479h-653q-310 0-430-127-120-126-120-448v-309h1203v-447H2119V0h-575v3053H609v447h935v244q0 575 264 847t823 272h691z" transform="scale(.01563)"/><path id="DejaVuSansMono-79" d="M2681 1125q-143-366-365-962-310-826-416-1007-144-244-360-365-215-122-502-122H575v481h341q253 0 396 147 144 147 366 759L325 3500h609L1972 763l1022 2737h609l-922-2375z" transform="scale(.01563)"/><path id="DejaVuSansMono-25" d="M2175 997q0-244 164-410 164-165 408-165 241 0 408 167t167 408q0 241-169 409-169 169-406 169-244 0-408-166-164-165-164-412zm-422 0q0 422 287 711 288 289 707 289 200 0 379-75 180-75 324-219 144-147 222-328t78-378q0-416-291-707Q3169 0 2747 0q-425 0-710 286-284 286-284 711zM378 1453l-109 300 3256 1306 128-300L378 1453zm147 2022q0-247 164-411t411-164q241 0 409 167 169 167 169 408t-169 408q-168 167-409 167t-408-166q-167-165-167-409zm-422 0q0 422 287 711 288 289 710 289 200 0 383-75t323-216q141-140 217-323 77-183 77-386 0-419-291-708-290-289-709-289-422 0-710 287-287 288-287 710z" transform="scale(.01563)"/></defs><use xlink:href="#DejaVuSansMono-50"/><use xlink:href="#DejaVuSansMono-61" transform="translate(60.205)"/><use xlink:href="#DejaVuSansMono-63" transform="translate(120.41)"/><use xlink:href="#DejaVuSansMono-6b" transform="translate(180.615)"/><use xlink:href="#DejaVuSansMono-20" transform="translate(240.82)"/><use xlink:href="#DejaVuSansMono-45" transform="translate(301.025)"/><use xlink:href="#DejaVuSansMono-66" transform="translate(361.23)"/><use xlink:href="#DejaVuSansMono-66" transform="translate(421.436)"/><use xlink:href="#DejaVuSansMono-69" transform="translate(481.64)"/><use xlink:href="#DejaVuSansMono-63" transform="translate(541.846)"/><use xlink:href="#DejaVuSansMono-69" transform="translate(602.05)"/><use xlink:href="#DejaVuSansMono-65" transform="translate(662.256)"/><use xlink:href="#DejaVuSansMono-6e" transform="translate(722.46)"/><use xlink:href="#DejaVuSansMono-63" transform="translate(782.666)"/><use xlink:href="#DejaVuSansMono-79" transform="translate(842.871)"/><use xlink:href="#DejaVuSansMono-20" transform="translate(903.076)"/><use xlink:href="#DejaVuSansMono-28" transform="translate(963.281)"/><use xlink:href="#DejaVuSansMono-25" transform="translate(1023.486)"/><use xlink:href="#DejaVuSansMono-29" transform="translate(1083.691)"/></g></g><path d="m123.596 26.496 6.303 2 6.303 1.999 6.303 1.999 6.303 1.999 6.304 1.999 6.303 1.999 6.303 2 6.303 1.998 6.303 2 6.303 1.998 6.303 2 6.303 1.999 6.304 1.999 6.303 1.999 6.303 1.999 6.303 1.999 6.303 2 6.303 1.998 6.303 2 6.303 1.998 6.303 2 6.304 1.999 6.303 1.999 6.303 1.999 6.303 1.999 6.303 2 6.303 1.998 6.303 2 6.303 1.998 6.304 2 6.303 1.999 6.303 1.999 6.303 1.999 6.303 1.999 6.303 1.999 6.303 2 6.303 1.998 6.304 2 6.303 1.998 6.303 2 6.303 1.999 6.303 1.999 6.303 1.999 6.303 1.999 6.303 2 6.304 1.998 6.303 2 6.303 1.998 6.303 2 6.303 1.999 6.303 1.999 6.303 1.999 6.303 1.999 6.304 1.999 6.303 2 6.303 1.998 6.303 2 6.303 1.998 6.303 2 6.303 1.999 6.303 1.999 6.303 1.999 6.304 1.999 6.303 2 6.303 1.998 6.303 2 6.303 1.998 6.303 2 6.303 1.999 6.303 1.999 6.304 1.999 6.303 1.999 6.303 1.999 6.303 2 6.303 1.998 6.303 2 6.303 1.998 6.303 2 6.304 1.999 6.303 1.999 6.303 1.999 6.303 1.999 6.303 2 6.303 1.998 6.303 2 6.303 1.998 6.304 2 6.303 1.999 6.303 1.999 6.303 1.999 6.303 1.999 6.303 1.999 6.303 2 6.303 1.998 6.304 2 6.303 1.998 6.303 2 6.303 1.999 6.303 1.999" clip-path="url(#p6e2af1a21b)" style="fill:none;stroke-dasharray:7.4,3.2;stroke-dashoffset:0;stroke:#8dd3c7;stroke-opacity:.75;stroke-width:2" id="line2d_119"/><path d="m123.596 39.69 6.303 2.5 6.303 2.498 6.303 2.5 6.303 2.498 6.304 2.499 6.303 2.499 6.303 2.499 6.303 2.499 6.303 2.498 6.303 2.5 6.303 2.498 6.303 2.499 6.304 2.499 6.303 2.499 6.303 2.499 6.303 2.499 6.303 2.498 6.303 2.5 6.303 2.498 6.303 2.5 6.303 2.498 6.304 2.499 6.303 2.499 6.303 2.499 6.303 2.498 6.303 2.5 6.303 2.498 6.303 2.5 6.303 2.498 6.304 2.499 6.303 2.499 6.303 2.499 6.303 2.499 6.303 2.498 6.303 2.5 6.303 2.498 6.303 2.5 6.304 2.498 6.303 2.499 6.303 2.499 6.303 2.499 6.303 2.498 6.303 2.5 6.303 2.498 6.303 2.5 6.304 2.498 6.303 2.499 6.303 2.499 6.303 2.499 6.303 2.499 6.303 2.498 6.303 2.5 6.303 2.498 6.304 2.5 6.303 2.498 6.303 2.499 6.303 2.499 6.303 2.499 6.303 2.498 6.303 2.5 6.303 2.498 6.303 2.5 6.304 2.498 6.303 2.499 6.303 2.499 6.303 2.499 6.303 2.499 6.303 2.498 6.303 2.5 6.303 2.498 6.304 2.5 6.303 2.498 6.303 2.499 6.303 2.499 6.303 2.499 6.303 2.498 6.303 2.5 6.303 2.498 6.304 2.5 6.303 2.498 6.303 2.499 6.303 2.499 6.303 2.499 6.303 2.499 6.303 2.498 6.303 2.5 6.304 2.498 6.303 2.499 6.303 2.499 6.303 2.499 6.303 2.499 6.303 2.499 6.303 2.498 6.303 2.5 6.304 2.498 6.303 2.5 6.303 2.498 6.303 2.499 6.303 2.499" clip-path="url(#p6e2af1a21b)" style="fill:none;stroke-dasharray:7.4,3.2;stroke-dashoffset:0;stroke:#feffb3;stroke-opacity:.75;stroke-width:2" id="line2d_120"/><path d="m123.596 52.885 6.303 2.998 6.303 2.999 6.303 2.999 6.303 2.998 6.304 2.999 6.303 2.999 6.303 2.998 6.303 2.999 6.303 2.998 6.303 3 6.303 2.998 6.303 2.998 6.304 3 6.303 2.998 6.303 2.998 6.303 3 6.303 2.998 6.303 2.998 6.303 3 6.303 2.998 6.303 2.998 6.304 2.999 6.303 2.999 6.303 2.998 6.303 2.999 6.303 2.999 6.303 2.998 6.303 2.999 6.303 2.999 6.304 2.998 6.303 2.999 6.303 2.999 6.303 2.998 6.303 2.999 6.303 2.999 6.303 2.998 6.303 2.999 6.304 2.999 6.303 2.998 6.303 2.999 6.303 2.999 6.303 2.998 6.303 2.999 6.303 2.999 6.303 2.998 6.304 2.999 6.303 2.998 6.303 3 6.303 2.998 6.303 2.998 6.303 3 6.303 2.998 6.303 2.998 6.304 3 6.303 2.998 6.303 2.998 6.303 3 6.303 2.998 6.303 2.998 6.303 2.999 6.303 2.999 6.303 2.998 6.304 2.999 6.303 2.999 6.303 2.998 6.303 2.999 6.303 2.999 6.303 2.998 6.303 2.999 6.303 2.999 6.304 2.998 6.303 2.999 6.303 2.999 6.303 2.998 6.303 2.999 6.303 2.999 6.303 2.998 6.303 2.999 6.304 2.999 6.303 2.998 6.303 2.999 6.303 2.999 6.303 2.998 6.303 2.999 6.303 2.998 6.303 3 6.304 2.998 6.303 2.998 6.303 3 6.303 2.998 6.303 2.998 6.303 3 6.303 2.998 6.303 2.998 6.304 3 6.303 2.998 6.303 2.998 6.303 2.999 6.303 2.999" clip-path="url(#p6e2af1a21b)" style="fill:none;stroke-dasharray:7.4,3.2;stroke-dashoffset:0;stroke:#bfbbd9;stroke-opacity:.75;stroke-width:2" id="line2d_121"/><path d="m123.596 66.079 6.303 3.498 6.303 3.499 6.303 3.498 6.303 3.498 6.304 3.499 6.303 3.498 6.303 3.499 6.303 3.498 6.303 3.499 6.303 3.498 6.303 3.498 6.303 3.499 6.304 3.498 6.303 3.499 6.303 3.498 6.303 3.499 6.303 3.498 6.303 3.498 6.303 3.499 6.303 3.498 6.303 3.499 6.304 3.498 6.303 3.499 6.303 3.498 6.303 3.499 6.303 3.498 6.303 3.498 6.303 3.499 6.303 3.498 6.304 3.499 6.303 3.498 6.303 3.499 6.303 3.498 6.303 3.498 6.303 3.499 6.303 3.498 6.303 3.499 6.304 3.498 6.303 3.499 6.303 3.498 6.303 3.498 6.303 3.499 6.303 3.498 6.303 3.499 6.303 3.498 6.304 3.499 6.303 3.498 6.303 3.498 6.303 3.499 6.303 3.498 6.303 3.499 6.303 3.498 6.303 3.499 6.304 3.498 6.303 3.499 6.303 3.498 6.303 3.498 6.303 3.499 6.303 3.498 6.303 3.499 6.303 3.498 6.303 3.499 6.304 3.498 6.303 3.498 6.303 3.499 6.303 3.498 6.303 3.499 6.303 3.498 6.303 3.499 6.303 3.498 6.304 3.498 6.303 3.499 6.303 3.498 6.303 3.499 6.303 3.498 6.303 3.499 6.303 3.498 6.303 3.499 6.304 3.498 6.303 3.498 6.303 3.499 6.303 3.498 6.303 3.499 6.303 3.498 6.303 3.499 6.303 3.498 6.304 3.498 6.303 3.499 6.303 3.498 6.303 3.499 6.303 3.498 6.303 3.499 6.303 3.498 6.303 3.498 6.304 3.499 6.303 3.498 6.303 3.499 6.303 3.498 6.303 3.499" clip-path="url(#p6e2af1a21b)" style="fill:none;stroke-dasharray:7.4,3.2;stroke-dashoffset:0;stroke:#fa8174;stroke-opacity:.75;stroke-width:2" id="line2d_122"/></g></g><defs><clipPath id="p6e2af1a21b"><path d="M92.395 7.2h686.41v424.52H92.395z"/></clipPath><clipPath id="p3664b1989a"><path d="M92.395 503.1h686.41v424.52H92.395z"/></clipPath></defs></svg>